{
.appVersion = "939";
copyright = "Copyright 2016, Jeremy Tribby. Released under the SIL Open Font License v1.1.";
date = "2017-01-19 02:17:38 +0000";
designer = "Jeremy Tribby";
designerURL = "https://tribby.com/";
familyName = Barlow;
fontMaster = (
{
alignmentZones = (
"{800, 16}",
"{700, 10}",
"{500, 9}",
"{0, -10}",
"{-200, -16}"
);
ascender = 800;
capHeight = 700;
customParameters = (
{
name = paramArea;
value = "488";
},
{
name = paramDepth;
value = "16";
},
{
name = paramOver;
value = "0";
}
);
descender = -200;
horizontalStems = (
22,
22
);
id = "262880E7-CFE1-4BDA-902E-E24798F3240A";
userData = {
GSCornerRadius = 12;
GSOffsetHorizontal = 11;
GSOffsetMakeStroke = 1;
GSOffsetPosition = 0.2;
GSOffsetVertical = 10;
noodleExtremesAndInflections = 1;
noodleRemoveOverlap = 1;
noodleThickness = "22.0";
};
verticalStems = (
21,
21
);
weight = Light;
weightValue = 23;
widthValue = 5;
xHeight = 500;
},
{
alignmentZones = (
"{800, 16}",
"{700, 13}",
"{520, 13}",
"{0, -13}",
"{-200, -7}"
);
ascender = 800;
capHeight = 700;
customParameters = (
{
name = paramArea;
value = "488";
},
{
name = paramDepth;
value = "16";
},
{
name = paramOver;
value = "0";
}
);
descender = -200;
horizontalStems = (
188,
188
);
id = "FFFA8D72-12AC-4CE0-B2CA-57A29829F4DA";
userData = {
GSCornerRadius = 8;
GSOffsetHorizontal = 104;
GSOffsetMakeStroke = 1;
GSOffsetVertical = 95;
noodleExtremesAndInflections = 1;
noodleRemoveOverlap = 1;
noodleThickness = "22.0";
};
verticalStems = (
170,
161
);
weight = Bold;
weightValue = 188;
widthValue = 5;
xHeight = 520;
},
{
alignmentZones = (
"{800, 16}",
"{700, 10}",
"{500, 9}",
"{0, -10}",
"{-200, -16}"
);
ascender = 800;
capHeight = 700;
customParameters = (
{
name = paramArea;
value = "488";
},
{
name = paramDepth;
value = "16";
},
{
name = paramOver;
value = "0";
}
);
descender = -200;
horizontalStems = (
22,
22
);
id = "DCBE1F7B-116A-43E0-B7B4-8657BA77D8B5";
userData = {
GSCornerRadius = 8;
GSOffsetHorizontal = 11;
GSOffsetMakeStroke = 1;

glyphs = (
{
glyphname = A;
lastChange = "2017-02-16 04:19:27 +0000";
layers = (
{
layerId = "262880E7-CFE1-4BDA-902E-E24798F3240A";
paths = (
{
closed = 1;
nodes = (
"52 0 LINE",
"249 658 LINE",
"446 0 LINE",
"468 0 LINE",
"259 700 LINE",
"237 700 LINE",
"30 0 LINE"
);
},
{
closed = 1;
nodes = (
"412 155 LINE",
"412 176 LINE",
"89 176 LINE",
"89 155 LINE"
);
}
);
width = 498;
},
{
layerId = "4E2227F3-52E4-4048-A8EE-327B486EF0A4";
paths = (
{
closed = 1;
nodes = (
"194 0 LINE",
"264 458 LINE",
"321 0 LINE",
"513 0 LINE",
"365 700 LINE",
"154 700 LINE",
"6 0 LINE"
);
},
{
closed = 1;
nodes = (
"393 95 LINE",
"393 239 LINE",
"123 239 LINE",
"123 95 LINE"
);
}
);
width = 519;
},
{
layerId = "FFFA8D72-12AC-4CE0-B2CA-57A29829F4DA";
paths = (
{
closed = 1;
nodes = (
"194 0 LINE",
"306 478 LINE",
"404 0 LINE",
"596 0 LINE",
"406 700 LINE",
"196 700 LINE",
"6 0 LINE"
);
},
{
closed = 1;
nodes = (
"467 95 LINE",
"467 239 LINE",
"132 239 LINE",
"132 95 LINE"
);
}
);
width = 602;
},
{
layerId = "DCBE1F7B-116A-43E0-B7B4-8657BA77D8B5";
paths = (
{
closed = 1;
nodes = (
"46 0 LINE",
"194 658 LINE",
"341 0 LINE",
"363 0 LINE",
"204 700 LINE",
"181 700 LINE",
"24 0 LINE"
);
},
{
closed = 1;
nodes = (
"318 155 LINE",
"318 176 LINE",
"72 176 LINE",
"72 155 LINE"
);
}
);
width = 387;
}
);
leftKerningGroup = A;
rightKerningGroup = A;
unicode = 0041;
},
{
glyphname = B;
lastChange = "2017-02-16 04:19:27 +0000";
layers = (
{
layerId = "262880E7-CFE1-4BDA-902E-E24798F3240A";
paths = (
{
closed = 1;
nodes = (
"102 679 LINE",
"278 679 LINE SMOOTH",
"376 679 OFFCURVE",
"441 617 OFFCURVE",
"441 523 CURVE SMOOTH",
"441 433 OFFCURVE",
"376 373 OFFCURVE",
"278 373 CURVE SMOOTH",
"102 373 LINE"
);
},
{
closed = 1;
nodes = (
"279 352 LINE SMOOTH",
"389 352 OFFCURVE",
"463 420 OFFCURVE",
"463 523 CURVE SMOOTH",
"463 629 OFFCURVE",
"389 700 OFFCURVE",
"278 700 CURVE SMOOTH",
"80 700 LINE",
"80 352 LINE"
);
},
{
closed = 1;
nodes = (
"102 352 LINE",
"278 352 LINE SMOOTH",
"380 352 OFFCURVE",
"448 286 OFFCURVE",
"448 186 CURVE SMOOTH",
"448 88 OFFCURVE",
"382 22 OFFCURVE",
"284 22 CURVE SMOOTH",
"102 22 LINE"
);
},
{
closed = 1;
nodes = (
"284 0 LINE SMOOTH",
"396 0 OFFCURVE",
"470 74 OFFCURVE",
"470 186 CURVE SMOOTH",
"470 298 OFFCURVE",
"394 373 OFFCURVE",
"279 373 CURVE SMOOTH",
"80 373 LINE",
"80 0 LINE"
);
}
);
width = 520;
},
{
layerId = "4E2227F3-52E4-4048-A8EE-327B486EF0A4";
paths = (
{
closed = 1;
nodes = (
"204 539 LINE",
"215 539 LINE",
"245 539 OFFCURVE",
"260 520 OFFCURVE",
"260 483 CURVE SMOOTH",
"260 447 OFFCURVE",
"245 427 OFFCURVE",
"215 427 CURVE",
"204 427 LINE"
);
},
{
closed = 1;
nodes = (
"181 319 LINE SMOOTH",
"356 319 OFFCURVE",
"444 369 OFFCURVE",
"444 503 CURVE SMOOTH",
"444 640 OFFCURVE",
"351 700 OFFCURVE",
"212 700 CURVE",
"16 700 LINE",
"16 319 LINE"
);
},
{
closed = 1;
nodes = (
"204 293 LINE",
"228 293 LINE SMOOTH",
"253 293 OFFCURVE",
"270 266 OFFCURVE",
"270 225 CURVE SMOOTH",
"270 182 OFFCURVE",
"252 161 OFFCURVE",
"227 161 CURVE SMOOTH",
"204 161 LINE"
);
},
{
closed = 1;
nodes = (
"242 0 LINE SMOOTH",
"361 0 OFFCURVE",
"460 65 OFFCURVE",
"458 201 CURVE SMOOTH",
"455 368 OFFCURVE",
"310 418 OFFCURVE",
"179 418 CURVE",
"16 418 LINE",
"16 0 LINE"
);
}
);
width = 468;
},
{
layerId = "FFFA8D72-12AC-4CE0-B2CA-57A29829F4DA";
paths = (
{
closed = 1;
nodes = (
"204 539 LINE",
"264 539 LINE",
"309 539 OFFCURVE",
"337 516 OFFCURVE",
"337 484 CURVE SMOOTH",
"337 451 OFFCURVE",
"307 429 OFFCURVE",
"264 429 CURVE",
"204 429 LINE"
);
},
{
closed = 1;
nodes = (
"218 323 LINE SMOOTH",
"413 321 OFFCURVE",
"521 370 OFFCURVE",
"521 502 CURVE SMOOTH",
"521 640 OFFCURVE",
"404 700 OFFCURVE",
"241 700 CURVE",
"16 700 LINE",
"16 325 LINE"
);
},
{
closed = 1;
nodes = (
"204 276 LINE",
"274 276 LINE SMOOTH",
"313 276 OFFCURVE",
"344 253 OFFCURVE",
"344 220 CURVE SMOOTH",
"344 189 OFFCURVE",
"317 161 OFFCURVE",
"273 161 CURVE SMOOTH",
"204 161 LINE"
);
},
{
closed = 1;
nodes = (
"278 0 LINE SMOOTH",
"420 0 OFFCURVE",
"532 65 OFFCURVE",
"532 200 CURVE SMOOTH",
"532 366 OFFCURVE",
"364 403 OFFCURVE",
"216 403 CURVE",
"16 401 LINE",
"16 0 LINE"
);
}
);
width = 542;
},
{
layerId = "DCBE1F7B-116A-43E0-B7B4-8657BA77D8B5";
paths = (
{
closed = 1;
nodes = (
"86 679 LINE",
"200 679 LINE SMOOTH",
"289 679 OFFCURVE",
"342 621 OFFCURVE",
"342 523 CURVE SMOOTH",
"342 429 OFFCURVE",
"289 373 OFFCURVE",
"200 373 CURVE SMOOTH",
"86 373 LINE"
);
},
{
closed = 1;
nodes = (
"199 352 LINE SMOOTH",
"303 352 OFFCURVE",
"364 415 OFFCURVE",
"364 523 CURVE SMOOTH",
"364 635 OFFCURVE",
"303 700 OFFCURVE",
"200 700 CURVE SMOOTH",
"64 700 LINE",
"64 352 LINE"
);
},
{
closed = 1;
nodes = (
"86 352 LINE",
"200 352 LINE SMOOTH",
"290 352 OFFCURVE",
"343 291 OFFCURVE",
"343 186 CURVE SMOOTH",
"343 83 OFFCURVE",
"290 22 OFFCURVE",
"200 22 CURVE SMOOTH",
"86 22 LINE"
);
},
{
closed = 1;
nodes = (
"201 0 LINE SMOOTH",
"304 0 OFFCURVE",
"365 69 OFFCURVE",
"365 186 CURVE SMOOTH",
"365 304 OFFCURVE",
"304 373 OFFCURVE",
"199 373 CURVE SMOOTH",
"64 373 LINE",
"64 0 LINE"
);
}
);
width = 405;
}
);
leftKerningGroup = H;
rightKerningGroup = B;
unicode = 0042;
},
{
glyphname = C;
lastChange = "2017-02-16 04:19:27 +0000";
layers = (
{
layerId = "262880E7-CFE1-4BDA-902E-E24798F3240A";
paths = (
{
closed = 1;
nodes = (
"390 -9 OFFCURVE",
"468 62 OFFCURVE",
"468 168 CURVE SMOOTH",
"468 177 LINE",
"446 178 LINE",
"446 166 LINE SMOOTH",
"446 74 OFFCURVE",
"377 12 OFFCURVE",
"274 12 CURVE SMOOTH",
"170 12 OFFCURVE",
"102 74 OFFCURVE",
"102 166 CURVE SMOOTH",
"102 535 LINE SMOOTH",
"102 627 OFFCURVE",
"170 688 OFFCURVE",
"274 688 CURVE SMOOTH",
"377 688 OFFCURVE",
"446 627 OFFCURVE",
"446 535 CURVE SMOOTH",
"446 521 LINE",
"468 522 LINE",
"468 533 LINE SMOOTH",
"468 639 OFFCURVE",
"390 709 OFFCURVE",
"274 709 CURVE SMOOTH",
"157 709 OFFCURVE",
"80 639 OFFCURVE",
"80 533 CURVE SMOOTH",
"80 168 LINE SMOOTH",
"80 62 OFFCURVE",
"157 -9 OFFCURVE",
"274 -9 CURVE SMOOTH"
);
}
);
width = 518;
},
{
layerId = "4E2227F3-52E4-4048-A8EE-327B486EF0A4";
paths = (
{
closed = 1;
nodes = (
"366 -11 OFFCURVE",
"454 75 OFFCURVE",
"454 205 CURVE SMOOTH",
"454 224 LINE",
"266 231 LINE",
"266 186 LINE SMOOTH",
"266 164 OFFCURVE",
"254 150 OFFCURVE",
"235 150 CURVE SMOOTH",
"216 150 OFFCURVE",
"204 164 OFFCURVE",
"204 186 CURVE SMOOTH",
"204 515 LINE SMOOTH",
"204 537 OFFCURVE",
"216 552 OFFCURVE",
"235 552 CURVE SMOOTH",
"254 552 OFFCURVE",
"266 537 OFFCURVE",
"266 515 CURVE SMOOTH",
"266 470 LINE",
"454 477 LINE",
"454 497 LINE SMOOTH",
"454 627 OFFCURVE",
"366 713 OFFCURVE",
"235 713 CURVE SMOOTH",
"103 713 OFFCURVE",
"16 627 OFFCURVE",
"16 497 CURVE SMOOTH",
"16 205 LINE SMOOTH",
"16 75 OFFCURVE",
"103 -11 OFFCURVE",
"235 -11 CURVE SMOOTH"
);
}
);
width = 464;
},
{
layerId = "FFFA8D72-12AC-4CE0-B2CA-57A29829F4DA";
paths = (
{
closed = 1;
nodes = (
"426 -11 OFFCURVE",
"528 79 OFFCURVE",
"528 215 CURVE SMOOTH",
"528 224 LINE",
"340 231 LINE",
"340 219 LINE SMOOTH",
"340 178 OFFCURVE",
"313 150 OFFCURVE",
"272 150 CURVE SMOOTH",
"231 150 OFFCURVE",
"204 178 OFFCURVE",
"204 219 CURVE SMOOTH",
"204 482 LINE SMOOTH",
"204 524 OFFCURVE",
"231 552 OFFCURVE",
"272 552 CURVE SMOOTH",
"313 552 OFFCURVE",
"340 524 OFFCURVE",
"340 482 CURVE SMOOTH",
"340 470 LINE",
"528 477 LINE",
"528 487 LINE SMOOTH",
"528 623 OFFCURVE",
"426 713 OFFCURVE",
"272 713 CURVE SMOOTH",
"118 713 OFFCURVE",
"16 617 OFFCURVE",
"16 472 CURVE SMOOTH",
"16 230 LINE SMOOTH",
"16 85 OFFCURVE",
"118 -11 OFFCURVE",
"272 -11 CURVE SMOOTH"
);
}
);
width = 538;
},
{
layerId = "DCBE1F7B-116A-43E0-B7B4-8657BA77D8B5";
paths = (
{
closed = 1;
nodes = (
"304 -9 OFFCURVE",
"364 54 OFFCURVE",
"364 148 CURVE SMOOTH",
"364 177 LINE",
"341 178 LINE",
"341 146 LINE SMOOTH",
"341 66 OFFCURVE",
"290 12 OFFCURVE",
"213 12 CURVE SMOOTH",
"137 12 OFFCURVE",
"86 66 OFFCURVE",
"86 146 CURVE SMOOTH",
"86 555 LINE SMOOTH",
"86 635 OFFCURVE",
"137 688 OFFCURVE",
"213 688 CURVE SMOOTH",
"290 688 OFFCURVE",
"341 635 OFFCURVE",
"341 555 CURVE SMOOTH",
"341 521 LINE",
"364 522 LINE",
"364 553 LINE SMOOTH",
"364 647 OFFCURVE",
"304 709 OFFCURVE",
"213 709 CURVE SMOOTH",
"124 709 OFFCURVE",
"64 647 OFFCURVE",
"64 553 CURVE SMOOTH",
"64 148 LINE SMOOTH",
"64 54 OFFCURVE",
"124 -9 OFFCURVE",
"213 -9 CURVE SMOOTH"
);
}
);
width = 404;
}
);
leftKerningGroup = O;
rightKerningGroup = C;
unicode = 0043;
},
{
glyphname = D;
lastChange = "2017-02-16 04:19:27 +0000";
layers = (
{
layerId = "262880E7-CFE1-4BDA-902E-E24798F3240A";
paths = (
{
closed = 1;
nodes = (
"276 0 LINE SMOOTH",
"393 0 OFFCURVE",
"465 68 OFFCURVE",
"465 180 CURVE SMOOTH",
"465 520 LINE SMOOTH",
"465 632 OFFCURVE",
"393 700 OFFCURVE",
"276 700 CURVE SMOOTH",
"90 700 LINE",
"90 0 LINE"
);
},
{
closed = 1;
nodes = (
"112 679 LINE",
"278 679 LINE SMOOTH",
"380 679 OFFCURVE",
"443 619 OFFCURVE",
"443 520 CURVE SMOOTH",
"443 179 LINE SMOOTH",
"443 81 OFFCURVE",
"380 21 OFFCURVE",
"278 21 CURVE SMOOTH",
"112 21 LINE"
);
}
);
width = 535;
},
{
layerId = "4E2227F3-52E4-4048-A8EE-327B486EF0A4";
paths = (
{
closed = 1;
nodes = (
"230 0 LINE SMOOTH",
"364 0 OFFCURVE",
"453 80 OFFCURVE",
"453 200 CURVE SMOOTH",
"453 500 LINE SMOOTH",
"453 620 OFFCURVE",
"364 700 OFFCURVE",
"230 700 CURVE SMOOTH",
"18 700 LINE",
"18 0 LINE"
);
},
{
closed = 1;
nodes = (
"206 530 LINE",
"225 530 LINE SMOOTH",
"249 530 OFFCURVE",
"265 510 OFFCURVE",
"265 479 CURVE",
"265 222 LINE",
"263 192 OFFCURVE",
"247 172 OFFCURVE",
"226 171 CURVE SMOOTH",
"206 170 LINE"
);
}
);
width = 467;
},
{
layerId = "FFFA8D72-12AC-4CE0-B2CA-57A29829F4DA";
paths = (
{
closed = 1;
nodes = (
"265 0 LINE SMOOTH",
"421 0 OFFCURVE",
"524 80 OFFCURVE",
"524 205 CURVE SMOOTH",
"524 495 LINE SMOOTH",
"524 620 OFFCURVE",
"421 700 OFFCURVE",
"265 700 CURVE SMOOTH",
"18 700 LINE",
"18 0 LINE"
);
},
{
closed = 1;
nodes = (
"206 530 LINE",
"261 530 LINE SMOOTH",
"307 530 OFFCURVE",
"336 510 OFFCURVE",
"336 474 CURVE",
"336 227 LINE",
"334 192 OFFCURVE",
"305 172 OFFCURVE",
"262 171 CURVE SMOOTH",
"206 170 LINE"
);
}
);
width = 538;
},
{
layerId = "DCBE1F7B-116A-43E0-B7B4-8657BA77D8B5";
paths = (
{
closed = 1;
nodes = (
"216 0 LINE SMOOTH",
"306 0 OFFCURVE",
"362 68 OFFCURVE",
"362 180 CURVE SMOOTH",
"362 520 LINE SMOOTH",
"362 632 OFFCURVE",
"306 700 OFFCURVE",
"216 700 CURVE SMOOTH",
"72 700 LINE",
"72 0 LINE"
);
},
{
closed = 1;
nodes = (
"94 679 LINE",
"217 679 LINE SMOOTH",
"293 679 OFFCURVE",
"339 619 OFFCURVE",
"339 520 CURVE SMOOTH",
"339 179 LINE SMOOTH",
"339 81 OFFCURVE",
"292 21 OFFCURVE",
"217 21 CURVE SMOOTH",
"94 21 LINE"
);
}
);
width = 418;
}
);
leftKerningGroup = H;
rightKerningGroup = B;
unicode = 0044;
},
{
glyphname = E;
lastChange = "2017-02-16 04:19:27 +0000";
layers = (
{
layerId = "262880E7-CFE1-4BDA-902E-E24798F3240A";
paths = (
{
closed = 1;
nodes = (
"454 0 LINE",
"454 21 LINE",
"112 21 LINE",
"112 679 LINE",
"454 679 LINE",
"454 700 LINE",
"90 700 LINE",
"90 0 LINE"
);
},
{
closed = 1;
nodes = (
"347 340 LINE",
"347 361 LINE",
"101 361 LINE",
"101 340 LINE"
);
}
);
width = 494;
},
{
layerId = "4E2227F3-52E4-4048-A8EE-327B486EF0A4";
paths = (
{
closed = 1;
nodes = (
"418 0 LINE",
"418 170 LINE",
"206 170 LINE",
"206 530 LINE",
"418 530 LINE",
"418 700 LINE",
"18 700 LINE",
"18 0 LINE"
);
},
{
closed = 1;
nodes = (
"326 265 LINE",
"326 435 LINE",
"94 435 LINE",
"94 265 LINE"
);
}
);
width = 426;
},
{
layerId = "FFFA8D72-12AC-4CE0-B2CA-57A29829F4DA";
paths = (
{
closed = 1;
nodes = (
"488 0 LINE",
"488 170 LINE",
"206 170 LINE",
"206 530 LINE",
"488 530 LINE",
"488 700 LINE",
"18 700 LINE",
"18 0 LINE"
);
},
{
closed = 1;
nodes = (
"374 265 LINE",
"374 435 LINE",
"94 435 LINE",
"94 265 LINE"
);
}
);
width = 496;
},
{
layerId = "DCBE1F7B-116A-43E0-B7B4-8657BA77D8B5";
paths = (
{
closed = 1;
nodes = (
"353 0 LINE",
"353 21 LINE",
"94 21 LINE",
"94 679 LINE",
"353 679 LINE",
"353 700 LINE",
"72 700 LINE",
"72 0 LINE"
);
},
{
closed = 1;
nodes = (
"271 340 LINE",
"271 361 LINE",
"83 361 LINE",
"83 340 LINE"
);
}
);
width = 385;
}
);
leftKerningGroup = H;
unicode = 0045;
},
{
glyphname = F;
lastChange = "2017-02-16 04:19:27 +0000";
layers = (
{
layerId = "262880E7-CFE1-4BDA-902E-E24798F3240A";
paths = (
{
closed = 1;
nodes = (
"112 0 LINE",
"112 679 LINE",
"453 679 LINE",
"453 700 LINE",
"90 700 LINE",
"90 0 LINE"
);
},
{
closed = 1;
nodes = (
"346 340 LINE",
"346 361 LINE",
"101 361 LINE",
"101 340 LINE"
);
}
);
width = 483;
},
{
layerId = "4E2227F3-52E4-4048-A8EE-327B486EF0A4";
paths = (
{
closed = 1;
nodes = (
"206 0 LINE",
"206 530 LINE",
"418 530 LINE",
"418 700 LINE",
"18 700 LINE",
"18 0 LINE"
);
},
{
closed = 1;
nodes = (
"326 265 LINE",
"326 435 LINE",
"94 435 LINE",
"94 265 LINE"
);
}
);
width = 424;
},
{
layerId = "FFFA8D72-12AC-4CE0-B2CA-57A29829F4DA";
paths = (
{
closed = 1;
nodes = (
"206 0 LINE",
"206 530 LINE",
"487 530 LINE",
"487 700 LINE",
"18 700 LINE",
"18 0 LINE"
);
},
{
closed = 1;
nodes = (
"374 265 LINE",
"374 435 LINE",
"94 435 LINE",
"94 265 LINE"
);
}
);
width = 493;
},
{
layerId = "DCBE1F7B-116A-43E0-B7B4-8657BA77D8B5";
paths = (
{
closed = 1;
nodes = (
"94 0 LINE",
"94 679 LINE",
"352 679 LINE",
"352 700 LINE",
"72 700 LINE",
"72 0 LINE"
);
},
{
closed = 1;
nodes = (
"270 340 LINE",
"270 361 LINE",
"83 361 LINE",
"83 340 LINE"
);
}
);
width = 376;
}
);
leftKerningGroup = H;
unicode = 0046;
},
{
glyphname = G;
lastChange = "2017-02-16 04:19:27 +0000";
layers = (
{
layerId = "262880E7-CFE1-4BDA-902E-E24798F3240A";
paths = (
{
closed = 1;
nodes = (
"390 -9 OFFCURVE",
"467 64 OFFCURVE",
"467 174 CURVE SMOOTH",
"467 356 LINE",
"283 356 LINE",
"283 335 LINE",
"445 335 LINE",
"445 172 LINE SMOOTH",
"445 76 OFFCURVE",
"377 12 OFFCURVE",
"274 12 CURVE SMOOTH",
"171 12 OFFCURVE",
"102 76 OFFCURVE",
"102 172 CURVE SMOOTH",
"102 528 LINE SMOOTH",
"102 624 OFFCURVE",
"171 688 OFFCURVE",
"274 688 CURVE SMOOTH",
"377 688 OFFCURVE",
"445 624 OFFCURVE",
"445 528 CURVE SMOOTH",
"445 500 LINE",
"467 500 LINE",
"467 526 LINE SMOOTH",
"467 636 OFFCURVE",
"390 709 OFFCURVE",
"274 709 CURVE SMOOTH",
"158 709 OFFCURVE",
"80 636 OFFCURVE",
"80 526 CURVE SMOOTH",
"80 174 LINE SMOOTH",
"80 64 OFFCURVE",
"158 -9 OFFCURVE",
"274 -9 CURVE SMOOTH"
);
}
);
width = 517;
},
{
layerId = "4E2227F3-52E4-4048-A8EE-327B486EF0A4";
paths = (
{
closed = 1;
nodes = (
"366 -11 OFFCURVE",
"454 72 OFFCURVE",
"454 196 CURVE SMOOTH",
"454 409 LINE",
"237 409 LINE",
"237 264 LINE",
"266 264 LINE",
"266 192 LINE SMOOTH",
"266 167 OFFCURVE",
"254 150 OFFCURVE",
"235 150 CURVE SMOOTH",
"216 150 OFFCURVE",
"204 167 OFFCURVE",
"204 192 CURVE SMOOTH",
"204 509 LINE SMOOTH",
"204 534 OFFCURVE",
"216 551 OFFCURVE",
"235 551 CURVE SMOOTH",
"254 551 OFFCURVE",
"266 534 OFFCURVE",
"266 509 CURVE SMOOTH",
"266 455 LINE",
"454 455 LINE",
"454 503 LINE SMOOTH",
"454 628 OFFCURVE",
"366 712 OFFCURVE",
"235 712 CURVE SMOOTH",
"103 712 OFFCURVE",
"16 629 OFFCURVE",
"16 505 CURVE SMOOTH",
"16 196 LINE SMOOTH",
"16 72 OFFCURVE",
"103 -11 OFFCURVE",
"235 -11 CURVE SMOOTH"
);
}
);
width = 464;
},
{
layerId = "FFFA8D72-12AC-4CE0-B2CA-57A29829F4DA";
paths = (
{
closed = 1;
nodes = (
"425 -11 OFFCURVE",
"527 88 OFFCURVE",
"527 236 CURVE SMOOTH",
"527 409 LINE",
"276 409 LINE",
"276 264 LINE",
"340 264 LINE",
"340 227 LINE SMOOTH",
"340 181 OFFCURVE",
"313 150 OFFCURVE",
"272 150 CURVE SMOOTH",
"231 150 OFFCURVE",
"204 181 OFFCURVE",
"204 227 CURVE SMOOTH",
"204 474 LINE SMOOTH",
"204 520 OFFCURVE",
"231 551 OFFCURVE",
"272 551 CURVE SMOOTH",
"313 551 OFFCURVE",
"340 520 OFFCURVE",
"340 474 CURVE SMOOTH",
"340 455 LINE",
"527 455 LINE",
"527 463 LINE SMOOTH",
"527 612 OFFCURVE",
"425 712 OFFCURVE",
"272 712 CURVE SMOOTH",
"118 712 OFFCURVE",
"16 613 OFFCURVE",
"16 465 CURVE SMOOTH",
"16 236 LINE SMOOTH",
"16 88 OFFCURVE",
"118 -11 OFFCURVE",
"272 -11 CURVE SMOOTH"
);
}
);
width = 535;
},
{
layerId = "DCBE1F7B-116A-43E0-B7B4-8657BA77D8B5";
paths = (
{
closed = 1;
nodes = (
"303 -9 OFFCURVE",
"363 52 OFFCURVE",
"363 144 CURVE SMOOTH",
"363 356 LINE",
"220 356 LINE",
"220 335 LINE",
"341 335 LINE",
"341 142 LINE SMOOTH",
"341 64 OFFCURVE",
"290 12 OFFCURVE",
"213 12 CURVE SMOOTH",
"137 12 OFFCURVE",
"86 64 OFFCURVE",
"86 142 CURVE SMOOTH",
"86 558 LINE SMOOTH",
"86 636 OFFCURVE",
"137 688 OFFCURVE",
"213 688 CURVE SMOOTH",
"290 688 OFFCURVE",
"341 636 OFFCURVE",
"341 558 CURVE SMOOTH",
"341 500 LINE",
"363 500 LINE",
"363 556 LINE SMOOTH",
"363 648 OFFCURVE",
"303 709 OFFCURVE",
"213 709 CURVE SMOOTH",
"124 709 OFFCURVE",
"64 648 OFFCURVE",
"64 556 CURVE SMOOTH",
"64 144 LINE SMOOTH",
"64 52 OFFCURVE",
"124 -9 OFFCURVE",
"213 -9 CURVE SMOOTH"
);
}
);
width = 403;
}
);
leftKerningGroup = O;
rightKerningGroup = G;
unicode = 0047;
},
{
glyphname = H;
lastChange = "2017-02-16 04:19:27 +0000";
layers = (
{
layerId = "262880E7-CFE1-4BDA-902E-E24798F3240A";
paths = (
{
closed = 1;
nodes = (
"455 0 LINE",
"455 700 LINE",
"433 700 LINE",
"433 0 LINE"
);
},
{
closed = 1;
nodes = (
"112 0 LINE",
"112 700 LINE",
"90 700 LINE",
"90 0 LINE"
);
},
{
closed = 1;
nodes = (
"438 340 LINE",
"438 361 LINE",
"107 361 LINE",
"107 340 LINE"
);
}
);
width = 545;
},
{
layerId = "4E2227F3-52E4-4048-A8EE-327B486EF0A4";
paths = (
{
closed = 1;
nodes = (
"451 0 LINE",
"451 700 LINE",
"263 700 LINE",
"263 0 LINE"
);
},
{
closed = 1;
nodes = (
"206 0 LINE",
"206 700 LINE",
"18 700 LINE",
"18 0 LINE"
);
},
{
closed = 1;
nodes = (
"353 265 LINE",
"353 435 LINE",
"118 435 LINE",
"118 265 LINE"
);
}
);
width = 469;
},
{
layerId = "FFFA8D72-12AC-4CE0-B2CA-57A29829F4DA";
paths = (
{
closed = 1;
nodes = (
"520 0 LINE",
"520 700 LINE",
"332 700 LINE",
"332 0 LINE"
);
},
{
closed = 1;
nodes = (
"206 0 LINE",
"206 700 LINE",
"18 700 LINE",
"18 0 LINE"
);
},
{
closed = 1;
nodes = (
"421 265 LINE",
"421 435 LINE",
"119 435 LINE",
"119 265 LINE"
);
}
);
width = 538;
},
{
layerId = "DCBE1F7B-116A-43E0-B7B4-8657BA77D8B5";
paths = (
{
closed = 1;
nodes = (
"355 0 LINE",
"355 700 LINE",
"333 700 LINE",
"333 0 LINE"
);
},
{
closed = 1;
nodes = (
"94 0 LINE",
"94 700 LINE",
"72 700 LINE",
"72 0 LINE"
);
},
{
closed = 1;
nodes = (
"340 340 LINE",
"340 361 LINE",
"88 361 LINE",
"88 340 LINE"
);
}
);
width = 427;
}
);
unicode = 0048;
},
{
glyphname = I;
lastChange = "2017-02-16 04:19:27 +0000";
layers = (
{
layerId = "262880E7-CFE1-4BDA-902E-E24798F3240A";
paths = (
{
closed = 1;
nodes = (
"112 0 LINE",
"112 700 LINE",
"90 700 LINE",
"90 0 LINE"
);
}
);
width = 202;
},
{
layerId = "4E2227F3-52E4-4048-A8EE-327B486EF0A4";
paths = (
{
closed = 1;
nodes = (
"206 0 LINE",
"206 700 LINE",
"18 700 LINE",
"18 0 LINE"
);
}
);
width = 224;
},
{
layerId = "FFFA8D72-12AC-4CE0-B2CA-57A29829F4DA";
paths = (
{
closed = 1;
nodes = (
"206 0 LINE",
"206 700 LINE",
"18 700 LINE",
"18 0 LINE"
);
}
);
width = 224;
},
{
layerId = "DCBE1F7B-116A-43E0-B7B4-8657BA77D8B5";
paths = (
{
closed = 1;
nodes = (
"94 0 LINE",
"94 700 LINE",
"72 700 LINE",
"72 0 LINE"
);
}
);
width = 166;
}
);
unicode = 0049;
},
{
glyphname = J;
lastChange = "2017-02-16 04:19:27 +0000";
layers = (
{
layerId = "262880E7-CFE1-4BDA-902E-E24798F3240A";
paths = (
{
closed = 1;
nodes = (
"328 -9 OFFCURVE",
"403 62 OFFCURVE",
"403 168 CURVE SMOOTH",
"403 700 LINE",
"381 700 LINE",
"381 166 LINE SMOOTH",
"381 74 OFFCURVE",
"314 12 OFFCURVE",
"216 12 CURVE SMOOTH",
"118 12 OFFCURVE",
"52 74 OFFCURVE",
"52 166 CURVE SMOOTH",
"52 251 LINE",
"30 251 LINE",
"30 168 LINE SMOOTH",
"30 62 OFFCURVE",
"104 -9 OFFCURVE",
"216 -9 CURVE SMOOTH"
);
}
);
width = 493;
},
{
layerId = "4E2227F3-52E4-4048-A8EE-327B486EF0A4";
paths = (
{
closed = 1;
nodes = (
"354 -8 OFFCURVE",
"442 72 OFFCURVE",
"442 192 CURVE SMOOTH",
"442 700 LINE",
"254 700 LINE",
"254 190 LINE SMOOTH",
"254 168 OFFCURVE",
"241 153 OFFCURVE",
"223 153 CURVE SMOOTH",
"206 153 OFFCURVE",
"194 168 OFFCURVE",
"194 190 CURVE SMOOTH",
"194 265 LINE",
"6 265 LINE",
"6 192 LINE SMOOTH",
"6 72 OFFCURVE",
"93 -8 OFFCURVE",
"223 -8 CURVE SMOOTH"
);
}
);
width = 460;
},
{
layerId = "FFFA8D72-12AC-4CE0-B2CA-57A29829F4DA";
paths = (
{
closed = 1;
nodes = (
"410 -8 OFFCURVE",
"512 80 OFFCURVE",
"512 212 CURVE SMOOTH",
"512 700 LINE",
"325 700 LINE",
"325 213 LINE SMOOTH",
"325 177 OFFCURVE",
"298 153 OFFCURVE",
"258 153 CURVE SMOOTH",
"220 153 OFFCURVE",
"194 177 OFFCURVE",
"194 213 CURVE SMOOTH",
"194 280 LINE",
"6 280 LINE",
"6 212 LINE SMOOTH",
"6 80 OFFCURVE",
"107 -8 OFFCURVE",
"258 -8 CURVE SMOOTH"
);
}
);
width = 530;
},
{
layerId = "DCBE1F7B-116A-43E0-B7B4-8657BA77D8B5";
paths = (
{
closed = 1;
nodes = (
"254 -9 OFFCURVE",
"312 54 OFFCURVE",
"312 148 CURVE SMOOTH",
"312 700 LINE",
"290 700 LINE",
"290 146 LINE SMOOTH",
"290 66 OFFCURVE",
"241 12 OFFCURVE",
"168 12 CURVE SMOOTH",
"95 12 OFFCURVE",
"46 66 OFFCURVE",
"46 146 CURVE SMOOTH",
"46 251 LINE",
"24 251 LINE",
"24 148 LINE SMOOTH",
"24 54 OFFCURVE",
"82 -9 OFFCURVE",
"168 -9 CURVE SMOOTH"
);
}
);
width = 384;
}
);
leftKerningGroup = J;
rightKerningGroup = U;
unicode = 004A;
},
{
glyphname = K;
lastChange = "2017-02-16 04:19:27 +0000";
layers = (
{
layerId = "262880E7-CFE1-4BDA-902E-E24798F3240A";
paths = (
{
closed = 1;
nodes = (
"112 0 LINE",
"112 274 LINE",
"231 407 LINE",
"480 0 LINE",
"508 0 LINE",
"246 427 LINE",
"485 700 LINE",
"457 700 LINE",
"112 307 LINE",
"112 700 LINE",
"90 700 LINE",
"90 0 LINE"
);
}
);
width = 508;
},
{
layerId = "4E2227F3-52E4-4048-A8EE-327B486EF0A4";
paths = (
{
closed = 1;
nodes = (
"206 0 LINE",
"206 183 LINE",
"238 246 LINE",
"300 -4 LINE",
"498 0 LINE",
"360 392 LINE",
"500 700 LINE",
"302 700 LINE",
"206 447 LINE",
"206 700 LINE",
"18 700 LINE",
"18 0 LINE"
);
}
);
width = 500;
},
{
layerId = "FFFA8D72-12AC-4CE0-B2CA-57A29829F4DA";
paths = (
{
closed = 1;
nodes = (
"206 0 LINE",
"206 183 LINE",
"258 257 LINE",
"378 -4 LINE",
"577 0 LINE",
"385 392 LINE",
"574 700 LINE",
"375 700 LINE",
"206 447 LINE",
"206 700 LINE",
"18 700 LINE",
"18 0 LINE"
);
}
);
width = 577;
},
{
layerId = "DCBE1F7B-116A-43E0-B7B4-8657BA77D8B5";
paths = (
{
closed = 1;
nodes = (
"94 0 LINE",
"94 274 LINE",
"182 406 LINE",
"368 0 LINE",
"395 0 LINE",
"198 427 LINE",
"378 700 LINE",
"350 700 LINE",
"94 308 LINE",
"94 700 LINE",
"72 700 LINE",
"72 0 LINE"
);
}
);
width = 395;
}
);
rightKerningGroup = K;
unicode = 004B;
},
{
glyphname = L;
lastChange = "2017-02-16 04:19:27 +0000";
layers = (
{
layerId = "262880E7-CFE1-4BDA-902E-E24798F3240A";
paths = (
{
closed = 1;
nodes = (
"448 0 LINE",
"448 21 LINE",
"112 21 LINE",
"112 700 LINE",
"90 700 LINE",
"90 0 LINE"
);
}
);
width = 468;
},
{
layerId = "4E2227F3-52E4-4048-A8EE-327B486EF0A4";
paths = (
{
closed = 1;
nodes = (
"427 0 LINE",
"427 170 LINE",
"206 170 LINE",
"206 700 LINE",
"18 700 LINE",
"18 0 LINE"
);
}
);
width = 431;
},
{
layerId = "FFFA8D72-12AC-4CE0-B2CA-57A29829F4DA";
paths = (
{
closed = 1;
nodes = (
"495 0 LINE",
"495 170 LINE",
"206 170 LINE",
"206 700 LINE",
"18 700 LINE",
"18 0 LINE"
);
}
);
width = 499;
},
{
layerId = "DCBE1F7B-116A-43E0-B7B4-8657BA77D8B5";
paths = (
{
closed = 1;
nodes = (
"349 0 LINE",
"349 21 LINE",
"94 21 LINE",
"94 700 LINE",
"72 700 LINE",
"72 0 LINE"
);
}
);
width = 365;
}
);
rightKerningGroup = L;
unicode = 004C;
},
{
color = 1;
glyphname = M;
lastChange = "2017-02-16 04:19:27 +0000";
layers = (
{
layerId = "262880E7-CFE1-4BDA-902E-E24798F3240A";
paths = (
{
closed = 1;
nodes = (
"102 0 LINE",
"102 654 LINE",
"279 329 LINE",
"297 329 LINE",
"472 654 LINE",
"472 0 LINE",
"494 0 LINE",
"494 700 LINE",
"472 700 LINE",
"286 358 LINE",
"102 700 LINE",
"80 700 LINE",
"80 0 LINE"
);
}
);
width = 574;
},
{
layerId = "4E2227F3-52E4-4048-A8EE-327B486EF0A4";
paths = (
{
closed = 1;
nodes = (
"204 0 LINE",
"204 439 LINE",
"263 310 LINE",
"264 310 LINE",
"324 436 LINE",
"324 0 LINE",
"512 0 LINE",
"512 700 LINE",
"329 700 LINE",
"264 560 LINE",
"199 700 LINE",
"16 700 LINE",
"16 0 LINE"
);
}
);
width = 528;
},
{
associatedMasterId = "4E2227F3-52E4-4048-A8EE-327B486EF0A4";
layerId = "C618EEF0-F381-433B-B25F-2EDAE517ED4C";
name = "{100,3}";
paths = (
{
closed = 1;
nodes = (
"133 0 LINE",
"133 490 LINE",
"230 280 LINE",
"239 280 LINE",
"336 488 LINE",
"336 0 LINE",
"435 0 LINE",
"435 700 LINE",
"338 700 LINE",
"234 452 LINE",
"130 700 LINE",
"33 700 LINE",
"33 0 LINE"
);
}
);
width = 468;
},
{
layerId = "FFFA8D72-12AC-4CE0-B2CA-57A29829F4DA";
paths = (
{
closed = 1;
nodes = (
"204 0 LINE",
"204 418 LINE",
"279 282 LINE",
"349 282 LINE",
"424 418 LINE",
"424 0 LINE",
"612 0 LINE",
"612 700 LINE",
"429 700 LINE",
"314 512 LINE",
"199 700 LINE",
"16 700 LINE",
"16 0 LINE"
);
}
);
width = 628;
},
{
layerId = "DCBE1F7B-116A-43E0-B7B4-8657BA77D8B5";
paths = (
{
closed = 1;
nodes = (
"86 0 LINE",
"86 651 LINE",
"216 330 LINE",
"234 330 LINE",
"362 651 LINE",
"362 0 LINE",
"384 0 LINE",
"384 700 LINE",
"362 700 LINE",
"223 358 LINE",
"86 700 LINE",
"64 700 LINE",
"64 0 LINE"
);
}
);
width = 448;
},
{
associatedMasterId = "4E2227F3-52E4-4048-A8EE-327B486EF0A4";
layerId = "B75973C7-2F91-404C-BACF-1A0B6CD40DCC";
name = "{100,5}";
paths = (
{
closed = 1;
nodes = (
"145 0 LINE",
"145 516 LINE",
"271 291 LINE",
"319 291 LINE",
"445 516 LINE",
"445 0 LINE",
"544 0 LINE",
"544 700 LINE",
"447 700 LINE",
"294 427 LINE",
"142 700 LINE",
"45 700 LINE",
"45 0 LINE"
);
}
);
width = 590;
}
);
unicode = 004D;
},
{
color = 1;
glyphname = N;
lastChange = "2017-02-16 04:19:28 +0000";
layers = (
{
layerId = "262880E7-CFE1-4BDA-902E-E24798F3240A";
paths = (
{
closed = 1;
nodes = (
"102 0 LINE",
"102 648 LINE",
"441 0 LINE",
"463 0 LINE",
"463 700 LINE",
"441 700 LINE",
"441 52 LINE",
"102 700 LINE",
"80 700 LINE",
"80 0 LINE"
);
}
);
width = 543;
},
{
layerId = "4E2227F3-52E4-4048-A8EE-327B486EF0A4";
paths = (
{
closed = 1;
nodes = (
"202 0 LINE",
"200 346 LINE",
"286 0 LINE",
"492 0 LINE",
"492 700 LINE",
"306 700 LINE",
"307 356 LINE",
"220 700 LINE",
"16 700 LINE",
"16 0 LINE"
);
}
);
width = 508;
},
{
layerId = "FFFA8D72-12AC-4CE0-B2CA-57A29829F4DA";
paths = (
{
closed = 1;
nodes = (
"202 0 LINE",
"200 352 LINE",
"396 0 LINE",
"552 0 LINE",
"552 700 LINE",
"366 700 LINE",
"368 341 LINE",
"172 700 LINE",
"16 700 LINE",
"16 0 LINE"
);
}
);
width = 568;
},
{
layerId = "DCBE1F7B-116A-43E0-B7B4-8657BA77D8B5";
paths = (
{
closed = 1;
nodes = (
"86 0 LINE",
"86 648 LINE",
"338 0 LINE",
"361 0 LINE",
"361 700 LINE",
"339 700 LINE",
"339 52 LINE",
"86 700 LINE",
"64 700 LINE",
"64 0 LINE"
);
}
);
width = 425;
},
{
associatedMasterId = "4E2227F3-52E4-4048-A8EE-327B486EF0A4";
layerId = "AF700569-CAED-4344-924C-FF7EDA896D2F";
name = "{100,5}";
paths = (
{
closed = 1;
nodes = (
"144 0 LINE",
"143 490 LINE",
"404 0 LINE",
"500 0 LINE",
"500 700 LINE",
"401 700 LINE",
"402 207 LINE",
"141 700 LINE",
"45 700 LINE",
"45 0 LINE"
);
}
);
width = 545;
},
{
associatedMasterId = "4E2227F3-52E4-4048-A8EE-327B486EF0A4";
layerId = "42C43E0D-C6E2-494E-A0C1-A4C56C6C4E84";
name = "{100,3}";
paths = (
{
closed = 1;
nodes = (
"132 0 LINE",
"131 467 LINE",
"308 0 LINE",
"414 0 LINE",
"414 700 LINE",
"315 700 LINE",
"316 234 LINE",
"137 700 LINE",
"33 700 LINE",
"33 0 LINE"
);
}
);
width = 447;
}
);
leftKerningGroup = H;
rightKerningGroup = H;
unicode = 004E;
},
{
glyphname = O;
lastChange = "2017-02-16 04:19:28 +0000";
layers = (
{
layerId = "262880E7-CFE1-4BDA-902E-E24798F3240A";
paths = (
{
closed = 1;
nodes = (
"375 -9 OFFCURVE",
"454 67 OFFCURVE",
"454 180 CURVE SMOOTH",
"454 519 LINE SMOOTH",
"454 633 OFFCURVE",
"375 709 OFFCURVE",
"256 709 CURVE SMOOTH",
"138 709 OFFCURVE",
"60 633 OFFCURVE",
"60 519 CURVE SMOOTH",
"60 180 LINE SMOOTH",
"60 67 OFFCURVE",
"138 -9 OFFCURVE",
"256 -9 CURVE SMOOTH"
);
},
{
closed = 1;
nodes = (
"152 12 OFFCURVE",
"82 78 OFFCURVE",
"82 178 CURVE SMOOTH",
"82 521 LINE SMOOTH",
"82 621 OFFCURVE",
"152 688 OFFCURVE",
"256 688 CURVE SMOOTH",
"362 688 OFFCURVE",
"432 621 OFFCURVE",
"432 521 CURVE SMOOTH",
"432 178 LINE SMOOTH",
"432 78 OFFCURVE",
"362 12 OFFCURVE",
"256 12 CURVE SMOOTH"
);
}
);
width = 514;
},
{
layerId = "4E2227F3-52E4-4048-A8EE-327B486EF0A4";
paths = (
{
closed = 1;
nodes = (
"362 -12 OFFCURVE",
"450 75 OFFCURVE",
"450 206 CURVE SMOOTH",
"450 494 LINE SMOOTH",
"450 625 OFFCURVE",
"362 712 OFFCURVE",
"231 712 CURVE SMOOTH",
"99 712 OFFCURVE",
"12 625 OFFCURVE",
"12 494 CURVE SMOOTH",
"12 206 LINE SMOOTH",
"12 75 OFFCURVE",
"99 -12 OFFCURVE",
"231 -12 CURVE SMOOTH"
);
},
{
closed = 1;
nodes = (
"212 149 OFFCURVE",
"200 166 OFFCURVE",
"200 191 CURVE SMOOTH",
"200 509 LINE SMOOTH",
"200 534 OFFCURVE",
"212 551 OFFCURVE",
"231 551 CURVE SMOOTH",
"250 551 OFFCURVE",
"262 534 OFFCURVE",
"262 509 CURVE SMOOTH",
"262 191 LINE SMOOTH",
"262 166 OFFCURVE",
"250 149 OFFCURVE",
"231 149 CURVE SMOOTH"
);
}
);
width = 462;
},
{
layerId = "FFFA8D72-12AC-4CE0-B2CA-57A29829F4DA";
paths = (
{
closed = 1;
nodes = (
"422 -12 OFFCURVE",
"525 87 OFFCURVE",
"525 236 CURVE SMOOTH",
"525 464 LINE SMOOTH",
"525 613 OFFCURVE",
"422 712 OFFCURVE",
"268 712 CURVE SMOOTH",
"114 712 OFFCURVE",
"12 613 OFFCURVE",
"12 464 CURVE SMOOTH",
"12 236 LINE SMOOTH",
"12 87 OFFCURVE",
"114 -12 OFFCURVE",
"268 -12 CURVE SMOOTH"
);
},
{
closed = 1;
nodes = (
"227 149 OFFCURVE",
"200 180 OFFCURVE",
"200 226 CURVE SMOOTH",
"200 474 LINE SMOOTH",
"200 520 OFFCURVE",
"227 551 OFFCURVE",
"268 551 CURVE SMOOTH",
"309 551 OFFCURVE",
"337 520 OFFCURVE",
"337 474 CURVE SMOOTH",
"337 226 LINE SMOOTH",
"337 180 OFFCURVE",
"309 149 OFFCURVE",
"268 149 CURVE SMOOTH"
);
}
);
width = 537;
},
{
layerId = "DCBE1F7B-116A-43E0-B7B4-8657BA77D8B5";
paths = (
{
closed = 1;
nodes = (
"289 -9 OFFCURVE",
"352 56 OFFCURVE",
"352 150 CURVE SMOOTH",
"352 549 LINE SMOOTH",
"352 643 OFFCURVE",
"289 709 OFFCURVE",
"199 709 CURVE SMOOTH",
"110 709 OFFCURVE",
"48 643 OFFCURVE",
"48 549 CURVE SMOOTH",
"48 150 LINE SMOOTH",
"48 56 OFFCURVE",
"110 -9 OFFCURVE",
"199 -9 CURVE SMOOTH"
);
},
{
closed = 1;
nodes = (
"123 12 OFFCURVE",
"70 68 OFFCURVE",
"70 148 CURVE SMOOTH",
"70 551 LINE SMOOTH",
"70 632 OFFCURVE",
"123 688 OFFCURVE",
"199 688 CURVE SMOOTH",
"276 688 OFFCURVE",
"330 632 OFFCURVE",
"330 551 CURVE SMOOTH",
"330 148 LINE SMOOTH",
"330 68 OFFCURVE",
"276 12 OFFCURVE",
"199 12 CURVE SMOOTH"
);
}
);
width = 400;
}
);
leftKerningGroup = C;
rightKerningGroup = O;
unicode = 004F;
},
{
glyphname = P;
lastChange = "2017-02-16 04:19:28 +0000";
layers = (
{
layerId = "262880E7-CFE1-4BDA-902E-E24798F3240A";
paths = (
{
closed = 1;
nodes = (
"102 0 LINE",
"102 681 LINE",
"286 681 LINE SMOOTH",
"376 681 OFFCURVE",
"437 617 OFFCURVE",
"437 520 CURVE SMOOTH",
"437 425 OFFCURVE",
"376 361 OFFCURVE",
"286 361 CURVE SMOOTH",
"97 361 LINE",
"97 340 LINE",
"284 340 LINE SMOOTH",
"389 340 OFFCURVE",
"459 411 OFFCURVE",
"459 520 CURVE SMOOTH",
"459 629 OFFCURVE",
"389 702 OFFCURVE",
"284 702 CURVE SMOOTH",
"80 702 LINE",
"80 0 LINE"
);
}
);
width = 509;
},
{
layerId = "4E2227F3-52E4-4048-A8EE-327B486EF0A4";
paths = (
{
closed = 1;
nodes = (
"204 0 LINE",
"204 539 LINE",
"223 539 LINE SMOOTH",
"252 539 OFFCURVE",
"273 517 OFFCURVE",
"273 471 CURVE SMOOTH",
"273 426 OFFCURVE",
"252 405 OFFCURVE",
"223 405 CURVE SMOOTH",
"188 405 LINE",
"188 260 LINE",
"266 260 LINE SMOOTH",
"382 260 OFFCURVE",
"461 345 OFFCURVE",
"461 475 CURVE SMOOTH",
"461 608 OFFCURVE",
"378 700 OFFCURVE",
"256 700 CURVE SMOOTH",
"16 700 LINE",
"16 0 LINE"
);
}
);
width = 471;
},
{
layerId = "FFFA8D72-12AC-4CE0-B2CA-57A29829F4DA";
paths = (
{
closed = 1;
nodes = (
"204 0 LINE",
"204 539 LINE",
"263 539 LINE SMOOTH",
"311 539 OFFCURVE",
"345 517 OFFCURVE",
"345 471 CURVE SMOOTH",
"345 426 OFFCURVE",
"311 405 OFFCURVE",
"263 405 CURVE SMOOTH",
"187 405 LINE",
"187 255 LINE",
"304 255 LINE SMOOTH",
"440 255 OFFCURVE",
"532 345 OFFCURVE",
"532 475 CURVE SMOOTH",
"532 608 OFFCURVE",
"436 700 OFFCURVE",
"294 700 CURVE SMOOTH",
"16 700 LINE",
"16 0 LINE"
);
}
);
width = 542;
},
{
layerId = "DCBE1F7B-116A-43E0-B7B4-8657BA77D8B5";
paths = (
{
closed = 1;
nodes = (
"86 0 LINE",
"86 681 LINE",
"212 681 LINE SMOOTH",
"286 681 OFFCURVE",
"335 617 OFFCURVE",
"335 520 CURVE SMOOTH",
"335 425 OFFCURVE",
"286 361 OFFCURVE",
"212 361 CURVE SMOOTH",
"82 361 LINE",
"82 340 LINE",
"212 340 LINE SMOOTH",
"299 340 OFFCURVE",
"357 412 OFFCURVE",
"357 520 CURVE SMOOTH",
"357 629 OFFCURVE",
"299 702 OFFCURVE",
"212 702 CURVE SMOOTH",
"64 702 LINE",
"64 0 LINE"
);
}
);
width = 397;
}
);
leftKerningGroup = H;
unicode = 0050;
},
{
glyphname = Q;
lastChange = "2017-02-16 04:20:13 +0000";
layers = (
{
layerId = "262880E7-CFE1-4BDA-902E-E24798F3240A";
paths = (
{
closed = 1;
nodes = (
"259 -127 LINE",
"259 0 LINE",
"237 0 LINE",
"237 -127 LINE"
);
},
{
closed = 1;
nodes = (
"148 12 OFFCURVE",
"82 79 OFFCURVE",
"82 179 CURVE SMOOTH",
"82 521 LINE SMOOTH",
"82 621 OFFCURVE",
"148 688 OFFCURVE",
"248 688 CURVE SMOOTH",
"348 688 OFFCURVE",
"415 621 OFFCURVE",
"415 521 CURVE SMOOTH",
"415 179 LINE SMOOTH",
"415 79 OFFCURVE",
"348 12 OFFCURVE",
"248 12 CURVE SMOOTH"
);
},
{
closed = 1;
nodes = (
"361 -9 OFFCURVE",
"437 67 OFFCURVE",
"437 181 CURVE SMOOTH",
"437 519 LINE SMOOTH",
"437 633 OFFCURVE",
"361 709 OFFCURVE",
"248 709 CURVE SMOOTH",
"135 709 OFFCURVE",
"60 633 OFFCURVE",
"60 519 CURVE SMOOTH",
"60 181 LINE SMOOTH",
"60 67 OFFCURVE",
"135 -9 OFFCURVE",
"248 -9 CURVE SMOOTH"
);
}
);
width = 514;
},
{
layerId = "4E2227F3-52E4-4048-A8EE-327B486EF0A4";
paths = (
{
closed = 1;
nodes = (
"322 -87 LINE",
"322 113 LINE",
"134 113 LINE",
"134 -87 LINE"
);
},
{
closed = 1;
nodes = (
"211 153 OFFCURVE",
"200 170 OFFCURVE",
"200 195 CURVE SMOOTH",
"200 505 LINE SMOOTH",
"200 530 OFFCURVE",
"211 547 OFFCURVE",
"228 547 CURVE SMOOTH",
"246 547 OFFCURVE",
"257 530 OFFCURVE",
"257 505 CURVE SMOOTH",
"257 195 LINE SMOOTH",
"257 170 OFFCURVE",
"246 153 OFFCURVE",
"228 153 CURVE SMOOTH"
);
},
{
closed = 1;
nodes = (
"359 -8 OFFCURVE",
"445 81 OFFCURVE",
"445 215 CURVE SMOOTH",
"445 485 LINE SMOOTH",
"445 619 OFFCURVE",
"359 708 OFFCURVE",
"228 708 CURVE SMOOTH",
"98 708 OFFCURVE",
"12 619 OFFCURVE",
"12 485 CURVE SMOOTH",
"12 215 LINE SMOOTH",
"12 81 OFFCURVE",
"98 -8 OFFCURVE",
"228 -8 CURVE SMOOTH"
);
}
);
width = 462;
},
{
layerId = "FFFA8D72-12AC-4CE0-B2CA-57A29829F4DA";
paths = (
{
closed = 1;
nodes = (
"359 -87 LINE",
"359 113 LINE",
"171 113 LINE",
"171 -87 LINE"
);
},
{
closed = 1;
nodes = (
"226 153 OFFCURVE",
"200 184 OFFCURVE",
"200 230 CURVE SMOOTH",
"200 470 LINE SMOOTH",
"200 516 OFFCURVE",
"226 547 OFFCURVE",
"264 547 CURVE SMOOTH",
"303 547 OFFCURVE",
"329 516 OFFCURVE",
"329 470 CURVE SMOOTH",
"329 230 LINE SMOOTH",
"329 184 OFFCURVE",
"303 153 OFFCURVE",
"264 153 CURVE SMOOTH"
);
},
{
closed = 1;
nodes = (
"415 -8 OFFCURVE",
"517 85 OFFCURVE",
"517 225 CURVE SMOOTH",
"517 460 LINE SMOOTH",
"517 612 OFFCURVE",
"415 708 OFFCURVE",
"264 708 CURVE SMOOTH",
"113 708 OFFCURVE",
"12 612 OFFCURVE",
"12 460 CURVE SMOOTH",
"12 225 LINE SMOOTH",
"12 85 OFFCURVE",
"113 -8 OFFCURVE",
"264 -8 CURVE SMOOTH"
);
}
);
width = 537;
},
{
layerId = "DCBE1F7B-116A-43E0-B7B4-8657BA77D8B5";
paths = (
{
closed = 1;
nodes = (
"205 -127 LINE",
"205 0 LINE",
"182 0 LINE",
"182 -127 LINE"
);
},
{
closed = 1;
nodes = (
"121 12 OFFCURVE",
"70 68 OFFCURVE",
"70 149 CURVE SMOOTH",
"70 551 LINE SMOOTH",
"70 632 OFFCURVE",
"121 688 OFFCURVE",
"194 688 CURVE SMOOTH",
"267 688 OFFCURVE",
"317 632 OFFCURVE",
"317 551 CURVE SMOOTH",
"317 149 LINE SMOOTH",
"317 68 OFFCURVE",
"267 12 OFFCURVE",
"194 12 CURVE SMOOTH"
);
},
{
closed = 1;
nodes = (
"280 -9 OFFCURVE",
"339 57 OFFCURVE",
"339 151 CURVE SMOOTH",
"339 549 LINE SMOOTH",
"339 643 OFFCURVE",
"280 709 OFFCURVE",
"194 709 CURVE SMOOTH",
"108 709 OFFCURVE",
"48 643 OFFCURVE",
"48 549 CURVE SMOOTH",
"48 151 LINE SMOOTH",
"48 57 OFFCURVE",
"108 -9 OFFCURVE",
"194 -9 CURVE SMOOTH"
);
}
);
width = 400;
}
);
leftKerningGroup = C;
unicode = 0051;
},
{
glyphname = R;
lastChange = "2017-02-16 04:19:28 +0000";
layers = (
{
layerId = "262880E7-CFE1-4BDA-902E-E24798F3240A";
paths = (
{
closed = 1;
nodes = (
"102 0 LINE",
"102 681 LINE",
"286 681 LINE SMOOTH",
"376 681 OFFCURVE",
"437 617 OFFCURVE",
"437 522 CURVE SMOOTH",
"437 429 OFFCURVE",
"376 365 OFFCURVE",
"286 365 CURVE SMOOTH",
"97 365 LINE",
"97 344 LINE",
"284 344 LINE SMOOTH",
"389 344 OFFCURVE",
"459 415 OFFCURVE",
"459 522 CURVE SMOOTH",
"459 629 OFFCURVE",
"389 702 OFFCURVE",
"284 702 CURVE SMOOTH",
"80 702 LINE",
"80 0 LINE"
);
},
{
closed = 1;
nodes = (
"472 0 LINE",
"333 353 LINE",
"315 345 LINE",
"450 0 LINE"
);
}
);
width = 532;
},
{
layerId = "4E2227F3-52E4-4048-A8EE-327B486EF0A4";
paths = (
{
closed = 1;
nodes = (
"204 0 LINE",
"204 539 LINE",
"223 539 LINE SMOOTH",
"252 539 OFFCURVE",
"273 518 OFFCURVE",
"273 475 CURVE SMOOTH",
"273 434 OFFCURVE",
"252 412 OFFCURVE",
"223 412 CURVE SMOOTH",
"188 412 LINE",
"188 269 LINE",
"266 269 LINE SMOOTH",
"382 269 OFFCURVE",
"461 352 OFFCURVE",
"461 477 CURVE SMOOTH",
"461 608 OFFCURVE",
"378 700 OFFCURVE",
"256 700 CURVE SMOOTH",
"16 700 LINE",
"16 0 LINE"
);
},
{
closed = 1;
nodes = (
"470 0 LINE",
"371 349 LINE",
"192 349 LINE",
"276 0 LINE"
);
}
);
width = 482;
},
{
layerId = "FFFA8D72-12AC-4CE0-B2CA-57A29829F4DA";
paths = (
{
closed = 1;
nodes = (
"204 0 LINE",
"204 539 LINE",
"273 539 LINE SMOOTH",
"316 539 OFFCURVE",
"345 513 OFFCURVE",
"345 475 CURVE SMOOTH",
"345 437 OFFCURVE",
"316 412 OFFCURVE",
"273 412 CURVE SMOOTH",
"187 412 LINE",
"187 269 LINE",
"304 269 LINE SMOOTH",
"441 269 OFFCURVE",
"532 352 OFFCURVE",
"532 477 CURVE SMOOTH",
"532 611 OFFCURVE",
"441 700 OFFCURVE",
"304 700 CURVE SMOOTH",
"16 700 LINE",
"16 0 LINE"
);
},
{
closed = 1;
nodes = (
"544 0 LINE",
"417 349 LINE",
"239 349 LINE",
"351 0 LINE"
);
}
);
width = 556;
},
{
layerId = "DCBE1F7B-116A-43E0-B7B4-8657BA77D8B5";
paths = (
{
closed = 1;
nodes = (
"86 0 LINE",
"86 681 LINE",
"212 681 LINE SMOOTH",
"286 681 OFFCURVE",
"335 617 OFFCURVE",
"335 522 CURVE SMOOTH",
"335 428 OFFCURVE",
"286 365 OFFCURVE",
"212 365 CURVE SMOOTH",
"82 365 LINE",
"82 344 LINE",
"212 344 LINE SMOOTH",
"299 344 OFFCURVE",
"357 415 OFFCURVE",
"357 522 CURVE SMOOTH",
"357 630 OFFCURVE",
"299 702 OFFCURVE",
"212 702 CURVE SMOOTH",
"64 702 LINE",
"64 0 LINE"
);
},
{
closed = 1;
nodes = (
"362 0 LINE",
"248 353 LINE",
"229 345 LINE",
"340 0 LINE"
);
}
);
width = 410;
}
);
rightKerningGroup = R;
unicode = 0052;
},
{
color = 3;
glyphname = S;
lastChange = "2017-02-16 04:19:28 +0000";
layers = (
{
layerId = "262880E7-CFE1-4BDA-902E-E24798F3240A";
paths = (
{
closed = 1;
nodes = (
"368 -9 OFFCURVE",
"448 60 OFFCURVE",
"448 163 CURVE SMOOTH",
"448 273 OFFCURVE",
"349 312 OFFCURVE",
"255 364 CURVE SMOOTH",
"164 414 OFFCURVE",
"72 443 OFFCURVE",
"72 536 CURVE SMOOTH",
"72 627 OFFCURVE",
"141 688 OFFCURVE",
"245 688 CURVE SMOOTH",
"349 688 OFFCURVE",
"419 626 OFFCURVE",
"419 534 CURVE SMOOTH",
"419 500 LINE",
"441 500 LINE",
"441 535 LINE SMOOTH",
"441 639 OFFCURVE",
"363 709 OFFCURVE",
"245 709 CURVE SMOOTH",
"128 709 OFFCURVE",
"50 641 OFFCURVE",
"50 538 CURVE SMOOTH",
"50 434 OFFCURVE",
"148 400 OFFCURVE",
"240 348 CURVE SMOOTH",
"330 297 OFFCURVE",
"426 262 OFFCURVE",
"426 163 CURVE SMOOTH",
"426 72 OFFCURVE",
"354 12 OFFCURVE",
"246 12 CURVE SMOOTH",
"141 12 OFFCURVE",
"71 73 OFFCURVE",
"71 165 CURVE SMOOTH",
"71 210 LINE",
"51 210 LINE",
"51 164 LINE SMOOTH",
"51 60 OFFCURVE",
"129 -9 OFFCURVE",
"248 -9 CURVE SMOOTH"
);
}
);
width = 498;
},
{
layerId = "4E2227F3-52E4-4048-A8EE-327B486EF0A4";
paths = (
{
closed = 1;
nodes = (
"354 -8 OFFCURVE",
"441 70 OFFCURVE",
"441 187 CURVE SMOOTH",
"441 287 OFFCURVE",
"380 338 OFFCURVE",
"275 412 CURVE SMOOTH",
"212 457 OFFCURVE",
"195 470 OFFCURVE",
"195 500 CURVE SMOOTH",
"195 524 OFFCURVE",
"206 538 OFFCURVE",
"223 538 CURVE SMOOTH",
"240 538 OFFCURVE",
"252 524 OFFCURVE",
"252 504 CURVE SMOOTH",
"252 472 LINE",
"437 472 LINE",
"437 509 LINE SMOOTH",
"437 628 OFFCURVE",
"352 708 OFFCURVE",
"223 708 CURVE SMOOTH",
"95 708 OFFCURVE",
"10 628 OFFCURVE",
"10 510 CURVE SMOOTH",
"10 387 OFFCURVE",
"101 322 OFFCURVE",
"173 272 CURVE SMOOTH",
"243 224 OFFCURVE",
"256 215 OFFCURVE",
"256 194 CURVE SMOOTH",
"256 175 OFFCURVE",
"244 162 OFFCURVE",
"228 162 CURVE SMOOTH",
"212 162 OFFCURVE",
"200 176 OFFCURVE",
"200 198 CURVE SMOOTH",
"200 229 LINE",
"14 229 LINE",
"14 180 LINE SMOOTH",
"14 70 OFFCURVE",
"98 -8 OFFCURVE",
"227 -8 CURVE SMOOTH"
);
}
);
width = 451;
},
{
layerId = "FFFA8D72-12AC-4CE0-B2CA-57A29829F4DA";
paths = (
{
closed = 1;
nodes = (
"400 -8 OFFCURVE",
"498 70 OFFCURVE",
"498 194 CURVE SMOOTH",
"498 293 OFFCURVE",
"440 342 OFFCURVE",
"332 398 CURVE SMOOTH",
"246 442 OFFCURVE",
"195 451 OFFCURVE",
"195 496 CURVE SMOOTH",
"195 523 OFFCURVE",
"214 538 OFFCURVE",
"246 538 CURVE SMOOTH",
"284 538 OFFCURVE",
"309 518 OFFCURVE",
"309 488 CURVE SMOOTH",
"309 462 LINE",
"494 462 LINE",
"494 509 LINE SMOOTH",
"494 628 OFFCURVE",
"397 708 OFFCURVE",
"251 708 CURVE SMOOTH",
"107 708 OFFCURVE",
"10 624 OFFCURVE",
"10 497 CURVE SMOOTH",
"10 390 OFFCURVE",
"76 345 OFFCURVE",
"173 292 CURVE SMOOTH",
"281 233 OFFCURVE",
"313 230 OFFCURVE",
"313 197 CURVE SMOOTH",
"313 175 OFFCURVE",
"291 162 OFFCURVE",
"257 162 CURVE SMOOTH",
"223 162 OFFCURVE",
"200 185 OFFCURVE",
"200 214 CURVE SMOOTH",
"200 244 LINE",
"11 244 LINE",
"14 180 LINE SMOOTH",
"19 67 OFFCURVE",
"109 -8 OFFCURVE",
"255 -8 CURVE SMOOTH"
);
}
);
width = 508;
},
{
layerId = "DCBE1F7B-116A-43E0-B7B4-8657BA77D8B5";
paths = (
{
closed = 1;
nodes = (
"285 -9 OFFCURVE",
"347 60 OFFCURVE",
"347 163 CURVE SMOOTH",
"347 273 OFFCURVE",
"273 312 OFFCURVE",
"199 364 CURVE SMOOTH",
"130 413 OFFCURVE",
"62 443 OFFCURVE",
"62 536 CURVE SMOOTH",
"62 627 OFFCURVE",
"113 688 OFFCURVE",
"190 688 CURVE SMOOTH",
"267 688 OFFCURVE",
"319 626 OFFCURVE",
"319 534 CURVE SMOOTH",
"319 500 LINE",
"341 500 LINE",
"341 535 LINE SMOOTH",
"341 639 OFFCURVE",
"281 709 OFFCURVE",
"190 709 CURVE SMOOTH",
"100 709 OFFCURVE",
"40 641 OFFCURVE",
"40 538 CURVE SMOOTH",
"40 434 OFFCURVE",
"113 400 OFFCURVE",
"184 348 CURVE SMOOTH",
"254 297 OFFCURVE",
"325 262 OFFCURVE",
"325 163 CURVE SMOOTH",
"325 72 OFFCURVE",
"271 12 OFFCURVE",
"191 12 CURVE SMOOTH",
"113 12 OFFCURVE",
"61 73 OFFCURVE",
"61 165 CURVE SMOOTH",
"61 210 LINE",
"40 210 LINE",
"40 164 LINE SMOOTH",
"40 60 OFFCURVE",
"101 -9 OFFCURVE",
"192 -9 CURVE SMOOTH"
);
}
);
width = 387;
},
{
associatedMasterId = "4E2227F3-52E4-4048-A8EE-327B486EF0A4";
layerId = "03078EBB-6EAB-41F0-AE5D-9F8E402CC504";
name = "{100,5}";
paths = (
{
closed = 1;
nodes = (
"380 -9 OFFCURVE",
"468 68 OFFCURVE",
"468 179 CURVE SMOOTH",
"468 245 OFFCURVE",
"437 306 OFFCURVE",
"288 385 CURVE SMOOTH",
"196 434 OFFCURVE",
"126 455 OFFCURVE",
"126 527 CURVE SMOOTH",
"126 586 OFFCURVE",
"173 618 OFFCURVE",
"240 618 CURVE SMOOTH",
"317 618 OFFCURVE",
"365 576 OFFCURVE",
"365 513 CURVE SMOOTH",
"365 487 LINE",
"463 487 LINE",
"463 519 LINE SMOOTH",
"463 633 OFFCURVE",
"378 709 OFFCURVE",
"243 709 CURVE SMOOTH",
"129 709 OFFCURVE",
"28 655 OFFCURVE",
"28 522 CURVE SMOOTH",
"28 425 OFFCURVE",
"81 383 OFFCURVE",
"206 314 CURVE SMOOTH",
"305 259 OFFCURVE",
"370 234 OFFCURVE",
"370 170 CURVE SMOOTH",
"370 115 OFFCURVE",
"321 82 OFFCURVE",
"253 82 CURVE SMOOTH",
"176 82 OFFCURVE",
"128 124 OFFCURVE",
"128 188 CURVE SMOOTH",
"128 219 LINE",
"31 219 LINE",
"31 171 LINE SMOOTH",
"31 63 OFFCURVE",
"117 -9 OFFCURVE",
"247 -9 CURVE SMOOTH"
);
}
);
width = 497;
visible = 1;
}
);
leftKerningGroup = S;
rightKerningGroup = S;
unicode = 0053;
},
{
glyphname = T;
lastChange = "2017-02-16 04:19:28 +0000";
layers = (
{
layerId = "262880E7-CFE1-4BDA-902E-E24798F3240A";
paths = (
{
closed = 1;
nodes = (
"247 0 LINE",
"247 689 LINE",
"225 689 LINE",
"225 0 LINE"
);
},
{
closed = 1;
nodes = (
"442 679 LINE",
"442 700 LINE",
"40 700 LINE",
"40 679 LINE"
);
}
);
width = 462;
},
{
layerId = "4E2227F3-52E4-4048-A8EE-327B486EF0A4";
paths = (
{
closed = 1;
nodes = (
"332 0 LINE",
"332 689 LINE",
"144 689 LINE",
"144 0 LINE"
);
},
{
closed = 1;
nodes = (
"471 530 LINE",
"471 700 LINE",
"8 700 LINE",
"8 530 LINE"
);
}
);
width = 475;
},
{
layerId = "FFFA8D72-12AC-4CE0-B2CA-57A29829F4DA";
paths = (
{
closed = 1;
nodes = (
"369 0 LINE",
"369 689 LINE",
"181 689 LINE",
"181 0 LINE"
);
},
{
closed = 1;
nodes = (
"547 530 LINE",
"547 700 LINE",
"8 700 LINE",
"8 530 LINE"
);
}
);
width = 551;
},
{
layerId = "DCBE1F7B-116A-43E0-B7B4-8657BA77D8B5";
paths = (
{
closed = 1;
nodes = (
"194 0 LINE",
"194 689 LINE",
"172 689 LINE",
"172 0 LINE"
);
},
{
closed = 1;
nodes = (
"343 679 LINE",
"343 700 LINE",
"32 700 LINE",
"32 679 LINE"
);
}
);
width = 359;
}
);
leftKerningGroup = T;
rightKerningGroup = T;
unicode = 0054;
},
{
glyphname = U;
lastChange = "2017-02-16 04:19:28 +0000";
layers = (
{
layerId = "262880E7-CFE1-4BDA-902E-E24798F3240A";
paths = (
{
closed = 1;
nodes = (
"387 -9 OFFCURVE",
"467 69 OFFCURVE",
"467 185 CURVE SMOOTH",
"467 700 LINE",
"445 700 LINE",
"445 181 LINE SMOOTH",
"445 80 OFFCURVE",
"374 12 OFFCURVE",
"268 12 CURVE SMOOTH",
"162 12 OFFCURVE",
"92 80 OFFCURVE",
"92 181 CURVE SMOOTH",
"92 700 LINE",
"70 700 LINE",
"70 185 LINE SMOOTH",
"70 69 OFFCURVE",
"149 -9 OFFCURVE",
"268 -9 CURVE SMOOTH"
);
}
);
width = 537;
},
{
layerId = "4E2227F3-52E4-4048-A8EE-327B486EF0A4";
paths = (
{
closed = 1;
nodes = (
"361 -8 OFFCURVE",
"447 78 OFFCURVE",
"447 208 CURVE SMOOTH",
"447 700 LINE",
"259 700 LINE",
"259 190 LINE SMOOTH",
"259 168 OFFCURVE",
"248 153 OFFCURVE",
"231 153 CURVE SMOOTH",
"213 153 OFFCURVE",
"202 168 OFFCURVE",
"202 190 CURVE SMOOTH",
"202 700 LINE",
"14 700 LINE",
"14 208 LINE SMOOTH",
"14 78 OFFCURVE",
"100 -8 OFFCURVE",
"231 -8 CURVE SMOOTH"
);
}
);
width = 461;
},
{
layerId = "FFFA8D72-12AC-4CE0-B2CA-57A29829F4DA";
paths = (
{
closed = 1;
nodes = (
"420 -8 OFFCURVE",
"522 81 OFFCURVE",
"522 223 CURVE SMOOTH",
"522 700 LINE",
"334 700 LINE",
"334 223 LINE SMOOTH",
"334 183 OFFCURVE",
"308 153 OFFCURVE",
"268 153 CURVE SMOOTH",
"228 153 OFFCURVE",
"201 183 OFFCURVE",
"201 223 CURVE SMOOTH",
"201 700 LINE",
"13 700 LINE",
"13 223 LINE SMOOTH",
"13 81 OFFCURVE",
"115 -8 OFFCURVE",
"268 -8 CURVE SMOOTH"
);
}
);
width = 535;
},
{
layerId = "DCBE1F7B-116A-43E0-B7B4-8657BA77D8B5";
paths = (
{
closed = 1;
nodes = (
"300 -9 OFFCURVE",
"362 65 OFFCURVE",
"362 175 CURVE SMOOTH",
"362 700 LINE",
"340 700 LINE",
"340 171 LINE SMOOTH",
"340 76 OFFCURVE",
"287 12 OFFCURVE",
"208 12 CURVE SMOOTH",
"130 12 OFFCURVE",
"78 76 OFFCURVE",
"78 171 CURVE SMOOTH",
"78 700 LINE",
"56 700 LINE",
"56 175 LINE SMOOTH",
"56 65 OFFCURVE",
"117 -9 OFFCURVE",
"208 -9 CURVE SMOOTH"
);
}
);
width = 418;
}
);
rightKerningGroup = U;
unicode = 0055;
},
{
glyphname = V;
lastChange = "2017-02-16 04:19:28 +0000";
layers = (
{
layerId = "262880E7-CFE1-4BDA-902E-E24798F3240A";
paths = (
{
closed = 1;
nodes = (
"261 0 LINE",
"471 700 LINE",
"449 700 LINE",
"250 42 LINE",
"52 700 LINE",
"30 700 LINE",
"239 0 LINE"
);
}
);
width = 501;
},
{
layerId = "4E2227F3-52E4-4048-A8EE-327B486EF0A4";
paths = (
{
closed = 1;
nodes = (
"355 0 LINE",
"503 700 LINE",
"305 700 LINE",
"259 305 LINE",
"209 700 LINE",
"6 700 LINE",
"152 0 LINE"
);
}
);
width = 509;
},
{
layerId = "FFFA8D72-12AC-4CE0-B2CA-57A29829F4DA";
paths = (
{
closed = 1;
nodes = (
"397 0 LINE",
"587 700 LINE",
"389 700 LINE",
"301 296 LINE",
"208 700 LINE",
"6 700 LINE",
"194 0 LINE"
);
}
);
width = 593;
},
{
layerId = "DCBE1F7B-116A-43E0-B7B4-8657BA77D8B5";
paths = (
{
closed = 1;
nodes = (
"205 0 LINE",
"364 700 LINE",
"342 700 LINE",
"194 42 LINE",
"47 700 LINE",
"24 700 LINE",
"183 0 LINE"
);
}
);
width = 388;
}
);
leftKerningGroup = V;
rightKerningGroup = V;
unicode = 0056;
},
{
glyphname = W;
lastChange = "2017-02-16 04:19:28 +0000";
layers = (
{
layerId = "262880E7-CFE1-4BDA-902E-E24798F3240A";
paths = (
{
closed = 1;
nodes = (
"211 0 LINE",
"365 656 LINE",
"519 0 LINE",
"541 0 LINE",
"702 700 LINE",
"680 700 LINE",
"531 40 LINE",
"375 700 LINE",
"353 700 LINE",
"201 40 LINE",
"52 700 LINE",
"30 700 LINE",
"189 0 LINE"
);
}
);
width = 732;
},
{
layerId = "4E2227F3-52E4-4048-A8EE-327B486EF0A4";
paths = (
{
closed = 1;
nodes = (
"313 0 LINE",
"352 362 LINE",
"400 0 LINE",
"564 0 LINE",
"698 700 LINE",
"504 700 LINE",
"483 352 LINE",
"432 700 LINE",
"266 700 LINE",
"231 352 LINE",
"204 700 LINE",
"6 700 LINE",
"148 0 LINE"
);
}
);
width = 704;
},
{
layerId = "FFFA8D72-12AC-4CE0-B2CA-57A29829F4DA";
paths = (
{
closed = 1;
nodes = (
"334 0 LINE",
"394 372 LINE",
"459 0 LINE",
"649 0 LINE",
"779 700 LINE",
"591 700 LINE",
"546 348 LINE",
"493 700 LINE",
"302 700 LINE",
"253 348 LINE",
"204 700 LINE",
"6 700 LINE",
"156 0 LINE"
);
}
);
width = 785;
},
{
layerId = "DCBE1F7B-116A-43E0-B7B4-8657BA77D8B5";
paths = (
{
closed = 1;
nodes = (
"169 0 LINE",
"283 656 LINE",
"393 0 LINE",
"416 0 LINE",
"542 700 LINE",
"518 700 LINE",
"406 40 LINE",
"294 700 LINE",
"271 700 LINE",
"159 40 LINE",
"47 700 LINE",
"24 700 LINE",
"147 0 LINE"
);
}
);
width = 566;
}
);
leftKerningGroup = V;
rightKerningGroup = V;
unicode = 0057;
},
{
glyphname = X;
lastChange = "2017-02-16 04:19:28 +0000";
layers = (
{
layerId = "262880E7-CFE1-4BDA-902E-E24798F3240A";
paths = (
{
closed = 1;
nodes = (
"55 0 LINE",
"238 330 LINE",
"420 0 LINE",
"445 0 LINE",
"248 349 LINE",
"445 700 LINE",
"420 700 LINE",
"238 369 LINE",
"55 700 LINE",
"30 700 LINE",
"227 350 LINE",
"30 0 LINE"
);
}
);
width = 475;
},
{
layerId = "4E2227F3-52E4-4048-A8EE-327B486EF0A4";
paths = (
{
closed = 1;
nodes = (
"197 0 LINE",
"246 162 LINE",
"295 0 LINE",
"485 0 LINE",
"345 350 LINE",
"485 700 LINE",
"294 700 LINE",
"246 537 LINE",
"198 700 LINE",
"6 700 LINE",
"146 350 LINE",
"6 0 LINE"
);
}
);
width = 491;
},
{
layerId = "FFFA8D72-12AC-4CE0-B2CA-57A29829F4DA";
paths = (
{
closed = 1;
nodes = (
"197 0 LINE",
"285 196 LINE",
"373 0 LINE",
"563 0 LINE",
"384 350 LINE",
"563 700 LINE",
"372 700 LINE",
"285 503 LINE",
"198 700 LINE",
"6 700 LINE",
"186 350 LINE",
"6 0 LINE"
);
}
);
width = 569;
},
{
layerId = "DCBE1F7B-116A-43E0-B7B4-8657BA77D8B5";
paths = (
{
closed = 1;
nodes = (
"49 0 LINE",
"185 330 LINE",
"320 0 LINE",
"345 0 LINE",
"195 349 LINE",
"345 700 LINE",
"320 700 LINE",
"185 369 LINE",
"49 700 LINE",
"24 700 LINE",
"173 350 LINE",
"24 0 LINE"
);
}
);
width = 369;
}
);
rightKerningGroup = X;
unicode = 0058;
},
{
glyphname = Y;
lastChange = "2017-02-16 04:19:28 +0000";
layers = (
{
layerId = "262880E7-CFE1-4BDA-902E-E24798F3240A";
paths = (
{
closed = 1;
nodes = (
"245 0 LINE",
"245 339 LINE",
"438 700 LINE",
"416 700 LINE",
"234 358 LINE",
"52 700 LINE",
"30 700 LINE",
"223 339 LINE",
"223 0 LINE"
);
}
);
width = 468;
},
{
layerId = "4E2227F3-52E4-4048-A8EE-327B486EF0A4";
paths = (
{
closed = 1;
nodes = (
"341 2 LINE",
"341 251 LINE",
"490 700 LINE",
"292 700 LINE",
"248 471 LINE",
"204 700 LINE",
"6 700 LINE",
"153 251 LINE",
"153 2 LINE"
);
}
);
width = 496;
},
{
layerId = "FFFA8D72-12AC-4CE0-B2CA-57A29829F4DA";
paths = (
{
closed = 1;
nodes = (
"379 2 LINE",
"379 251 LINE",
"567 700 LINE",
"369 700 LINE",
"286 461 LINE",
"203 700 LINE",
"6 700 LINE",
"192 251 LINE",
"192 2 LINE"
);
}
);
width = 573;
},
{
layerId = "DCBE1F7B-116A-43E0-B7B4-8657BA77D8B5";
paths = (
{
closed = 1;
nodes = (
"193 0 LINE",
"193 339 LINE",
"339 700 LINE",
"316 700 LINE",
"182 358 LINE",
"47 700 LINE",
"24 700 LINE",
"171 339 LINE",
"171 0 LINE"
);
}
);
width = 363;
}
);
leftKerningGroup = Y;
unicode = 0059;
},
{
glyphname = Z;
lastChange = "2017-02-16 04:19:28 +0000";
layers = (
{
layerId = "262880E7-CFE1-4BDA-902E-E24798F3240A";
paths = (
{
closed = 1;
nodes = (
"409 0 LINE",
"409 21 LINE",
"55 21 LINE",
"409 679 LINE",
"409 700 LINE",
"30 700 LINE",
"30 679 LINE",
"385 679 LINE",
"30 21 LINE",
"30 0 LINE"
);
}
);
width = 449;
},
{
layerId = "4E2227F3-52E4-4048-A8EE-327B486EF0A4";
paths = (
{
closed = 1;
nodes = (
"404 0 LINE",
"404 170 LINE",
"202 170 LINE",
"404 530 LINE",
"404 700 LINE",
"6 700 LINE",
"6 530 LINE",
"206 530 LINE",
"6 170 LINE",
"6 0 LINE"
);
}
);
width = 412;
},
{
layerId = "FFFA8D72-12AC-4CE0-B2CA-57A29829F4DA";
paths = (
{
closed = 1;
nodes = (
"477 0 LINE",
"477 170 LINE",
"202 170 LINE",
"477 530 LINE",
"477 700 LINE",
"6 700 LINE",
"6 530 LINE",
"279 530 LINE",
"6 170 LINE",
"6 0 LINE"
);
}
);
width = 485;
},
{
layerId = "DCBE1F7B-116A-43E0-B7B4-8657BA77D8B5";
paths = (
{
closed = 1;
nodes = (
"316 0 LINE",
"316 21 LINE",
"49 21 LINE",
"316 679 LINE",
"316 700 LINE",
"24 700 LINE",
"24 679 LINE",
"292 679 LINE",
"24 21 LINE",
"24 0 LINE"
);
}
);
width = 348;
}
);
leftKerningGroup = Z;
rightKerningGroup = Z;
unicode = 005A;
},
{
glyphname = a;
lastChange = "2017-02-16 04:20:13 +0000";
layers = (
{
layerId = "262880E7-CFE1-4BDA-902E-E24798F3240A";
paths = (
{
closed = 1;
nodes = (
"396 0 LINE",
"396 342 LINE SMOOTH",
"396 447 OFFCURVE",
"341 508 OFFCURVE",
"237 508 CURVE SMOOTH",
"136 508 OFFCURVE",
"70 450 OFFCURVE",
"70 372 CURVE SMOOTH",
"70 371 LINE",
"92 371 LINE",
"92 375 LINE SMOOTH",
"92 438 OFFCURVE",
"150 487 OFFCURVE",
"237 487 CURVE SMOOTH",
"327 487 OFFCURVE",
"374 434 OFFCURVE",
"374 345 CURVE SMOOTH",
"374 0 LINE"
);
},
{
closed = 1;
nodes = (
"300 -8 OFFCURVE",
"391 37 OFFCURVE",
"391 142 CURVE",
"391 277 LINE",
"244 277 LINE",
"110 277 OFFCURVE",
"43 226 OFFCURVE",
"43 125 CURVE SMOOTH",
"43 18 OFFCURVE",
"129 -8 OFFCURVE",
"198 -8 CURVE SMOOTH"
);
},
{
closed = 1;
nodes = (
"127 13 OFFCURVE",
"65 45 OFFCURVE",
"65 126 CURVE SMOOTH",
"65 213 OFFCURVE",
"129 256 OFFCURVE",
"244 256 CURVE",
"374 256 LINE",
"374 142 LINE SMOOTH",
"374 52 OFFCURVE",
"288 13 OFFCURVE",
"200 13 CURVE SMOOTH"
);
}
);
width = 476;
},
{
layerId = "4E2227F3-52E4-4048-A8EE-327B486EF0A4";
paths = (
{
closed = 1;
nodes = (
"447 0 LINE",
"447 360 LINE SMOOTH",
"447 461 OFFCURVE",
"360 528 OFFCURVE",
"230 528 CURVE SMOOTH",
"103 528 OFFCURVE",
"15 450 OFFCURVE",
"15 360 CURVE SMOOTH",
"15 339 LINE",
"204 332 LINE",
"204 337 LINE SMOOTH",
"204 355 OFFCURVE",
"215 367 OFFCURVE",
"230 367 CURVE SMOOTH",
"247 367 OFFCURVE",
"259 355 OFFCURVE",
"259 337 CURVE SMOOTH",
"259 0 LINE"
);
},
{
closed = 1;
nodes = (
"262 -7 OFFCURVE",
"298 59 OFFCURVE",
"298 197 CURVE",
"298 313 LINE",
"219 313 LINE",
"93 313 OFFCURVE",
"10 297 OFFCURVE",
"10 151 CURVE SMOOTH",
"10 7 OFFCURVE",
"88 -9 OFFCURVE",
"157 -8 CURVE SMOOTH"
);
},
{
closed = 1;
nodes = (
"214 125 OFFCURVE",
"202 134 OFFCURVE",
"202 153 CURVE SMOOTH",
"202 170 OFFCURVE",
"214 185 OFFCURVE",
"233 185 CURVE",
"259 185 LINE",
"259 152 LINE SMOOTH",
"259 135 OFFCURVE",
"241 125 OFFCURVE",
"227 125 CURVE SMOOTH"
);
}
);
width = 463;
},
{
associatedMasterId = "4E2227F3-52E4-4048-A8EE-327B486EF0A4";
layerId = "ECDB5D87-04FB-4DD9-B431-22FBE4ECF321";
name = "{100,5}";
paths = (
{
closed = 1;
nodes = (
"442 0 LINE",
"442 350 LINE SMOOTH",
"442 450 OFFCURVE",
"362 517 OFFCURVE",
"241 517 CURVE SMOOTH",
"120 517 OFFCURVE",
"40 453 OFFCURVE",
"40 370 CURVE SMOOTH",
"40 354 LINE",
"139 354 LINE",
"139 359 LINE SMOOTH",
"139 397 OFFCURVE",
"181 431 OFFCURVE",
"243 431 CURVE SMOOTH",
"302 431 OFFCURVE",
"342 393 OFFCURVE",
"342 337 CURVE SMOOTH",
"342 0 LINE"
);
},
{
closed = 1;
nodes = (
"308 -5 OFFCURVE",
"380 44 OFFCURVE",
"380 181 CURVE",
"380 301 LINE",
"239 301 LINE",
"96 301 OFFCURVE",
"23 245 OFFCURVE",
"23 137 CURVE SMOOTH",
"23 38 OFFCURVE",
"84 -11 OFFCURVE",
"203 -8 CURVE SMOOTH"
);
},
{
closed = 1;
nodes = (
"151 81 OFFCURVE",
"123 104 OFFCURVE",
"123 148 CURVE SMOOTH",
"123 194 OFFCURVE",
"162 218 OFFCURVE",
"239 218 CURVE",
"342 218 LINE",
"342 183 LINE SMOOTH",
"342 123 OFFCURVE",
"286 81 OFFCURVE",
"205 81 CURVE SMOOTH"
);
}
);
width = 487;
},
{
layerId = "FFFA8D72-12AC-4CE0-B2CA-57A29829F4DA";
paths = (
{
closed = 1;
nodes = (
"505 0 LINE",
"505 355 LINE SMOOTH",
"505 451 OFFCURVE",
"396 528 OFFCURVE",
"257 528 CURVE SMOOTH",
"117 528 OFFCURVE",
"16 451 OFFCURVE",
"16 355 CURVE SMOOTH",
"16 338 LINE",
"204 331 LINE",
"204 331 LINE SMOOTH",
"204 351 OFFCURVE",
"226 367 OFFCURVE",
"260 367 CURVE SMOOTH",
"294 367 OFFCURVE",
"317 348 OFFCURVE",
"317 320 CURVE SMOOTH",
"317 0 LINE"
);
},
{
closed = 1;
nodes = (
"296 -8 OFFCURVE",
"356 51 OFFCURVE",
"356 182 CURVE",
"356 305 LINE",
"219 305 LINE",
"98 305 OFFCURVE",
"10 263 OFFCURVE",
"10 146 CURVE SMOOTH",
"10 9 OFFCURVE",
"118 -8 OFFCURVE",
"175 -8 CURVE SMOOTH"
);
},
{
closed = 1;
nodes = (
"225 130 OFFCURVE",
"198 140 OFFCURVE",
"198 160 CURVE SMOOTH",
"198 179 OFFCURVE",
"214 196 OFFCURVE",
"262 196 CURVE",
"317 196 LINE",
"317 190 LINE SMOOTH",
"317 158 OFFCURVE",
"296 130 OFFCURVE",
"252 130 CURVE SMOOTH"
);
}
);
width = 521;
},
{
layerId = "DCBE1F7B-116A-43E0-B7B4-8657BA77D8B5";
paths = (
{
closed = 1;
nodes = (
"309 0 LINE",
"309 342 LINE SMOOTH",
"309 447 OFFCURVE",
"266 508 OFFCURVE",
"185 508 CURVE SMOOTH",
"106 508 OFFCURVE",
"54 458 OFFCURVE",
"54 382 CURVE SMOOTH",
"54 381 LINE",
"77 381 LINE",
"77 385 LINE SMOOTH",
"77 446 OFFCURVE",
"120 487 OFFCURVE",
"184 487 CURVE SMOOTH",
"252 487 OFFCURVE",
"286 434 OFFCURVE",
"286 345 CURVE SMOOTH",
"286 0 LINE"
);
},
{
closed = 1;
nodes = (
"232 -8 OFFCURVE",
"301 37 OFFCURVE",
"301 142 CURVE",
"301 290 LINE",
"189 283 LINE SMOOTH",
"100 277 OFFCURVE",
"35 236 OFFCURVE",
"35 126 CURVE SMOOTH",
"35 18 OFFCURVE",
"99 -8 OFFCURVE",
"156 -8 CURVE SMOOTH"
);
},
{
closed = 1;
nodes = (
"102 13 OFFCURVE",
"57 45 OFFCURVE",
"57 127 CURVE SMOOTH",
"57 219 OFFCURVE",
"113 256 OFFCURVE",
"191 262 CURVE SMOOTH",
"286 269 LINE",
"286 142 LINE SMOOTH",
"286 52 OFFCURVE",
"222 13 OFFCURVE",
"159 13 CURVE SMOOTH"
);
}
);
width = 373;
},
{
associatedMasterId = "4E2227F3-52E4-4048-A8EE-327B486EF0A4";
layerId = "FAF4597E-2DB2-4F36-AC5C-F274557DEF62";
name = "{100,3}";
paths = (
{
closed = 1;
nodes = (
"367 0 LINE",
"367 350 LINE SMOOTH",
"367 454 OFFCURVE",
"302 517 OFFCURVE",
"201 517 CURVE SMOOTH",
"97 517 OFFCURVE",
"29 450 OFFCURVE",
"29 366 CURVE SMOOTH",
"29 355 LINE",
"129 352 LINE",
"129 357 LINE SMOOTH",
"129 399 OFFCURVE",
"158 431 OFFCURVE",
"200 431 CURVE SMOOTH",
"243 431 OFFCURVE",
"267 397 OFFCURVE",
"267 341 CURVE SMOOTH",
"267 0 LINE"
);
},
{
closed = 1;
nodes = (
"250 -8 OFFCURVE",
"303 45 OFFCURVE",
"303 178 CURVE",
"303 294 LINE",
"196 294 LINE",
"83 294 OFFCURVE",
"17 237 OFFCURVE",
"17 141 CURVE SMOOTH",
"17 47 OFFCURVE",
"68 -8 OFFCURVE",
"156 -8 CURVE SMOOTH"
);
},
{
closed = 1;
nodes = (
"149 85 OFFCURVE",
"118 102 OFFCURVE",
"118 143 CURVE SMOOTH",
"118 187 OFFCURVE",
"150 213 OFFCURVE",
"204 213 CURVE",
"267 213 LINE",
"267 167 LINE SMOOTH",
"267 111 OFFCURVE",
"225 85 OFFCURVE",
"184 85 CURVE SMOOTH"
);
}
);
width = 400;
}
);
leftKerningGroup = a;
rightKerningGroup = b;
unicode = 0061;
},
{
glyphname = b;
lastChange = "2017-02-16 04:20:13 +0000";
layers = (
{
components = (
{
name = b.bowl;
transform = "{1, 0, 0, 1, 82, 0}";
}
);
layerId = "262880E7-CFE1-4BDA-902E-E24798F3240A";
paths = (
{
closed = 1;
nodes = (
"102 0 LINE",
"102 700 LINE",
"80 700 LINE",
"80 0 LINE"
);
}
);
width = 494;
},
{
components = (
{
name = b.bowl;
transform = "{1, 0, 0, 1, 170, 0}";
}
);
layerId = "4E2227F3-52E4-4048-A8EE-327B486EF0A4";
paths = (
{
closed = 1;
nodes = (
"204 0 LINE",
"204 700 LINE",
"16 700 LINE",
"16 0 LINE"
);
}
);
width = 451;
},
{
components = (
{
name = b.bowl;
transform = "{1, 0, 0, 1, 145, 0}";
}
);
layerId = "FFFA8D72-12AC-4CE0-B2CA-57A29829F4DA";
paths = (
{
closed = 1;
nodes = (
"204 0 LINE",
"204 700 LINE",
"16 700 LINE",
"16 0 LINE"
);
}
);
width = 519;
},
{
components = (
{
name = b.bowl;
transform = "{1, 0, 0, 1, 71, 0}";
}
);
layerId = "DCBE1F7B-116A-43E0-B7B4-8657BA77D8B5";
paths = (
{
closed = 1;
nodes = (
"86 0 LINE",
"86 700 LINE",
"64 700 LINE",
"64 0 LINE"
);
}
);
width = 387;
}
);
leftKerningGroup = b;
rightKerningGroup = n;
unicode = 0062;
},
{
glyphname = c;
lastChange = "2017-02-16 04:19:28 +0000";
layers = (
{
layerId = "262880E7-CFE1-4BDA-902E-E24798F3240A";
paths = (
{
closed = 1;
nodes = (
"333 -8 OFFCURVE",
"401 50 OFFCURVE",
"401 136 CURVE SMOOTH",
"401 137 LINE",
"379 138 LINE",
"379 135 LINE SMOOTH",
"379 62 OFFCURVE",
"320 13 OFFCURVE",
"231 13 CURVE SMOOTH",
"142 13 OFFCURVE",
"82 73 OFFCURVE",
"82 162 CURVE SMOOTH",
"82 338 LINE SMOOTH",
"82 427 OFFCURVE",
"142 487 OFFCURVE",
"231 487 CURVE SMOOTH",
"320 487 OFFCURVE",
"379 438 OFFCURVE",
"379 365 CURVE SMOOTH",
"379 362 LINE",
"401 363 LINE",
"401 364 LINE SMOOTH",
"401 450 OFFCURVE",
"333 508 OFFCURVE",
"231 508 CURVE SMOOTH",
"128 508 OFFCURVE",
"60 440 OFFCURVE",
"60 337 CURVE SMOOTH",
"60 163 LINE SMOOTH",
"60 60 OFFCURVE",
"128 -8 OFFCURVE",
"231 -8 CURVE SMOOTH"
);
}
);
width = 441;
},
{
layerId = "4E2227F3-52E4-4048-A8EE-327B486EF0A4";
paths = (
{
closed = 1;
nodes = (
"361 -7 OFFCURVE",
"437 67 OFFCURVE",
"437 190 CURVE SMOOTH",
"437 207 LINE",
"249 212 LINE",
"249 185 LINE SMOOTH",
"249 164 OFFCURVE",
"241 153 OFFCURVE",
"225 153 CURVE SMOOTH",
"208 153 OFFCURVE",
"200 164 OFFCURVE",
"200 185 CURVE SMOOTH",
"200 336 LINE SMOOTH",
"200 357 OFFCURVE",
"208 368 OFFCURVE",
"225 368 CURVE SMOOTH",
"241 368 OFFCURVE",
"249 357 OFFCURVE",
"249 336 CURVE SMOOTH",
"249 307 LINE",
"437 313 LINE",
"437 330 LINE SMOOTH",
"437 454 OFFCURVE",
"361 528 OFFCURVE",
"225 528 CURVE SMOOTH",
"89 528 OFFCURVE",
"12 454 OFFCURVE",
"12 330 CURVE SMOOTH",
"12 190 LINE SMOOTH",
"12 67 OFFCURVE",
"89 -7 OFFCURVE",
"225 -7 CURVE SMOOTH"
);
}
);
width = 445;
},
{
layerId = "FFFA8D72-12AC-4CE0-B2CA-57A29829F4DA";
paths = (
{
closed = 1;
nodes = (
"403 -7 OFFCURVE",
"501 76 OFFCURVE",
"501 200 CURVE SMOOTH",
"501 200 LINE",
"313 212 LINE",
"313 210 LINE SMOOTH",
"313 176 OFFCURVE",
"291 153 OFFCURVE",
"257 153 CURVE SMOOTH",
"223 153 OFFCURVE",
"200 183 OFFCURVE",
"200 227 CURVE SMOOTH",
"200 294 LINE SMOOTH",
"200 338 OFFCURVE",
"223 368 OFFCURVE",
"257 368 CURVE SMOOTH",
"291 368 OFFCURVE",
"313 344 OFFCURVE",
"313 309 CURVE SMOOTH",
"313 307 LINE",
"501 316 LINE",
"501 330 LINE SMOOTH",
"501 449 OFFCURVE",
"403 528 OFFCURVE",
"257 528 CURVE SMOOTH",
"110 528 OFFCURVE",
"12 430 OFFCURVE",
"12 284 CURVE SMOOTH",
"12 238 LINE SMOOTH",
"12 91 OFFCURVE",
"110 -7 OFFCURVE",
"257 -7 CURVE SMOOTH"
);
}
);
width = 509;
},
{
layerId = "DCBE1F7B-116A-43E0-B7B4-8657BA77D8B5";
paths = (
{
closed = 1;
nodes = (
"259 -8 OFFCURVE",
"312 50 OFFCURVE",
"312 136 CURVE SMOOTH",
"312 137 LINE",
"290 138 LINE",
"290 135 LINE SMOOTH",
"290 62 OFFCURVE",
"246 13 OFFCURVE",
"181 13 CURVE SMOOTH",
"115 13 OFFCURVE",
"70 70 OFFCURVE",
"70 155 CURVE SMOOTH",
"70 345 LINE SMOOTH",
"70 430 OFFCURVE",
"115 487 OFFCURVE",
"181 487 CURVE SMOOTH",
"246 487 OFFCURVE",
"290 438 OFFCURVE",
"290 365 CURVE SMOOTH",
"290 362 LINE",
"312 363 LINE",
"312 364 LINE SMOOTH",
"312 450 OFFCURVE",
"259 508 OFFCURVE",
"181 508 CURVE SMOOTH",
"102 508 OFFCURVE",
"48 442 OFFCURVE",
"48 344 CURVE SMOOTH",
"48 156 LINE SMOOTH",
"48 58 OFFCURVE",
"102 -8 OFFCURVE",
"181 -8 CURVE SMOOTH"
);
}
);
width = 344;
}
);
leftKerningGroup = o;
rightKerningGroup = c;
unicode = 0063;
},
{
color = 1;
glyphname = e;
lastChange = "2017-02-16 04:19:28 +0000";
layers = (
{
layerId = "262880E7-CFE1-4BDA-902E-E24798F3240A";
paths = (
{
closed = 1;
nodes = (
"306 -8 OFFCURVE",
"372 39 OFFCURVE",
"388 109 CURVE",
"367 108 LINE",
"350 51 OFFCURVE",
"292 13 OFFCURVE",
"222 13 CURVE SMOOTH",
"132 13 OFFCURVE",
"72 73 OFFCURVE",
"72 162 CURVE SMOOTH",
"72 338 LINE SMOOTH",
"72 427 OFFCURVE",
"132 487 OFFCURVE",
"221 487 CURVE SMOOTH",
"311 487 OFFCURVE",
"371 427 OFFCURVE",
"371 338 CURVE SMOOTH",
"371 265 LINE",
"62 265 LINE",
"62 244 LINE",
"393 244 LINE",
"393 336 LINE SMOOTH",
"393 439 OFFCURVE",
"324 508 OFFCURVE",
"221 508 CURVE SMOOTH",
"118 508 OFFCURVE",
"50 440 OFFCURVE",
"50 337 CURVE SMOOTH",
"50 163 LINE SMOOTH",
"50 60 OFFCURVE",
"119 -8 OFFCURVE",
"222 -8 CURVE SMOOTH"
);
}
);
width = 443;
},
{
layerId = "FFFA8D72-12AC-4CE0-B2CA-57A29829F4DA";
paths = (
{
closed = 1;
nodes = (
"413 -7 OFFCURVE",
"496 94 OFFCURVE",
"495 175 CURVE",
"309 183 LINE",
"304 164 OFFCURVE",
"286 154 OFFCURVE",
"261 154 CURVE SMOOTH",
"218 154 OFFCURVE",
"198 184 OFFCURVE",
"198 226 CURVE SMOOTH",
"198 294 LINE SMOOTH",
"198 338 OFFCURVE",
"221 367 OFFCURVE",
"255 367 CURVE SMOOTH",
"289 367 OFFCURVE",
"311 338 OFFCURVE",
"311 294 CURVE",
"311 301 LINE",
"126 301 LINE",
"126 217 LINE",
"499 217 LINE",
"499 267 LINE SMOOTH",
"499 424 OFFCURVE",
"404 528 OFFCURVE",
"257 528 CURVE SMOOTH",
"111 528 OFFCURVE",
"10 425 OFFCURVE",
"10 271 CURVE SMOOTH",
"10 249 LINE SMOOTH",
"10 95 OFFCURVE",
"105 -7 OFFCURVE",
"257 -7 CURVE SMOOTH"
);
}
);
width = 509;
},
{
layerId = "4E2227F3-52E4-4048-A8EE-327B486EF0A4";
paths = (
{
closed = 1;
nodes = (
"355 -7 OFFCURVE",
"436 58 OFFCURVE",
"435 177 CURVE",
"247 184 LINE",
"246 160 OFFCURVE",
"236 154 OFFCURVE",
"224 154 CURVE SMOOTH",
"206 154 OFFCURVE",
"198 166 OFFCURVE",
"198 193 CURVE SMOOTH",
"198 332 LINE SMOOTH",
"198 355 OFFCURVE",
"206 367 OFFCURVE",
"223 367 CURVE SMOOTH",
"239 367 OFFCURVE",
"247 355 OFFCURVE",
"247 332 CURVE SMOOTH",
"247 306 LINE",
"126 306 LINE",
"126 215 LINE",
"435 215 LINE",
"435 331 LINE SMOOTH",
"435 457 OFFCURVE",
"359 528 OFFCURVE",
"223 528 CURVE SMOOTH",
"87 528 OFFCURVE",
"10 457 OFFCURVE",
"10 331 CURVE SMOOTH",
"10 189 LINE SMOOTH",
"10 64 OFFCURVE",
"85 -7 OFFCURVE",
"223 -7 CURVE SMOOTH"
);
}
);
width = 445;
},
{
associatedMasterId = "4E2227F3-52E4-4048-A8EE-327B486EF0A4";
layerId = "3D32F457-6CBC-401D-99A3-38ECA0E48DC0";
name = "{100,3}";
paths = (
{
closed = 1;
nodes = (
"310 -8 OFFCURVE",
"379 48 OFFCURVE",
"386 141 CURVE",
"287 143 LINE",
"279 102 OFFCURVE",
"248 79 OFFCURVE",
"211 79 CURVE SMOOTH",
"163 79 OFFCURVE",
"132 115 OFFCURVE",
"132 173 CURVE SMOOTH",
"132 339 LINE SMOOTH",
"132 395 OFFCURVE",
"163 431 OFFCURVE",
"210 431 CURVE SMOOTH",
"258 431 OFFCURVE",
"288 395 OFFCURVE",
"288 339 CURVE SMOOTH",
"288 298 LINE",
"93 298 LINE",
"93 215 LINE",
"388 215 LINE",
"388 337 LINE SMOOTH",
"388 449 OFFCURVE",
"321 517 OFFCURVE",
"210 517 CURVE SMOOTH",
"101 517 OFFCURVE",
"33 449 OFFCURVE",
"33 338 CURVE SMOOTH",
"33 171 LINE SMOOTH",
"33 61 OFFCURVE",
"100 -8 OFFCURVE",
"211 -8 CURVE SMOOTH"
);
}
);
width = 416;
},
{
layerId = "DCBE1F7B-116A-43E0-B7B4-8657BA77D8B5";
paths = (
{
closed = 1;
nodes = (
"239 -8 OFFCURVE",
"291 39 OFFCURVE",
"303 109 CURVE",
"280 108 LINE",
"268 51 OFFCURVE",
"225 13 OFFCURVE",
"173 13 CURVE SMOOTH",
"106 13 OFFCURVE",
"62 62 OFFCURVE",
"62 135 CURVE SMOOTH",
"62 365 LINE SMOOTH",
"62 438 OFFCURVE",
"106 487 OFFCURVE",
"173 487 CURVE SMOOTH",
"239 487 OFFCURVE",
"283 438 OFFCURVE",
"283 365 CURVE SMOOTH",
"283 265 LINE",
"52 265 LINE",
"52 244 LINE",
"306 244 LINE",
"306 363 LINE SMOOTH",
"306 450 OFFCURVE",
"253 508 OFFCURVE",
"173 508 CURVE SMOOTH",
"93 508 OFFCURVE",
"40 450 OFFCURVE",
"40 364 CURVE SMOOTH",
"40 136 LINE SMOOTH",
"40 50 OFFCURVE",
"93 -8 OFFCURVE",
"173 -8 CURVE SMOOTH"
);
}
);
width = 346;
},
{
associatedMasterId = "4E2227F3-52E4-4048-A8EE-327B486EF0A4";
layerId = "7684808E-3924-47D5-8253-7E3CAB4AD1BF";
name = "{100,5}";
paths = (
{
closed = 1;
nodes = (
"363 -8 OFFCURVE",
"444 53 OFFCURVE",
"452 143 CURVE",
"354 148 LINE",
"344 107 OFFCURVE",
"302 79 OFFCURVE",
"251 79 CURVE SMOOTH",
"187 79 OFFCURVE",
"143 121 OFFCURVE",
"143 183 CURVE SMOOTH",
"143 326 LINE SMOOTH",
"143 389 OFFCURVE",
"187 431 OFFCURVE",
"250 431 CURVE SMOOTH",
"313 431 OFFCURVE",
"356 389 OFFCURVE",
"356 326 CURVE SMOOTH",
"356 296 LINE",
"105 296 LINE",
"105 212 LINE",
"455 212 LINE",
"455 314 LINE SMOOTH",
"455 436 OFFCURVE",
"374 517 OFFCURVE",
"251 517 CURVE SMOOTH",
"128 517 OFFCURVE",
"44 436 OFFCURVE",
"44 315 CURVE SMOOTH",
"44 195 LINE SMOOTH",
"44 73 OFFCURVE",
"128 -8 OFFCURVE",
"252 -8 CURVE SMOOTH"
);
}
);
width = 493;
}
);
leftKerningGroup = o;
rightKerningGroup = o;
unicode = 0065;
},
{
color = 3;
glyphname = f;
lastChange = "2017-02-16 04:20:13 +0000";
layers = (
{
layerId = "262880E7-CFE1-4BDA-902E-E24798F3240A";
paths = (
{
closed = 1;
nodes = (
"109 0 LINE",
"109 550 LINE SMOOTH",
"109 637 OFFCURVE",
"127 689 OFFCURVE",
"220 689 CURVE SMOOTH",
"251 689 LINE",
"251 710 LINE",
"220 710 LINE SMOOTH",
"114 710 OFFCURVE",
"87 650 OFFCURVE",
"87 550 CURVE SMOOTH",
"87 0 LINE"
);
},
{
closed = 1;
nodes = (
"246 479 LINE",
"246 500 LINE",
"10 500 LINE",
"10 479 LINE"
);
}
);
width = 266;
},
{
layerId = "4E2227F3-52E4-4048-A8EE-327B486EF0A4";
paths = (
{
closed = 1;
nodes = (
"231 0 LINE",
"231 539 LINE SMOOTH",
"231 557 OFFCURVE",
"244 572 OFFCURVE",
"268 575 CURVE",
"275 575 LINE",
"275 700 LINE",
"268 700 LINE",
"126 707 OFFCURVE",
"43 683 OFFCURVE",
"43 556 CURVE SMOOTH",
"43 0 LINE"
);
},
{
closed = 1;
nodes = (
"289 390 LINE",
"289 520 LINE",
"2 520 LINE",
"2 390 LINE"
);
}
);
width = 293;
},
{
layerId = "FFFA8D72-12AC-4CE0-B2CA-57A29829F4DA";
paths = (
{
closed = 1;
nodes = (
"261 0 LINE",
"261 539 LINE SMOOTH",
"261 557 OFFCURVE",
"274 572 OFFCURVE",
"298 575 CURVE",
"355 575 LINE",
"355 700 LINE",
"298 700 LINE",
"156 707 OFFCURVE",
"73 683 OFFCURVE",
"73 556 CURVE SMOOTH",
"73 0 LINE"
);
},
{
closed = 1;
nodes = (
"369 370 LINE",
"369 520 LINE",
"2 520 LINE",
"2 370 LINE"
);
}
);
width = 373;
},
{
layerId = "DCBE1F7B-116A-43E0-B7B4-8657BA77D8B5";
paths = (
{
closed = 1;
nodes = (
"90 0 LINE",
"90 550 LINE SMOOTH",
"90 637 OFFCURVE",
"103 689 OFFCURVE",
"173 689 CURVE SMOOTH",
"198 689 LINE",
"198 710 LINE",
"172 710 LINE SMOOTH",
"90 710 OFFCURVE",
"68 650 OFFCURVE",
"68 550 CURVE SMOOTH",
"68 0 LINE"
);
},
{
closed = 1;
nodes = (
"194 479 LINE",
"194 500 LINE",
"8 500 LINE",
"8 479 LINE"
);
}
);
width = 210;
},
{
associatedMasterId = "FFFA8D72-12AC-4CE0-B2CA-57A29829F4DA";
layerId = "2C93A357-82AB-483E-BCC8-F28359C8C182";
name = "{100,5}";
paths = (
{
closed = 1;
nodes = (
"181 0 LINE",
"181 517 LINE",
"181 574 OFFCURVE",
"200 606 OFFCURVE",
"265 606 CURVE SMOOTH",
"299 606 LINE",
"299 700 LINE",
"255 700 LINE SMOOTH",
"142 700 OFFCURVE",
"81 645 OFFCURVE",
"81 530 CURVE",
"81 0 LINE"
);
},
{
closed = 1;
nodes = (
"299 418 LINE",
"299 510 LINE",
"0 510 LINE",
"0 418 LINE"
);
}
);
width = 309;
}
);
leftKerningGroup = t;
unicode = 0066;
},
{
glyphname = g;
lastChange = "2017-02-16 04:19:56 +0000";
layers = (
{
components = (
{
name = b.bowl;
transform = "{-1, 0, 0, 1, 412, 0}";
}
);
layerId = "262880E7-CFE1-4BDA-902E-E24798F3240A";
paths = (
{
closed = 1;
nodes = (
"342 -205 OFFCURVE",
"415 -137 OFFCURVE",
"415 0 CURVE SMOOTH",
"415 500 LINE",
"393 500 LINE",
"393 0 LINE SMOOTH",
"393 -123 OFFCURVE",
"326 -183 OFFCURVE",
"237 -179 CURVE",
"237 -200 LINE"
);
}
);
width = 495;
},
{
components = (
{
name = b.bowl;
transform = "{-1, 0, 0, 1, 281, 0}";
}
);
layerId = "4E2227F3-52E4-4048-A8EE-327B486EF0A4";
paths = (
{
closed = 1;
nodes = (
"381 -233 OFFCURVE",
"434 -115 OFFCURVE",
"434 34 CURVE SMOOTH",
"434 520 LINE",
"246 520 LINE",
"246 54 LINE SMOOTH",
"246 -14 OFFCURVE",
"239 -56 OFFCURVE",
"94 -45 CURVE",
"94 -207 LINE"
);
}
);
width = 450;
},
{
components = (
{
name = b.bowl;
transform = "{-1, 0, 0, 1, 374, 0}";
}
);
layerId = "FFFA8D72-12AC-4CE0-B2CA-57A29829F4DA";
paths = (
{
closed = 1;
nodes = (
"405 -236 OFFCURVE",
"503 -115 OFFCURVE",
"503 34 CURVE SMOOTH",
"503 520 LINE",
"315 520 LINE",
"315 24 LINE SMOOTH",
"315 -36 OFFCURVE",
"264 -59 OFFCURVE",
"103 -38 CURVE",
"103 -200 LINE"
);
}
);
width = 519;
},
{
components = (
{
name = b.bowl;
transform = "{-1, 0, 0, 1, 316, 0}";
}
);
layerId = "DCBE1F7B-116A-43E0-B7B4-8657BA77D8B5";
paths = (
{
closed = 1;
nodes = (
"267 -204 OFFCURVE",
"323 -137 OFFCURVE",
"323 0 CURVE SMOOTH",
"323 500 LINE",
"300 500 LINE",
"300 0 LINE SMOOTH",
"300 -123 OFFCURVE",
"251 -183 OFFCURVE",
"181 -179 CURVE",
"181 -200 LINE"
);
}
);
width = 387;
}
);
leftKerningGroup = d;
rightKerningGroup = g;
unicode = 0067;
},
{
glyphname = h;
lastChange = "2017-02-16 04:19:56 +0000";
layers = (
{
components = (
{
name = n.curve;
transform = "{1, 0, 0, 1, 84, 0}";
}
);
layerId = "262880E7-CFE1-4BDA-902E-E24798F3240A";
paths = (
{
closed = 1;
nodes = (
"102 0 LINE",
"102 700 LINE",
"80 700 LINE",
"80 0 LINE"
);
}
);
width = 488;
},
{
components = (
{
name = n.curve;
transform = "{1, 0, 0, 1, 168, 0}";
}
);
layerId = "4E2227F3-52E4-4048-A8EE-327B486EF0A4";
paths = (
{
closed = 1;
nodes = (
"204 0 LINE",
"204 700 LINE",
"16 700 LINE",
"16 0 LINE"
);
}
);
width = 450;
},
{
components = (
{
name = n.curve;
transform = "{1, 0, 0, 1, 165, 0}";
}
);
layerId = "FFFA8D72-12AC-4CE0-B2CA-57A29829F4DA";
paths = (
{
closed = 1;
nodes = (
"204 0 LINE",
"204 700 LINE",
"16 700 LINE",
"16 0 LINE"
);
}
);
width = 519;
},
{
components = (
{
name = n.curve;
transform = "{1, 0, 0, 1, 71, 0}";
}
);
layerId = "DCBE1F7B-116A-43E0-B7B4-8657BA77D8B5";
paths = (
{
closed = 1;
nodes = (
"86 0 LINE",
"86 700 LINE",
"64 700 LINE",
"64 0 LINE"
);
}
);
width = 381;
}
);
leftKerningGroup = b;
rightKerningGroup = n;
unicode = 0068;
},
{
glyphname = i;
lastChange = "2017-02-16 04:19:28 +0000";
layers = (
{
layerId = "262880E7-CFE1-4BDA-902E-E24798F3240A";
paths = (
{
closed = 1;
nodes = (
"113 0 LINE",
"113 500 LINE",
"91 500 LINE",
"91 0 LINE"
);
},
{
closed = 1;
nodes = (
"119 620 OFFCURVE",
"132 633 OFFCURVE",
"132 650 CURVE SMOOTH",
"132 666 OFFCURVE",
"119 679 OFFCURVE",
"102 679 CURVE SMOOTH",
"84 679 OFFCURVE",
"70 666 OFFCURVE",
"70 650 CURVE SMOOTH",
"70 633 OFFCURVE",
"84 620 OFFCURVE",
"102 620 CURVE SMOOTH"
);
}
);
width = 202;
},
{
layerId = "4E2227F3-52E4-4048-A8EE-327B486EF0A4";
paths = (
{
closed = 1;
nodes = (
"212 0 LINE",
"212 520 LINE",
"24 520 LINE",
"24 0 LINE"
);
},
{
closed = 1;
nodes = (
"181 542 OFFCURVE",
"222 584 OFFCURVE",
"222 647 CURVE SMOOTH",
"222 710 OFFCURVE",
"181 752 OFFCURVE",
"118 752 CURVE SMOOTH",
"56 752 OFFCURVE",
"14 710 OFFCURVE",
"14 647 CURVE SMOOTH",
"14 584 OFFCURVE",
"56 542 OFFCURVE",
"118 542 CURVE SMOOTH"
);
}
);
width = 236;
},
{
layerId = "FFFA8D72-12AC-4CE0-B2CA-57A29829F4DA";
paths = (
{
closed = 1;
nodes = (
"216 0 LINE",
"216 520 LINE",
"28 520 LINE",
"28 0 LINE"
);
},
{
closed = 1;
nodes = (
"187 533 OFFCURVE",
"230 575 OFFCURVE",
"230 638 CURVE SMOOTH",
"230 701 OFFCURVE",
"187 743 OFFCURVE",
"122 743 CURVE SMOOTH",
"58 743 OFFCURVE",
"14 701 OFFCURVE",
"14 638 CURVE SMOOTH",
"14 575 OFFCURVE",
"58 533 OFFCURVE",
"122 533 CURVE SMOOTH"
);
}
);
width = 244;
},
{
layerId = "DCBE1F7B-116A-43E0-B7B4-8657BA77D8B5";
paths = (
{
closed = 1;
nodes = (
"94 0 LINE",
"94 500 LINE",
"72 500 LINE",
"72 0 LINE"
);
},
{
closed = 1;
nodes = (
"97 620 OFFCURVE",
"108 633 OFFCURVE",
"108 650 CURVE SMOOTH",
"108 666 OFFCURVE",
"97 679 OFFCURVE",
"83 679 CURVE SMOOTH",
"68 679 OFFCURVE",
"56 666 OFFCURVE",
"56 650 CURVE SMOOTH",
"56 633 OFFCURVE",
"68 620 OFFCURVE",
"83 620 CURVE SMOOTH"
);
}
);
width = 164;
}
);
leftKerningGroup = i;
unicode = 0069;
},
{
glyphname = j;
lastChange = "2017-02-16 04:19:56 +0000";
layers = (
{
layerId = "262880E7-CFE1-4BDA-902E-E24798F3240A";
paths = (
{
closed = 1;
nodes = (
"70 -211 OFFCURVE",
"122 -159 OFFCURVE",
"122 -74 CURVE SMOOTH",
"122 500 LINE",
"100 500 LINE",
"100 -74 LINE SMOOTH",
"100 -146 OFFCURVE",
"57 -190 OFFCURVE",
"-15 -190 CURVE",
"-15 -211 LINE"
);
},
{
closed = 1;
nodes = (
"131 620 OFFCURVE",
"143 631 OFFCURVE",
"143 650 CURVE SMOOTH",
"143 669 OFFCURVE",
"131 679 OFFCURVE",
"111 679 CURVE SMOOTH",
"93 679 OFFCURVE",
"80 669 OFFCURVE",
"80 650 CURVE SMOOTH",
"80 631 OFFCURVE",
"93 620 OFFCURVE",
"111 620 CURVE SMOOTH"
);
}
);
width = 192;
},
{
layerId = "4E2227F3-52E4-4048-A8EE-327B486EF0A4";
paths = (
{
closed = 1;
nodes = (
"279 -210 OFFCURVE",
"284 -120 OFFCURVE",
"284 29 CURVE SMOOTH",
"284 520 LINE",
"96 520 LINE",
"96 29 LINE SMOOTH",
"96 -19 OFFCURVE",
"81 -49 OFFCURVE",
"0 -41 CURVE",
"0 -201 LINE"
);
},
{
closed = 1;
nodes = (
"251 542 OFFCURVE",
"294 589 OFFCURVE",
"294 647 CURVE SMOOTH",
"294 705 OFFCURVE",
"242 752 OFFCURVE",
"190 752 CURVE SMOOTH",
"137 752 OFFCURVE",
"86 705 OFFCURVE",
"86 647 CURVE SMOOTH",
"86 589 OFFCURVE",
"128 542 OFFCURVE",
"190 542 CURVE SMOOTH"
);
}
);
width = 298;
},
{
layerId = "FFFA8D72-12AC-4CE0-B2CA-57A29829F4DA";
paths = (
{
closed = 1;
nodes = (
"191 -210 OFFCURVE",
"208 -120 OFFCURVE",
"208 29 CURVE SMOOTH",
"208 520 LINE",
"20 520 LINE",
"20 29 LINE SMOOTH",
"20 -19 OFFCURVE",
"-4 -49 OFFCURVE",
"-99 -41 CURVE",
"-99 -201 LINE"
);
},
{
closed = 1;
nodes = (
"177 533 OFFCURVE",
"222 580 OFFCURVE",
"222 638 CURVE SMOOTH",
"222 696 OFFCURVE",
"169 743 OFFCURVE",
"114 743 CURVE SMOOTH",
"58 743 OFFCURVE",
"6 696 OFFCURVE",
"6 638 CURVE SMOOTH",
"6 580 OFFCURVE",
"49 533 OFFCURVE",
"114 533 CURVE SMOOTH"
);
}
);
width = 222;
},
{
layerId = "DCBE1F7B-116A-43E0-B7B4-8657BA77D8B5";
paths = (
{
closed = 1;
nodes = (
"63 -211 OFFCURVE",
"102 -159 OFFCURVE",
"102 -74 CURVE SMOOTH",
"102 500 LINE",
"80 500 LINE",
"80 -74 LINE SMOOTH",
"80 -146 OFFCURVE",
"48 -190 OFFCURVE",
"-8 -190 CURVE",
"-8 -211 LINE"
);
},
{
closed = 1;
nodes = (
"107 620 OFFCURVE",
"118 631 OFFCURVE",
"118 650 CURVE SMOOTH",
"118 669 OFFCURVE",
"107 679 OFFCURVE",
"91 679 CURVE SMOOTH",
"76 679 OFFCURVE",
"65 669 OFFCURVE",
"65 650 CURVE SMOOTH",
"65 631 OFFCURVE",
"76 620 OFFCURVE",
"91 620 CURVE SMOOTH"
);
}
);
width = 158;
}
);
leftKerningGroup = j;
unicode = 006A;
},
{
glyphname = k;
lastChange = "2017-02-16 04:19:28 +0000";
layers = (
{
guideLines = (
{
angle = 180;
position = "{264, 0}";
showMeasurement = 1;
}
);
layerId = "262880E7-CFE1-4BDA-902E-E24798F3240A";
paths = (
{
closed = 1;
nodes = (
"102 0 LINE",
"102 200 LINE",
"247 347 LINE",
"396 0 LINE",
"420 0 LINE",
"263 363 LINE",
"400 500 LINE",
"372 500 LINE",
"102 227 LINE",
"102 700 LINE",
"80 700 LINE",
"80 0 LINE"
);
}
);
width = 450;
},
{
layerId = "4E2227F3-52E4-4048-A8EE-327B486EF0A4";
paths = (
{
closed = 1;
nodes = (
"204 0 LINE",
"204 137 LINE",
"217 166 LINE",
"269 0 LINE",
"463 0 LINE",
"332 315 LINE",
"457 520 LINE",
"264 520 LINE",
"204 392 LINE",
"204 700 LINE",
"16 700 LINE",
"16 0 LINE"
);
}
);
width = 469;
},
{
layerId = "FFFA8D72-12AC-4CE0-B2CA-57A29829F4DA";
paths = (
{
closed = 1;
nodes = (
"204 0 LINE",
"204 149 LINE",
"244 205 LINE",
"332 0 LINE",
"526 0 LINE",
"364 315 LINE",
"516 520 LINE",
"312 520 LINE",
"204 382 LINE",
"204 700 LINE",
"16 700 LINE",
"16 0 LINE"
);
}
);
width = 532;
},
{
guideLines = (
{
angle = 180;
position = "{270, 0}";
showMeasurement = 1;
}
);
layerId = "DCBE1F7B-116A-43E0-B7B4-8657BA77D8B5";
paths = (
{
closed = 1;
nodes = (
"86 0 LINE",
"86 200 LINE",
"194 345 LINE",
"305 0 LINE",
"329 0 LINE",
"209 363 LINE",
"313 500 LINE",
"287 500 LINE",
"86 232 LINE",
"86 700 LINE",
"64 700 LINE",
"64 0 LINE"
);
}
);
width = 353;
}
);
leftKerningGroup = b;
rightKerningGroup = k;
unicode = 006B;
},
{
glyphname = l;
lastChange = "2017-02-16 04:19:28 +0000";
layers = (
{
layerId = "262880E7-CFE1-4BDA-902E-E24798F3240A";
paths = (
{
closed = 1;
nodes = (
"92 0 LINE",
"92 700 LINE",
"70 700 LINE",
"70 0 LINE"
);
}
);
width = 162;
},
{
layerId = "4E2227F3-52E4-4048-A8EE-327B486EF0A4";
paths = (
{
closed = 1;
nodes = (
"202 0 LINE",
"202 700 LINE",
"14 700 LINE",
"14 0 LINE"
);
}
);
width = 216;
},
{
layerId = "FFFA8D72-12AC-4CE0-B2CA-57A29829F4DA";
paths = (
{
closed = 1;
nodes = (
"202 0 LINE",
"202 700 LINE",
"14 700 LINE",
"14 0 LINE"
);
}
);
width = 216;
},
{
layerId = "DCBE1F7B-116A-43E0-B7B4-8657BA77D8B5";
paths = (
{
closed = 1;
nodes = (
"78 0 LINE",
"78 700 LINE",
"56 700 LINE",
"56 0 LINE"
);
}
);
width = 134;
}
);
leftKerningGroup = l;
rightKerningGroup = l;
unicode = 006C;
},
{
glyphname = m;
lastChange = "2017-02-16 04:19:28 +0000";
layers = (
{
layerId = "262880E7-CFE1-4BDA-902E-E24798F3240A";
paths = (
{
closed = 1;
nodes = (
"102 0 LINE",
"102 500 LINE",
"80 500 LINE",
"80 0 LINE"
);
},
{
closed = 1;
nodes = (
"404 0 LINE",
"404 347 LINE SMOOTH",
"404 446 OFFCURVE",
"340 507 OFFCURVE",
"248 507 CURVE SMOOTH",
"149 507 OFFCURVE",
"85 448 OFFCURVE",
"85 346 CURVE",
"102 346 LINE",
"102 433 OFFCURVE",
"158 486 OFFCURVE",
"246 486 CURVE SMOOTH",
"326 486 OFFCURVE",
"382 432 OFFCURVE",
"382 344 CURVE SMOOTH",
"382 0 LINE"
);
},
{
closed = 1;
nodes = (
"707 0 LINE",
"707 347 LINE SMOOTH",
"707 446 OFFCURVE",
"642 507 OFFCURVE",
"550 507 CURVE SMOOTH",
"452 507 OFFCURVE",
"387 448 OFFCURVE",
"387 346 CURVE",
"404 346 LINE",
"404 433 OFFCURVE",
"461 486 OFFCURVE",
"548 486 CURVE SMOOTH",
"628 486 OFFCURVE",
"685 432 OFFCURVE",
"685 344 CURVE SMOOTH",
"685 0 LINE"
);
}
);
width = 777;
},
{
layerId = "4E2227F3-52E4-4048-A8EE-327B486EF0A4";
paths = (
{
closed = 1;
nodes = (
"204 0 LINE",
"204 520 LINE",
"16 520 LINE",
"16 0 LINE"
);
},
{
closed = 1;
nodes = (
"436 0 LINE",
"436 348 LINE SMOOTH",
"436 459 OFFCURVE",
"395 528 OFFCURVE",
"294 528 CURVE SMOOTH",
"257 528 OFFCURVE",
"157 515 OFFCURVE",
"158 335 CURVE",
"204 335 LINE",
"204 356 OFFCURVE",
"212 367 OFFCURVE",
"227 367 CURVE SMOOTH",
"241 367 OFFCURVE",
"248 356 OFFCURVE",
"248 335 CURVE SMOOTH",
"248 0 LINE"
);
},
{
closed = 1;
nodes = (
"668 0 LINE",
"668 348 LINE SMOOTH",
"668 459 OFFCURVE",
"627 528 OFFCURVE",
"526 528 CURVE SMOOTH",
"485 528 OFFCURVE",
"385 515 OFFCURVE",
"386 335 CURVE",
"436 335 LINE",
"436 356 OFFCURVE",
"444 367 OFFCURVE",
"459 367 CURVE SMOOTH",
"473 367 OFFCURVE",
"480 356 OFFCURVE",
"480 335 CURVE SMOOTH",
"480 0 LINE"
);
}
);
width = 682;
},
{
layerId = "FFFA8D72-12AC-4CE0-B2CA-57A29829F4DA";
paths = (
{
closed = 1;
nodes = (
"204 0 LINE",
"204 520 LINE",
"16 520 LINE",
"16 0 LINE"
);
},
{
closed = 1;
nodes = (
"496 0 LINE",
"496 348 LINE SMOOTH",
"496 464 OFFCURVE",
"410 528 OFFCURVE",
"316 528 CURVE SMOOTH",
"221 528 OFFCURVE",
"145 463 OFFCURVE",
"145 300 CURVE",
"204 300 LINE",
"204 340 OFFCURVE",
"226 367 OFFCURVE",
"257 367 CURVE SMOOTH",
"288 367 OFFCURVE",
"308 340 OFFCURVE",
"308 300 CURVE SMOOTH",
"308 0 LINE"
);
},
{
closed = 1;
nodes = (
"789 0 LINE",
"789 348 LINE SMOOTH",
"789 462 OFFCURVE",
"704 528 OFFCURVE",
"608 528 CURVE SMOOTH",
"512 528 OFFCURVE",
"417 462 OFFCURVE",
"417 300 CURVE",
"496 300 LINE",
"496 340 OFFCURVE",
"518 367 OFFCURVE",
"550 367 CURVE SMOOTH",
"581 367 OFFCURVE",
"601 340 OFFCURVE",
"601 300 CURVE SMOOTH",
"601 0 LINE"
);
}
);
width = 803;
},
{
layerId = "DCBE1F7B-116A-43E0-B7B4-8657BA77D8B5";
paths = (
{
closed = 1;
nodes = (
"86 0 LINE",
"86 500 LINE",
"64 500 LINE",
"64 0 LINE"
);
},
{
closed = 1;
nodes = (
"316 0 LINE",
"316 347 LINE SMOOTH",
"316 446 OFFCURVE",
"268 507 OFFCURVE",
"197 507 CURVE SMOOTH",
"123 507 OFFCURVE",
"70 448 OFFCURVE",
"70 346 CURVE",
"86 346 LINE",
"86 433 OFFCURVE",
"128 486 OFFCURVE",
"193 486 CURVE SMOOTH",
"252 486 OFFCURVE",
"294 432 OFFCURVE",
"294 344 CURVE SMOOTH",
"294 0 LINE"
);
},
{
closed = 1;
nodes = (
"546 0 LINE",
"546 347 LINE SMOOTH",
"546 446 OFFCURVE",
"497 507 OFFCURVE",
"427 507 CURVE SMOOTH",
"353 507 OFFCURVE",
"299 451 OFFCURVE",
"299 346 CURVE",
"316 346 LINE",
"316 433 OFFCURVE",
"358 486 OFFCURVE",
"422 486 CURVE SMOOTH",
"482 486 OFFCURVE",
"524 432 OFFCURVE",
"524 344 CURVE SMOOTH",
"524 0 LINE"
);
}
);
width = 602;
}
);
leftKerningGroup = n;
rightKerningGroup = h;
unicode = 006D;
},
{
glyphname = n;
lastChange = "2017-02-16 04:19:56 +0000";
layers = (
{
components = (
{
name = n.curve;
transform = "{1, 0, 0, 1, 84, 0}";
}
);
layerId = "262880E7-CFE1-4BDA-902E-E24798F3240A";
paths = (
{
closed = 1;
nodes = (
"102 0 LINE",
"102 500 LINE",
"80 500 LINE",
"80 0 LINE"
);
}
);
width = 488;
},
{
components = (
{
name = n.curve;
transform = "{1, 0, 0, 1, 168, 0}";
}
);
layerId = "4E2227F3-52E4-4048-A8EE-327B486EF0A4";
paths = (
{
closed = 1;
nodes = (
"204 0 LINE",
"204 520 LINE",
"16 520 LINE",
"16 0 LINE"
);
}
);
width = 450;
},
{
components = (
{
name = n.curve;
transform = "{1, 0, 0, 1, 165, 0}";
}
);
layerId = "FFFA8D72-12AC-4CE0-B2CA-57A29829F4DA";
paths = (
{
closed = 1;
nodes = (
"204 0 LINE",
"204 520 LINE",
"16 520 LINE",
"16 0 LINE"
);
}
);
width = 519;
},
{
components = (
{
name = n.curve;
transform = "{1, 0, 0, 1, 71, 0}";
}
);
layerId = "DCBE1F7B-116A-43E0-B7B4-8657BA77D8B5";
paths = (
{
closed = 1;
nodes = (
"86 0 LINE",
"86 500 LINE",
"64 500 LINE",
"64 0 LINE"
);
}
);
width = 381;
}
);
leftKerningGroup = n;
rightKerningGroup = n;
unicode = 006E;
},
{
glyphname = o;
lastChange = "2017-02-16 04:19:28 +0000";
layers = (
{
layerId = "262880E7-CFE1-4BDA-902E-E24798F3240A";
paths = (
{
closed = 1;
nodes = (
"327 -8 OFFCURVE",
"397 67 OFFCURVE",
"397 168 CURVE SMOOTH",
"397 332 LINE SMOOTH",
"397 433 OFFCURVE",
"327 508 OFFCURVE",
"223 508 CURVE SMOOTH",
"119 508 OFFCURVE",
"50 433 OFFCURVE",
"50 332 CURVE SMOOTH",
"50 168 LINE SMOOTH",
"50 67 OFFCURVE",
"119 -8 OFFCURVE",
"223 -8 CURVE SMOOTH"
);
},
{
closed = 1;
nodes = (
"132 13 OFFCURVE",
"72 79 OFFCURVE",
"72 167 CURVE SMOOTH",
"72 333 LINE SMOOTH",
"72 421 OFFCURVE",
"132 487 OFFCURVE",
"223 487 CURVE SMOOTH",
"314 487 OFFCURVE",
"375 421 OFFCURVE",
"375 333 CURVE SMOOTH",
"375 167 LINE SMOOTH",
"375 79 OFFCURVE",
"314 13 OFFCURVE",
"223 13 CURVE SMOOTH"
);
}
);
width = 447;
},
{
layerId = "4E2227F3-52E4-4048-A8EE-327B486EF0A4";
paths = (
{
closed = 1;
nodes = (
"359 -7 OFFCURVE",
"435 67 OFFCURVE",
"435 190 CURVE SMOOTH",
"435 330 LINE SMOOTH",
"435 456 OFFCURVE",
"359 532 OFFCURVE",
"223 532 CURVE SMOOTH",
"87 532 OFFCURVE",
"10 456 OFFCURVE",
"10 330 CURVE SMOOTH",
"10 190 LINE SMOOTH",
"10 67 OFFCURVE",
"87 -7 OFFCURVE",
"223 -7 CURVE SMOOTH"
);
},
{
closed = 1;
nodes = (
"206 154 OFFCURVE",
"198 165 OFFCURVE",
"198 186 CURVE SMOOTH",
"198 339 LINE SMOOTH",
"198 360 OFFCURVE",
"206 371 OFFCURVE",
"223 371 CURVE SMOOTH",
"239 371 OFFCURVE",
"247 360 OFFCURVE",
"247 339 CURVE SMOOTH",
"247 186 LINE SMOOTH",
"247 165 OFFCURVE",
"239 154 OFFCURVE",
"223 154 CURVE SMOOTH"
);
}
);
width = 445;
},
{
layerId = "FFFA8D72-12AC-4CE0-B2CA-57A29829F4DA";
paths = (
{
closed = 1;
nodes = (
"402 -7 OFFCURVE",
"500 93 OFFCURVE",
"500 244 CURVE SMOOTH",
"500 281 LINE SMOOTH",
"500 432 OFFCURVE",
"402 532 OFFCURVE",
"255 532 CURVE SMOOTH",
"108 532 OFFCURVE",
"10 432 OFFCURVE",
"10 281 CURVE SMOOTH",
"10 244 LINE SMOOTH",
"10 93 OFFCURVE",
"108 -7 OFFCURVE",
"255 -7 CURVE SMOOTH"
);
},
{
closed = 1;
nodes = (
"221 154 OFFCURVE",
"198 186 OFFCURVE",
"198 235 CURVE SMOOTH",
"198 290 LINE SMOOTH",
"198 339 OFFCURVE",
"221 371 OFFCURVE",
"255 371 CURVE SMOOTH",
"289 371 OFFCURVE",
"312 339 OFFCURVE",
"312 290 CURVE SMOOTH",
"312 235 LINE SMOOTH",
"312 186 OFFCURVE",
"289 154 OFFCURVE",
"255 154 CURVE SMOOTH"
);
}
);
width = 510;
},
{
guideLines = (
{
angle = 60;
position = "{222, 250}";
showMeasurement = 1;
}
);
layerId = "DCBE1F7B-116A-43E0-B7B4-8657BA77D8B5";
paths = (
{
closed = 1;
nodes = (
"254 -8 OFFCURVE",
"309 51 OFFCURVE",
"309 136 CURVE SMOOTH",
"309 364 LINE SMOOTH",
"309 449 OFFCURVE",
"254 508 OFFCURVE",
"174 508 CURVE SMOOTH",
"95 508 OFFCURVE",
"40 449 OFFCURVE",
"40 364 CURVE SMOOTH",
"40 136 LINE SMOOTH",
"40 51 OFFCURVE",
"95 -8 OFFCURVE",
"174 -8 CURVE SMOOTH"
);
},
{
closed = 1;
nodes = (
"108 13 OFFCURVE",
"62 63 OFFCURVE",
"62 135 CURVE SMOOTH",
"62 365 LINE SMOOTH",
"62 437 OFFCURVE",
"108 487 OFFCURVE",
"174 487 CURVE SMOOTH",
"241 487 OFFCURVE",
"287 437 OFFCURVE",
"287 365 CURVE SMOOTH",
"287 135 LINE SMOOTH",
"287 63 OFFCURVE",
"241 13 OFFCURVE",
"174 13 CURVE SMOOTH"
);
}
);
width = 349;
},
{
associatedMasterId = "FFFA8D72-12AC-4CE0-B2CA-57A29829F4DA";
layerId = "1C5CD2D7-2630-4115-B920-A71EC643062F";
name = "{100,5}";
paths = (
{
closed = 1;
nodes = (
"366 -8 OFFCURVE",
"449 68 OFFCURVE",
"449 183 CURVE SMOOTH",
"449 329 LINE SMOOTH",
"449 443 OFFCURVE",
"366 519 OFFCURVE",
"241 519 CURVE SMOOTH",
"117 519 OFFCURVE",
"34 443 OFFCURVE",
"34 329 CURVE SMOOTH",
"34 183 LINE SMOOTH",
"34 68 OFFCURVE",
"117 -8 OFFCURVE",
"241 -8 CURVE SMOOTH"
);
},
{
closed = 1;
nodes = (
"177 79 OFFCURVE",
"134 121 OFFCURVE",
"134 183 CURVE SMOOTH",
"134 329 LINE SMOOTH",
"134 391 OFFCURVE",
"177 433 OFFCURVE",
"241 433 CURVE SMOOTH",
"306 433 OFFCURVE",
"349 391 OFFCURVE",
"349 329 CURVE SMOOTH",
"349 183 LINE SMOOTH",
"349 121 OFFCURVE",
"306 79 OFFCURVE",
"241 79 CURVE SMOOTH"
);
}
);
width = 483;
}
);
leftKerningGroup = o;
rightKerningGroup = o;
unicode = 006F;
},
{
color = 3;
glyphname = r;
lastChange = "2017-02-16 04:19:28 +0000";
layers = (
{
layerId = "262880E7-CFE1-4BDA-902E-E24798F3240A";
paths = (
{
closed = 1;
nodes = (
"102 331 LINE",
"102 419 OFFCURVE",
"160 479 OFFCURVE",
"243 479 CURVE SMOOTH",
"269 479 OFFCURVE",
"284 474 OFFCURVE",
"299 466 CURVE",
"310 489 LINE",
"293 498 OFFCURVE",
"275 504 OFFCURVE",
"244 504 CURVE SMOOTH",
"149 504 OFFCURVE",
"87 438 OFFCURVE",
"87 331 CURVE"
);
},
{
closed = 1;
nodes = (
"102 0 LINE",
"102 500 LINE",
"80 500 LINE",
"80 0 LINE"
);
}
);
width = 320;
},
{
layerId = "4E2227F3-52E4-4048-A8EE-327B486EF0A4";
paths = (
{
closed = 1;
nodes = (
"204 273 LINE",
"204 294 OFFCURVE",
"216 318 OFFCURVE",
"235 327 CURVE SMOOTH",
"259 338 OFFCURVE",
"298 333 OFFCURVE",
"308 325 CURVE",
"337 510 LINE",
"328 519 OFFCURVE",
"312 527 OFFCURVE",
"287 527 CURVE SMOOTH",
"170 527 OFFCURVE",
"176 352 OFFCURVE",
"176 273 CURVE"
);
},
{
closed = 1;
nodes = (
"204 1 LINE",
"204 520 LINE",
"16 520 LINE",
"16 1 LINE"
);
}
);
width = 339;
},
{
layerId = "FFFA8D72-12AC-4CE0-B2CA-57A29829F4DA";
paths = (
{
closed = 1;
nodes = (
"204 273 LINE",
"204 307 OFFCURVE",
"238 326 OFFCURVE",
"267 332 CURVE SMOOTH",
"300 339 OFFCURVE",
"334 332 OFFCURVE",
"342 325 CURVE",
"371 507 LINE",
"362 516 OFFCURVE",
"342 527 OFFCURVE",
"308 527 CURVE SMOOTH",
"190 527 OFFCURVE",
"156 394 OFFCURVE",
"156 273 CURVE"
);
},
{
closed = 1;
nodes = (
"204 1 LINE",
"204 520 LINE",
"16 520 LINE",
"16 1 LINE"
);
}
);
width = 373;
},
{
layerId = "DCBE1F7B-116A-43E0-B7B4-8657BA77D8B5";
paths = (
{
closed = 1;
nodes = (
"86 331 LINE",
"86 419 OFFCURVE",
"129 479 OFFCURVE",
"190 479 CURVE SMOOTH",
"211 479 OFFCURVE",
"222 474 OFFCURVE",
"233 466 CURVE",
"243 489 LINE",
"230 498 OFFCURVE",
"217 504 OFFCURVE",
"193 504 CURVE SMOOTH",
"120 504 OFFCURVE",
"73 438 OFFCURVE",
"73 331 CURVE"
);
},
{
closed = 1;
nodes = (
"86 0 LINE",
"86 500 LINE",
"64 500 LINE",
"64 0 LINE"
);
}
);
width = 251;
},
{
associatedMasterId = "4E2227F3-52E4-4048-A8EE-327B486EF0A4";
layerId = "0231DC7A-BAB0-489B-A1F9-3A50B9D86C74";
name = "{100,5}";
paths = (
{
closed = 1;
nodes = (
"141 304 LINE",
"141 360 OFFCURVE",
"176 402 OFFCURVE",
"224 408 CURVE SMOOTH",
"247 411 OFFCURVE",
"270 405 OFFCURVE",
"279 400 CURVE",
"312 499 LINE",
"299 508 OFFCURVE",
"283 515 OFFCURVE",
"250 515 CURVE SMOOTH",
"153 515 OFFCURVE",
"101 412 OFFCURVE",
"101 304 CURVE"
);
},
{
closed = 1;
nodes = (
"141 0 LINE",
"141 510 LINE",
"42 510 LINE",
"42 0 LINE"
);
}
);
width = 312;
}
);
leftKerningGroup = n;
rightKerningGroup = r;
unicode = 0072;
},
{
color = 1;
glyphname = s;
lastChange = "2017-02-16 04:19:28 +0000";
layers = (
{
layerId = "262880E7-CFE1-4BDA-902E-E24798F3240A";
paths = (
{
closed = 1;
nodes = (
"295 -4 OFFCURVE",
"360 47 OFFCURVE",
"360 123 CURVE SMOOTH",
"360 212 OFFCURVE",
"274 238 OFFCURVE",
"194 264 CURVE SMOOTH",
"123 287 OFFCURVE",
"54 310 OFFCURVE",
"54 378 CURVE SMOOTH",
"54 441 OFFCURVE",
"109 483 OFFCURVE",
"194 483 CURVE SMOOTH",
"279 483 OFFCURVE",
"336 437 OFFCURVE",
"336 369 CURVE SMOOTH",
"336 344 LINE",
"358 344 LINE",
"358 369 LINE SMOOTH",
"358 450 OFFCURVE",
"293 504 OFFCURVE",
"195 504 CURVE SMOOTH",
"98 504 OFFCURVE",
"32 454 OFFCURVE",
"32 378 CURVE SMOOTH",
"32 294 OFFCURVE",
"110 268 OFFCURVE",
"189 243 CURVE SMOOTH",
"264 219 OFFCURVE",
"338 196 OFFCURVE",
"338 123 CURVE SMOOTH",
"338 59 OFFCURVE",
"281 17 OFFCURVE",
"197 17 CURVE SMOOTH",
"109 17 OFFCURVE",
"52 61 OFFCURVE",
"52 126 CURVE SMOOTH",
"52 157 LINE",
"30 157 LINE",
"30 126 LINE SMOOTH",
"30 48 OFFCURVE",
"97 -4 OFFCURVE",
"197 -4 CURVE SMOOTH"
);
}
);
width = 390;
},
{
layerId = "4E2227F3-52E4-4048-A8EE-327B486EF0A4";
paths = (
{
closed = 1;
nodes = (
"340 -8 OFFCURVE",
"423 52 OFFCURVE",
"423 151 CURVE SMOOTH",
"423 253 OFFCURVE",
"334 285 OFFCURVE",
"263 306 CURVE SMOOTH",
"236 314 OFFCURVE",
"193 327 OFFCURVE",
"193 357 CURVE SMOOTH",
"193 368 OFFCURVE",
"199 383 OFFCURVE",
"214 383 CURVE SMOOTH",
"226 383 OFFCURVE",
"236 374 OFFCURVE",
"236 357 CURVE SMOOTH",
"236 346 LINE",
"411 346 LINE",
"411 346 LINE SMOOTH",
"411 455 OFFCURVE",
"332 528 OFFCURVE",
"209 528 CURVE SMOOTH",
"92 528 OFFCURVE",
"13 463 OFFCURVE",
"13 358 CURVE SMOOTH",
"13 258 OFFCURVE",
"85 215 OFFCURVE",
"141 197 CURVE SMOOTH",
"184 183 OFFCURVE",
"234 177 OFFCURVE",
"234 149 CURVE SMOOTH",
"234 138 OFFCURVE",
"227 130 OFFCURVE",
"215 130 CURVE SMOOTH",
"203 130 OFFCURVE",
"186 139 OFFCURVE",
"186 161 CURVE SMOOTH",
"186 162 LINE",
"6 162 LINE",
"6 156 LINE",
"6 58 OFFCURVE",
"89 -8 OFFCURVE",
"217 -8 CURVE SMOOTH"
);
}
);
width = 429;
},
{
layerId = "FFFA8D72-12AC-4CE0-B2CA-57A29829F4DA";
paths = (
{
closed = 1;
nodes = (
"391 -8 OFFCURVE",
"487 50 OFFCURVE",
"487 154 CURVE SMOOTH",
"487 220 OFFCURVE",
"448 264 OFFCURVE",
"376 289 CURVE SMOOTH",
"290 319 OFFCURVE",
"193 312 OFFCURVE",
"193 353 CURVE SMOOTH",
"193 373 OFFCURVE",
"216 383 OFFCURVE",
"245 383 CURVE SMOOTH",
"279 383 OFFCURVE",
"300 369 OFFCURVE",
"300 347 CURVE SMOOTH",
"300 346 LINE",
"475 346 LINE",
"475 347 LINE SMOOTH",
"475 456 OFFCURVE",
"383 528 OFFCURVE",
"241 528 CURVE SMOOTH",
"106 528 OFFCURVE",
"13 462 OFFCURVE",
"13 361 CURVE SMOOTH",
"13 297 OFFCURVE",
"51 252 OFFCURVE",
"99 226 CURVE SMOOTH",
"183 180 OFFCURVE",
"298 191 OFFCURVE",
"298 156 CURVE SMOOTH",
"298 142 OFFCURVE",
"279 130 OFFCURVE",
"247 130 CURVE SMOOTH",
"213 130 OFFCURVE",
"186 144 OFFCURVE",
"186 166 CURVE SMOOTH",
"186 167 LINE",
"6 167 LINE",
"6 153 LINE",
"6 56 OFFCURVE",
"100 -8 OFFCURVE",
"249 -8 CURVE SMOOTH"
);
}
);
width = 493;
},
{
layerId = "DCBE1F7B-116A-43E0-B7B4-8657BA77D8B5";
paths = (
{
closed = 1;
nodes = (
"230 -4 OFFCURVE",
"280 47 OFFCURVE",
"280 123 CURVE SMOOTH",
"280 212 OFFCURVE",
"214 238 OFFCURVE",
"152 264 CURVE SMOOTH",
"98 287 OFFCURVE",
"48 310 OFFCURVE",
"48 378 CURVE SMOOTH",
"48 441 OFFCURVE",
"89 483 OFFCURVE",
"151 483 CURVE SMOOTH",
"215 483 OFFCURVE",
"257 437 OFFCURVE",
"257 369 CURVE SMOOTH",
"257 344 LINE",
"278 344 LINE",
"278 369 LINE SMOOTH",
"278 450 OFFCURVE",
"229 504 OFFCURVE",
"152 504 CURVE SMOOTH",
"77 504 OFFCURVE",
"26 454 OFFCURVE",
"26 378 CURVE SMOOTH",
"26 294 OFFCURVE",
"85 268 OFFCURVE",
"146 243 CURVE SMOOTH",
"204 219 OFFCURVE",
"258 196 OFFCURVE",
"258 123 CURVE SMOOTH",
"258 59 OFFCURVE",
"217 17 OFFCURVE",
"154 17 CURVE SMOOTH",
"87 17 OFFCURVE",
"46 61 OFFCURVE",
"46 126 CURVE SMOOTH",
"46 157 LINE",
"24 157 LINE",
"24 126 LINE SMOOTH",
"24 48 OFFCURVE",
"76 -4 OFFCURVE",
"154 -4 CURVE SMOOTH"
);
}
);
width = 304;
},
{
associatedMasterId = "4E2227F3-52E4-4048-A8EE-327B486EF0A4";
layerId = "85F9CC44-E494-4B9A-8AA4-6569A0BE88A1";
name = "{100,5}";
paths = (
{
closed = 1;
nodes = (
"350 -6 OFFCURVE",
"429 48 OFFCURVE",
"429 138 CURVE SMOOTH",
"429 232 OFFCURVE",
"344 276 OFFCURVE",
"266 294 CURVE SMOOTH",
"214 306 OFFCURVE",
"128 314 OFFCURVE",
"128 370 CURVE SMOOTH",
"128 408 OFFCURVE",
"168 436 OFFCURVE",
"227 436 CURVE SMOOTH",
"288 436 OFFCURVE",
"329 406 OFFCURVE",
"329 358 CURVE SMOOTH",
"329 345 LINE",
"422 345 LINE",
"422 358 LINE SMOOTH",
"422 452 OFFCURVE",
"345 515 OFFCURVE",
"225 515 CURVE SMOOTH",
"111 515 OFFCURVE",
"33 458 OFFCURVE",
"33 369 CURVE SMOOTH",
"33 282 OFFCURVE",
"106 238 OFFCURVE",
"176 216 CURVE SMOOTH",
"250 193 OFFCURVE",
"329 189 OFFCURVE",
"329 135 CURVE SMOOTH",
"329 97 OFFCURVE",
"289 70 OFFCURVE",
"229 70 CURVE SMOOTH",
"166 70 OFFCURVE",
"124 100 OFFCURVE",
"124 141 CURVE SMOOTH",
"124 158 LINE",
"28 158 LINE",
"28 139 LINE SMOOTH",
"28 52 OFFCURVE",
"108 -6 OFFCURVE",
"231 -6 CURVE SMOOTH"
);
}
);
width = 457;
},
{
associatedMasterId = "4E2227F3-52E4-4048-A8EE-327B486EF0A4";
layerId = "785EF2C0-A975-4A92-811F-C78DC21C62C7";
name = "{100,3}";
paths = (
{
closed = 1;
nodes = (
"288 -6 OFFCURVE",
"352 49 OFFCURVE",
"352 136 CURVE SMOOTH",
"352 233 OFFCURVE",
"271 268 OFFCURVE",
"215 292 CURVE SMOOTH",
"165 314 OFFCURVE",
"121 330 OFFCURVE",
"121 373 CURVE SMOOTH",
"121 405 OFFCURVE",
"144 436 OFFCURVE",
"186 436 CURVE SMOOTH",
"225 436 OFFCURVE",
"252 408 OFFCURVE",
"252 363 CURVE SMOOTH",
"252 345 LINE",
"345 345 LINE",
"345 358 LINE SMOOTH",
"345 458 OFFCURVE",
"284 515 OFFCURVE",
"184 515 CURVE SMOOTH",
"88 515 OFFCURVE",
"25 462 OFFCURVE",
"25 370 CURVE SMOOTH",
"25 269 OFFCURVE",
"103 236 OFFCURVE",
"156 214 CURVE SMOOTH",
"204 194 OFFCURVE",
"252 177 OFFCURVE",
"252 131 CURVE SMOOTH",
"252 97 OFFCURVE",
"227 70 OFFCURVE",
"187 70 CURVE SMOOTH",
"146 70 OFFCURVE",
"116 97 OFFCURVE",
"116 142 CURVE SMOOTH",
"116 159 LINE",
"21 159 LINE",
"21 140 LINE",
"21 47 OFFCURVE",
"84 -6 OFFCURVE",
"185 -6 CURVE SMOOTH"
);
}
);
width = 372;
}
);
leftKerningGroup = s;
rightKerningGroup = s;
unicode = 0073;
},
{
color = 3;
glyphname = t;
lastChange = "2017-02-16 04:19:28 +0000";
layers = (
{
layerId = "262880E7-CFE1-4BDA-902E-E24798F3240A";
paths = (
{
closed = 1;
nodes = (
"243 0 LINE",
"243 21 LINE",
"214 21 LINE SMOOTH",
"143 21 OFFCURVE",
"106 43 OFFCURVE",
"106 123 CURVE SMOOTH",
"106 626 LINE",
"84 626 LINE",
"84 124 LINE SMOOTH",
"84 23 OFFCURVE",
"138 0 OFFCURVE",
"214 0 CURVE SMOOTH"
);
},
{
closed = 1;
nodes = (
"241 479 LINE",
"241 500 LINE",
"10 500 LINE",
"10 479 LINE"
);
}
);
width = 263;
},
{
layerId = "4E2227F3-52E4-4048-A8EE-327B486EF0A4";
paths = (
{
closed = 1;
nodes = (
"278 7 LINE",
"278 169 LINE",
"261 169 LINE",
"243 168 OFFCURVE",
"230 173 OFFCURVE",
"230 199 CURVE",
"230 660 LINE",
"50 660 LINE",
"50 116 LINE",
"50 17 OFFCURVE",
"117 -11 OFFCURVE",
"215 0 CURVE SMOOTH"
);
},
{
closed = 1;
nodes = (
"293 390 LINE",
"293 520 LINE",
"2 520 LINE",
"2 390 LINE"
);
}
);
width = 297;
},
{
layerId = "FFFA8D72-12AC-4CE0-B2CA-57A29829F4DA";
paths = (
{
closed = 1;
nodes = (
"344 7 LINE",
"344 169 LINE",
"287 169 LINE",
"269 168 OFFCURVE",
"256 190 OFFCURVE",
"256 219 CURVE",
"256 660 LINE",
"76 660 LINE",
"76 136 LINE",
"76 37 OFFCURVE",
"143 -7 OFFCURVE",
"241 0 CURVE SMOOTH"
);
},
{
closed = 1;
nodes = (
"359 370 LINE",
"359 520 LINE",
"2 520 LINE",
"2 370 LINE"
);
}
);
width = 363;
},
{
layerId = "DCBE1F7B-116A-43E0-B7B4-8657BA77D8B5";
paths = (
{
closed = 1;
nodes = (
"188 0 LINE",
"188 21 LINE",
"167 21 LINE SMOOTH",
"114 21 OFFCURVE",
"87 43 OFFCURVE",
"87 123 CURVE SMOOTH",
"87 626 LINE",
"64 626 LINE",
"64 124 LINE SMOOTH",
"64 23 OFFCURVE",
"105 0 OFFCURVE",
"165 0 CURVE SMOOTH"
);
},
{
closed = 1;
nodes = (
"188 479 LINE",
"188 500 LINE",
"8 500 LINE",
"8 479 LINE"
);
}
);
width = 204;
},
{
associatedMasterId = "4E2227F3-52E4-4048-A8EE-327B486EF0A4";
layerId = "5104D358-2B42-4ACD-AAB6-4ADE7FFA9119";
name = "{100,5}";
paths = (
{
closed = 1;
nodes = (
"259 0 LINE",
"259 92 LINE",
"237 92 LINE SMOOTH",
"185 92 OFFCURVE",
"165 114 OFFCURVE",
"165 169 CURVE SMOOTH",
"165 648 LINE",
"65 648 LINE",
"65 152 LINE SMOOTH",
"65 42 OFFCURVE",
"109 0 OFFCURVE",
"211 0 CURVE SMOOTH"
);
},
{
closed = 1;
nodes = (
"263 417 LINE",
"263 509 LINE",
"3 509 LINE",
"3 417 LINE"
);
}
);
width = 274;
}
);
leftKerningGroup = t;
rightKerningGroup = t;
unicode = 0074;
},
{
glyphname = u;
lastChange = "2017-02-16 04:19:28 +0000";
layers = (
{
layerId = "262880E7-CFE1-4BDA-902E-E24798F3240A";
paths = (
{
closed = 1;
nodes = (
"408 0 LINE",
"408 500 LINE",
"386 500 LINE",
"386 0 LINE"
);
},
{
closed = 1;
nodes = (
"70 500 LINE",
"70 158 LINE SMOOTH",
"70 57 OFFCURVE",
"137 -7 OFFCURVE",
"233 -7 CURVE SMOOTH",
"336 -7 OFFCURVE",
"404 59 OFFCURVE",
"404 161 CURVE",
"386 161 LINE",
"386 74 OFFCURVE",
"327 14 OFFCURVE",
"236 14 CURVE SMOOTH",
"151 14 OFFCURVE",
"92 71 OFFCURVE",
"92 161 CURVE SMOOTH",
"92 500 LINE"
);
}
);
width = 488;
},
{
layerId = "4E2227F3-52E4-4048-A8EE-327B486EF0A4";
paths = (
{
closed = 1;
nodes = (
"434 0 LINE",
"434 520 LINE",
"246 520 LINE",
"246 0 LINE"
);
},
{
closed = 1;
nodes = (
"14 520 LINE",
"14 144 LINE SMOOTH",
"14 31 OFFCURVE",
"84 -8 OFFCURVE",
"154 -8 CURVE SMOOTH",
"210 -8 OFFCURVE",
"276 8 OFFCURVE",
"275 185 CURVE",
"246 185 LINE",
"246 164 OFFCURVE",
"238 153 OFFCURVE",
"223 153 CURVE SMOOTH",
"209 153 OFFCURVE",
"202 164 OFFCURVE",
"202 185 CURVE SMOOTH",
"202 520 LINE"
);
}
);
width = 450;
},
{
layerId = "FFFA8D72-12AC-4CE0-B2CA-57A29829F4DA";
paths = (
{
closed = 1;
nodes = (
"503 0 LINE",
"503 520 LINE",
"315 520 LINE",
"315 0 LINE"
);
},
{
closed = 1;
nodes = (
"14 520 LINE",
"14 152 LINE SMOOTH",
"14 41 OFFCURVE",
"104 -8 OFFCURVE",
"205 -8 CURVE SMOOTH",
"305 -8 OFFCURVE",
"369 57 OFFCURVE",
"369 220 CURVE",
"315 220 LINE",
"315 180 OFFCURVE",
"292 153 OFFCURVE",
"258 153 CURVE SMOOTH",
"224 153 OFFCURVE",
"202 179 OFFCURVE",
"202 219 CURVE SMOOTH",
"202 520 LINE"
);
}
);
width = 519;
},
{
layerId = "DCBE1F7B-116A-43E0-B7B4-8657BA77D8B5";
paths = (
{
closed = 1;
nodes = (
"317 0 LINE",
"317 500 LINE",
"295 500 LINE",
"295 0 LINE"
);
},
{
closed = 1;
nodes = (
"56 500 LINE",
"56 138 LINE SMOOTH",
"56 41 OFFCURVE",
"102 -7 OFFCURVE",
"181 -7 CURVE SMOOTH",
"259 -7 OFFCURVE",
"311 52 OFFCURVE",
"311 154 CURVE",
"295 154 LINE",
"295 67 OFFCURVE",
"252 14 OFFCURVE",
"184 14 CURVE SMOOTH",
"117 14 OFFCURVE",
"78 57 OFFCURVE",
"78 143 CURVE SMOOTH",
"78 500 LINE"
);
}
);
width = 381;
}
);
leftKerningGroup = u;
unicode = 0075;
},
{
glyphname = v;
lastChange = "2017-02-16 04:19:28 +0000";
layers = (
{
layerId = "262880E7-CFE1-4BDA-902E-E24798F3240A";
paths = (
{
closed = 1;
nodes = (
"224 0 LINE",
"395 500 LINE",
"370 500 LINE",
"213 33 LINE",
"55 500 LINE",
"30 500 LINE",
"202 0 LINE"
);
}
);
width = 435;
},
{
layerId = "4E2227F3-52E4-4048-A8EE-327B486EF0A4";
paths = (
{
closed = 1;
nodes = (
"339 -2 LINE",
"464 518 LINE",
"260 520 LINE",
"235 256 LINE",
"210 520 LINE",
"6 520 LINE",
"131 0 LINE"
);
}
);
width = 472;
},
{
layerId = "FFFA8D72-12AC-4CE0-B2CA-57A29829F4DA";
paths = (
{
closed = 1;
nodes = (
"373 -2 LINE",
"532 518 LINE",
"328 520 LINE",
"269 252 LINE",
"210 520 LINE",
"6 520 LINE",
"166 0 LINE"
);
}
);
width = 540;
},
{
layerId = "DCBE1F7B-116A-43E0-B7B4-8657BA77D8B5";
paths = (
{
closed = 1;
nodes = (
"178 0 LINE",
"307 500 LINE",
"282 500 LINE",
"166 33 LINE",
"49 500 LINE",
"24 500 LINE",
"155 0 LINE"
);
}
);
width = 339;
}
);
leftKerningGroup = v;
rightKerningGroup = v;
unicode = 0076;
},
{
glyphname = w;
lastChange = "2017-02-16 04:19:28 +0000";
layers = (
{
layerId = "262880E7-CFE1-4BDA-902E-E24798F3240A";
paths = (
{
closed = 1;
nodes = (
"194 0 LINE",
"326 461 LINE",
"458 0 LINE",
"480 0 LINE",
"624 500 LINE",
"602 500 LINE",
"469 27 LINE",
"337 500 LINE",
"315 500 LINE",
"183 27 LINE",
"52 500 LINE",
"30 500 LINE",
"172 0 LINE"
);
}
);
width = 664;
},
{
layerId = "4E2227F3-52E4-4048-A8EE-327B486EF0A4";
paths = (
{
closed = 1;
nodes = (
"294 -2 LINE",
"321 211 LINE",
"350 0 LINE",
"531 -2 LINE",
"643 518 LINE",
"465 520 LINE",
"438 256 LINE",
"404 520 LINE",
"243 520 LINE",
"215 256 LINE",
"187 520 LINE",
"6 520 LINE",
"120 0 LINE"
);
}
);
width = 651;
},
{
associatedMasterId = "4E2227F3-52E4-4048-A8EE-327B486EF0A4";
layerId = "6BA1A2A9-BE91-41BC-8363-5886C86B1880";
name = "{100,100}";
paths = (
{
closed = 1;
nodes = (
"242 -1 LINE",
"314 361 LINE",
"392 0 LINE",
"487 -1 LINE",
"614 508 LINE",
"510 509 LINE",
"440 150 LINE",
"360 509 LINE",
"261 509 LINE",
"192 150 LINE",
"119 509 LINE",
"16 509 LINE",
"142 0 LINE"
);
}
);
width = 634;
},
{
associatedMasterId = "262880E7-CFE1-4BDA-902E-E24798F3240A";
layerId = "0E71CFCD-0B5B-44D0-B25D-1766045E780E";
name = "{100,100}";
paths = (
{
closed = 1;
nodes = (
"242 -1 LINE",
"314 361 LINE",
"392 0 LINE",
"487 -1 LINE",
"614 508 LINE",
"510 509 LINE",
"440 150 LINE",
"360 509 LINE",
"261 509 LINE",
"192 150 LINE",
"119 509 LINE",
"16 509 LINE",
"142 0 LINE"
);
}
);
width = 634;
},
{
associatedMasterId = "FFFA8D72-12AC-4CE0-B2CA-57A29829F4DA";
layerId = "663890CE-879E-4110-A274-BE1D7F03E044";
name = "{100,100}";
paths = (
{
closed = 1;
nodes = (
"242 -1 LINE",
"314 361 LINE",
"392 0 LINE",
"487 -1 LINE",
"614 508 LINE",
"510 509 LINE",
"440 150 LINE",
"360 509 LINE",
"261 509 LINE",
"192 150 LINE",
"119 509 LINE",
"16 509 LINE",
"142 0 LINE"
);
}
);
width = 634;
},
{
layerId = "FFFA8D72-12AC-4CE0-B2CA-57A29829F4DA";
paths = (
{
closed = 1;
nodes = (
"344 -2 LINE",
"377 213 LINE",
"431 0 LINE",
"620 -2 LINE",
"756 518 LINE",
"575 520 LINE",
"519 251 LINE",
"460 520 LINE",
"289 520 LINE",
"242 251 LINE",
"189 520 LINE",
"6 520 LINE",
"144 0 LINE"
);
}
);
width = 764;
},
{
layerId = "DCBE1F7B-116A-43E0-B7B4-8657BA77D8B5";
paths = (
{
closed = 1;
nodes = (
"155 0 LINE",
"251 461 LINE",
"349 0 LINE",
"371 0 LINE",
"481 500 LINE",
"459 500 LINE",
"360 27 LINE",
"262 500 LINE",
"240 500 LINE",
"143 27 LINE",
"46 500 LINE",
"24 500 LINE",
"132 0 LINE"
);
}
);
width = 513;
}
);
leftKerningGroup = v;
rightKerningGroup = v;
unicode = 0077;
},
{
glyphname = x;
lastChange = "2017-02-16 04:19:28 +0000";
layers = (
{
layerId = "262880E7-CFE1-4BDA-902E-E24798F3240A";
paths = (
{
closed = 1;
nodes = (
"55 0 LINE",
"217 233 LINE",
"378 0 LINE",
"404 0 LINE",
"228 250 LINE",
"404 500 LINE",
"378 500 LINE",
"217 267 LINE",
"55 500 LINE",
"30 500 LINE",
"206 250 LINE",
"30 0 LINE"
);
}
);
width = 444;
},
{
layerId = "4E2227F3-52E4-4048-A8EE-327B486EF0A4";
paths = (
{
closed = 1;
nodes = (
"200 0 LINE",
"231 105 LINE",
"262 0 LINE",
"456 0 LINE",
"326 260 LINE",
"456 520 LINE",
"262 520 LINE",
"231 420 LINE",
"200 520 LINE",
"6 520 LINE",
"136 260 LINE",
"6 0 LINE"
);
}
);
width = 464;
},
{
layerId = "FFFA8D72-12AC-4CE0-B2CA-57A29829F4DA";
paths = (
{
closed = 1;
nodes = (
"200 0 LINE",
"266 105 LINE",
"332 0 LINE",
"526 0 LINE",
"361 260 LINE",
"526 520 LINE",
"332 520 LINE",
"266 420 LINE",
"200 520 LINE",
"6 520 LINE",
"171 260 LINE",
"6 0 LINE"
);
}
);
width = 534;
},
{
layerId = "DCBE1F7B-116A-43E0-B7B4-8657BA77D8B5";
paths = (
{
closed = 1;
nodes = (
"49 0 LINE",
"169 233 LINE",
"289 0 LINE",
"313 0 LINE",
"180 250 LINE",
"313 500 LINE",
"289 500 LINE",
"169 267 LINE",
"49 500 LINE",
"24 500 LINE",
"158 250 LINE",
"24 0 LINE"
);
}
);
width = 345;
}
);
leftKerningGroup = x;
unicode = 0078;
},
{
glyphname = y;
lastChange = "2017-02-16 04:19:28 +0000";
layers = (
{
layerId = "262880E7-CFE1-4BDA-902E-E24798F3240A";
paths = (
{
closed = 1;
nodes = (
"72 -200 LINE",
"137 -200 OFFCURVE",
"163 -185 OFFCURVE",
"205 -62 CURVE SMOOTH",
"399 500 LINE",
"377 500 LINE",
"216 27 LINE",
"52 500 LINE",
"30 500 LINE",
"205 0 LINE",
"158 -147 OFFCURVE",
"145 -178 OFFCURVE",
"72 -179 CURVE",
"58 -179 LINE",
"58 -200 LINE"
);
}
);
width = 439;
},
{
layerId = "4E2227F3-52E4-4048-A8EE-327B486EF0A4";
paths = (
{
closed = 1;
nodes = (
"40 -199 LINE",
"247 -199 OFFCURVE",
"284 -140 OFFCURVE",
"323 -2 CURVE",
"453 518 LINE",
"251 520 LINE",
"230 252 LINE",
"207 520 LINE",
"6 520 LINE",
"135 0 LINE",
"143 -40 OFFCURVE",
"105 -45 OFFCURVE",
"37 -45 CURVE",
"28 -45 LINE",
"28 -199 LINE"
);
}
);
width = 461;
},
{
layerId = "FFFA8D72-12AC-4CE0-B2CA-57A29829F4DA";
paths = (
{
closed = 1;
nodes = (
"48 -199 LINE",
"264 -199 OFFCURVE",
"306 -140 OFFCURVE",
"353 -2 CURVE",
"522 518 LINE",
"321 520 LINE",
"265 252 LINE",
"206 520 LINE",
"6 520 LINE",
"170 0 LINE",
"167 -40 OFFCURVE",
"128 -45 OFFCURVE",
"45 -45 CURVE",
"34 -45 LINE",
"34 -199 LINE"
);
}
);
width = 530;
},
{
layerId = "DCBE1F7B-116A-43E0-B7B4-8657BA77D8B5";
paths = (
{
closed = 1;
nodes = (
"56 -200 LINE",
"110 -200 OFFCURVE",
"131 -185 OFFCURVE",
"164 -62 CURVE SMOOTH",
"311 500 LINE",
"288 500 LINE",
"168 27 LINE",
"47 500 LINE",
"24 500 LINE",
"157 0 LINE",
"122 -147 OFFCURVE",
"112 -178 OFFCURVE",
"56 -179 CURVE",
"45 -179 LINE",
"45 -200 LINE"
);
}
);
width = 343;
}
);
leftKerningGroup = v;
rightKerningGroup = v;
unicode = 0079;
},
{
glyphname = z;
lastChange = "2017-02-16 04:19:28 +0000";
layers = (
{
layerId = "262880E7-CFE1-4BDA-902E-E24798F3240A";
paths = (
{
closed = 1;
nodes = (
"385 0 LINE",
"385 21 LINE",
"64 21 LINE",
"388 479 LINE",
"388 500 LINE",
"43 500 LINE",
"43 479 LINE",
"364 479 LINE",
"40 21 LINE",
"40 0 LINE"
);
}
);
width = 428;
},
{
layerId = "4E2227F3-52E4-4048-A8EE-327B486EF0A4";
paths = (
{
closed = 1;
nodes = (
"373 0 LINE",
"373 170 LINE",
"222 170 LINE",
"364 350 LINE",
"364 520 LINE",
"15 520 LINE",
"15 350 LINE",
"140 350 LINE",
"8 170 LINE",
"8 0 LINE"
);
}
);
width = 381;
},
{
layerId = "FFFA8D72-12AC-4CE0-B2CA-57A29829F4DA";
paths = (
{
closed = 1;
nodes = (
"439 0 LINE",
"439 170 LINE",
"222 170 LINE",
"431 350 LINE",
"431 520 LINE",
"15 520 LINE",
"15 350 LINE",
"208 350 LINE",
"8 170 LINE",
"8 0 LINE"
);
}
);
width = 447;
},
{
layerId = "DCBE1F7B-116A-43E0-B7B4-8657BA77D8B5";
paths = (
{
closed = 1;
nodes = (
"298 0 LINE",
"298 21 LINE",
"57 21 LINE",
"300 479 LINE",
"300 500 LINE",
"34 500 LINE",
"34 479 LINE",
"275 479 LINE",
"32 21 LINE",
"32 0 LINE"
);
}
);
width = 332;
}
);
leftKerningGroup = z;
unicode = 007A;
},
{
glyphname = a.alt;
lastChange = "2017-01-20 08:41:53 +0000";
layers = (
{
components = (
{
name = b.bowl;
transform = "{-1, 0, 0, 1, 415, 0}";
}
);
layerId = "262880E7-CFE1-4BDA-902E-E24798F3240A";
paths = (
{
closed = 1;
nodes = (
"418 0 LINE",
"418 500 LINE",
"396 500 LINE",
"396 0 LINE"
);
}
);
width = 455;
},
{
components = (
{
name = b.bowl;
transform = "{-1, 0, 0, 1, 281, 0}";
}
);
layerId = "4E2227F3-52E4-4048-A8EE-327B486EF0A4";
paths = (
{
closed = 1;
nodes = (
"433 0 LINE",
"433 520 LINE",
"245 520 LINE",
"245 0 LINE"
);
}
);
width = 449;
},
{
components = (
{
name = b.bowl;
transform = "{-1, 0, 0, 1, 365, 0}";
}
);
layerId = "FFFA8D72-12AC-4CE0-B2CA-57A29829F4DA";
paths = (
{
closed = 1;
nodes = (
"514 0 LINE",
"514 520 LINE",
"326 520 LINE",
"326 0 LINE"
);
}
);
width = 449;
},
{
components = (
{
name = b.bowl;
transform = "{-1, 0, 0, 1, 315, 0}";
}
);
layerId = "DCBE1F7B-116A-43E0-B7B4-8657BA77D8B5";
paths = (
{
closed = 1;
nodes = (
"321 0 LINE",
"321 500 LINE",
"299 500 LINE",
"299 0 LINE"
);
}
);
width = 455;
}
);
leftKerningGroup = a;
rightKerningGroup = a;
},
{
color = 3;
export = 0;
glyphname = b.bowl;
lastChange = "2017-02-08 03:57:19 +0000";
layers = (
{
layerId = "262880E7-CFE1-4BDA-902E-E24798F3240A";
paths = (
{
closed = 1;
nodes = (
"277 -8 OFFCURVE",
"342 62 OFFCURVE",
"342 165 CURVE SMOOTH",
"342 335 LINE SMOOTH",
"342 438 OFFCURVE",
"279 508 OFFCURVE",
"172 508 CURVE SMOOTH",
"65 508 OFFCURVE",
"0 434 OFFCURVE",
"0 335 CURVE SMOOTH",
"0 165 LINE SMOOTH",
"0 60 OFFCURVE",
"70 -8 OFFCURVE",
"170 -8 CURVE SMOOTH"
);
},
{
closed = 1;
nodes = (
"79 13 OFFCURVE",
"19 74 OFFCURVE",
"19 162 CURVE SMOOTH",
"19 338 LINE SMOOTH",
"19 426 OFFCURVE",
"79 487 OFFCURVE",
"170 487 CURVE SMOOTH",
"264 487 OFFCURVE",
"320 426 OFFCURVE",
"320 338 CURVE SMOOTH",
"320 162 LINE SMOOTH",
"320 74 OFFCURVE",
"264 13 OFFCURVE",
"170 13 CURVE SMOOTH"
);
}
);
width = 342;
},
{
layerId = "4E2227F3-52E4-4048-A8EE-327B486EF0A4";
paths = (
{
closed = 1;
nodes = (
"237 -8 OFFCURVE",
"267 56 OFFCURVE",
"267 177 CURVE SMOOTH",
"267 343 LINE SMOOTH",
"267 464 OFFCURVE",
"237 528 OFFCURVE",
"126 528 CURVE SMOOTH",
"91 528 OFFCURVE",
"0 513 OFFCURVE",
"0 323 CURVE SMOOTH",
"0 197 LINE",
"-4 7 OFFCURVE",
"91 -8 OFFCURVE",
"126 -8 CURVE SMOOTH"
);
},
{
closed = 1;
nodes = (
"42 153 OFFCURVE",
"34 164 OFFCURVE",
"34 186 CURVE SMOOTH",
"34 334 LINE SMOOTH",
"34 356 OFFCURVE",
"42 367 OFFCURVE",
"56 367 CURVE SMOOTH",
"71 367 OFFCURVE",
"79 356 OFFCURVE",
"79 334 CURVE SMOOTH",
"79 186 LINE SMOOTH",
"79 164 OFFCURVE",
"71 153 OFFCURVE",
"56 153 CURVE SMOOTH"
);
}
);
width = 267;
},
{
associatedMasterId = "262880E7-CFE1-4BDA-902E-E24798F3240A";
layerId = "49A4F55C-B681-47B2-A21D-C788909AF142";
name = "{100,5}";
paths = (
{
closed = 1;
nodes = (
"274 -8 OFFCURVE",
"350 64 OFFCURVE",
"350 172 CURVE SMOOTH",
"350 338 LINE SMOOTH",
"350 445 OFFCURVE",
"276 517 OFFCURVE",
"164 517 CURVE SMOOTH",
"55 517 OFFCURVE",
"-17 435 OFFCURVE",
"-17 313 CURVE SMOOTH",
"-17 196 LINE SMOOTH",
"-17 74 OFFCURVE",
"54 -8 OFFCURVE",
"161 -8 CURVE SMOOTH"
);
},
{
closed = 1;
nodes = (
"81 78 OFFCURVE",
"38 120 OFFCURVE",
"38 183 CURVE SMOOTH",
"38 326 LINE SMOOTH",
"38 389 OFFCURVE",
"81 431 OFFCURVE",
"145 431 CURVE SMOOTH",
"209 431 OFFCURVE",
"251 389 OFFCURVE",
"251 326 CURVE SMOOTH",
"251 183 LINE SMOOTH",
"251 120 OFFCURVE",
"209 78 OFFCURVE",
"145 78 CURVE SMOOTH"
);
}
);
width = 350;
},
{
layerId = "FFFA8D72-12AC-4CE0-B2CA-57A29829F4DA";
paths = (
{
closed = 1;
nodes = (
"286 -8 OFFCURVE",
"360 74 OFFCURVE",
"360 232 CURVE SMOOTH",
"360 288 LINE SMOOTH",
"360 446 OFFCURVE",
"287 528 OFFCURVE",
"166 528 CURVE SMOOTH",
"56 528 OFFCURVE",
"0 420 OFFCURVE",
"0 280 CURVE SMOOTH",
"0 240 LINE SMOOTH",
"0 136 OFFCURVE",
"35 -8 OFFCURVE",
"162 -8 CURVE SMOOTH"
);
},
{
closed = 1;
nodes = (
"82 153 OFFCURVE",
"59 182 OFFCURVE",
"59 225 CURVE SMOOTH",
"59 295 LINE SMOOTH",
"59 338 OFFCURVE",
"82 367 OFFCURVE",
"116 367 CURVE SMOOTH",
"150 367 OFFCURVE",
"172 338 OFFCURVE",
"172 295 CURVE SMOOTH",
"172 225 LINE SMOOTH",
"172 182 OFFCURVE",
"150 153 OFFCURVE",
"116 153 CURVE SMOOTH"
);
}
);
width = 360;
},
{
layerId = "DCBE1F7B-116A-43E0-B7B4-8657BA77D8B5";
paths = (
{
closed = 1;
nodes = (
"207 -8 OFFCURVE",
"260 50 OFFCURVE",
"260 138 CURVE SMOOTH",
"260 362 LINE SMOOTH",
"260 450 OFFCURVE",
"208 508 OFFCURVE",
"130 508 CURVE SMOOTH",
"51 508 OFFCURVE",
"-2 450 OFFCURVE",
"-2 362 CURVE SMOOTH",
"-2 138 LINE SMOOTH",
"-2 50 OFFCURVE",
"50 -8 OFFCURVE",
"128 -8 CURVE SMOOTH"
);
},
{
closed = 1;
nodes = (
"60 13 OFFCURVE",
"15 62 OFFCURVE",
"15 135 CURVE SMOOTH",
"15 365 LINE SMOOTH",
"15 438 OFFCURVE",
"60 487 OFFCURVE",
"127 487 CURVE SMOOTH",
"194 487 OFFCURVE",
"238 438 OFFCURVE",
"238 365 CURVE SMOOTH",
"238 135 LINE SMOOTH",
"238 62 OFFCURVE",
"194 13 OFFCURVE",
"127 13 CURVE SMOOTH"
);
}
);
width = 260;
}
);
},
{
export = 0;
glyphname = n.curve;
lastChange = "2017-02-10 22:55:49 +0000";
layers = (
{
layerId = "262880E7-CFE1-4BDA-902E-E24798F3240A";
paths = (
{
closed = 1;
nodes = (
"334 0 LINE",
"334 340 LINE SMOOTH",
"334 439 OFFCURVE",
"267 507 OFFCURVE",
"171 507 CURVE SMOOTH",
"68 507 OFFCURVE",
"0 441 OFFCURVE",
"0 339 CURVE",
"18 339 LINE",
"18 426 OFFCURVE",
"77 486 OFFCURVE",
"168 486 CURVE SMOOTH",
"253 486 OFFCURVE",
"312 425 OFFCURVE",
"312 337 CURVE SMOOTH",
"312 0 LINE"
);
}
);
width = 334;
},
{
layerId = "4E2227F3-52E4-4048-A8EE-327B486EF0A4";
paths = (
{
closed = 1;
nodes = (
"268 0 LINE",
"268 348 LINE SMOOTH",
"268 459 OFFCURVE",
"227 528 OFFCURVE",
"126 528 CURVE SMOOTH",
"89 528 OFFCURVE",
"-1 515 OFFCURVE",
"0 335 CURVE",
"36 335 LINE",
"36 356 OFFCURVE",
"44 367 OFFCURVE",
"59 367 CURVE SMOOTH",
"73 367 OFFCURVE",
"80 356 OFFCURVE",
"80 335 CURVE SMOOTH",
"80 0 LINE"
);
}
);
width = 268;
},
{
layerId = "FFFA8D72-12AC-4CE0-B2CA-57A29829F4DA";
paths = (
{
closed = 1;
nodes = (
"340 0 LINE",
"340 348 LINE SMOOTH",
"340 459 OFFCURVE",
"259 528 OFFCURVE",
"158 528 CURVE SMOOTH",
"58 528 OFFCURVE",
"-20 460 OFFCURVE",
"-20 300 CURVE",
"39 300 LINE",
"39 340 OFFCURVE",
"62 367 OFFCURVE",
"96 367 CURVE SMOOTH",
"130 367 OFFCURVE",
"152 340 OFFCURVE",
"152 300 CURVE SMOOTH",
"152 0 LINE"
);
}
);
width = 332;
},
{
layerId = "DCBE1F7B-116A-43E0-B7B4-8657BA77D8B5";
paths = (
{
closed = 1;
nodes = (
"254 0 LINE",
"254 357 LINE SMOOTH",
"254 451 OFFCURVE",
"208 507 OFFCURVE",
"129 507 CURVE SMOOTH",
"51 507 OFFCURVE",
"-1 448 OFFCURVE",
"-1 346 CURVE",
"15 346 LINE",
"15 433 OFFCURVE",
"58 486 OFFCURVE",
"126 486 CURVE SMOOTH",
"193 486 OFFCURVE",
"232 437 OFFCURVE",
"232 354 CURVE SMOOTH",
"232 0 LINE"
);
}
);
width = 254;
}
);
},
{
glyphname = zero;
lastChange = "2017-02-16 04:19:27 +0000";
layers = (
{
layerId = "262880E7-CFE1-4BDA-902E-E24798F3240A";
paths = (
{
closed = 1;
nodes = (
"394 -9 OFFCURVE",
"474 56 OFFCURVE",
"474 154 CURVE SMOOTH",
"474 546 LINE SMOOTH",
"474 644 OFFCURVE",
"394 709 OFFCURVE",
"276 709 CURVE SMOOTH",
"158 709 OFFCURVE",
"80 644 OFFCURVE",
"80 546 CURVE SMOOTH",
"80 154 LINE SMOOTH",
"80 56 OFFCURVE",
"158 -9 OFFCURVE",
"276 -9 CURVE SMOOTH"
);
},
{
closed = 1;
nodes = (
"171 12 OFFCURVE",
"102 68 OFFCURVE",
"102 152 CURVE SMOOTH",
"102 548 LINE SMOOTH",
"102 632 OFFCURVE",
"171 688 OFFCURVE",
"276 688 CURVE SMOOTH",
"383 688 OFFCURVE",
"452 632 OFFCURVE",
"452 548 CURVE SMOOTH",
"452 152 LINE SMOOTH",
"452 68 OFFCURVE",
"383 12 OFFCURVE",
"276 12 CURVE SMOOTH"
);
}
);
width = 554;
},
{
layerId = "4E2227F3-52E4-4048-A8EE-327B486EF0A4";
paths = (
{
closed = 1;
nodes = (
"358 -12 OFFCURVE",
"443 75 OFFCURVE",
"443 206 CURVE SMOOTH",
"443 494 LINE SMOOTH",
"443 625 OFFCURVE",
"358 712 OFFCURVE",
"229 712 CURVE SMOOTH",
"101 712 OFFCURVE",
"16 625 OFFCURVE",
"16 494 CURVE SMOOTH",
"16 206 LINE SMOOTH",
"16 75 OFFCURVE",
"101 -12 OFFCURVE",
"229 -12 CURVE SMOOTH"
);
},
{
closed = 1;
nodes = (
"214 149 OFFCURVE",
"204 167 OFFCURVE",
"204 195 CURVE SMOOTH",
"204 505 LINE SMOOTH",
"204 533 OFFCURVE",
"214 551 OFFCURVE",
"229 551 CURVE SMOOTH",
"245 551 OFFCURVE",
"255 533 OFFCURVE",
"255 505 CURVE SMOOTH",
"255 195 LINE SMOOTH",
"255 167 OFFCURVE",
"245 149 OFFCURVE",
"229 149 CURVE SMOOTH"
);
}
);
width = 459;
},
{
layerId = "FFFA8D72-12AC-4CE0-B2CA-57A29829F4DA";
paths = (
{
closed = 1;
nodes = (
"418 -12 OFFCURVE",
"518 75 OFFCURVE",
"518 206 CURVE SMOOTH",
"518 494 LINE SMOOTH",
"518 625 OFFCURVE",
"418 712 OFFCURVE",
"266 712 CURVE SMOOTH",
"116 712 OFFCURVE",
"16 625 OFFCURVE",
"16 494 CURVE SMOOTH",
"16 206 LINE SMOOTH",
"16 75 OFFCURVE",
"116 -12 OFFCURVE",
"266 -12 CURVE SMOOTH"
);
},
{
closed = 1;
nodes = (
"229 149 OFFCURVE",
"204 179 OFFCURVE",
"204 207 CURVE SMOOTH",
"204 493 LINE SMOOTH",
"204 521 OFFCURVE",
"229 551 OFFCURVE",
"266 551 CURVE SMOOTH",
"306 551 OFFCURVE",
"331 521 OFFCURVE",
"331 493 CURVE SMOOTH",
"331 207 LINE SMOOTH",
"331 179 OFFCURVE",
"306 149 OFFCURVE",
"266 149 CURVE SMOOTH"
);
}
);
width = 534;
},
{
layerId = "DCBE1F7B-116A-43E0-B7B4-8657BA77D8B5";
paths = (
{
closed = 1;
nodes = (
"306 -9 OFFCURVE",
"368 56 OFFCURVE",
"368 154 CURVE SMOOTH",
"368 546 LINE SMOOTH",
"368 644 OFFCURVE",
"306 709 OFFCURVE",
"215 709 CURVE SMOOTH",
"124 709 OFFCURVE",
"64 644 OFFCURVE",
"64 546 CURVE SMOOTH",
"64 154 LINE SMOOTH",
"64 56 OFFCURVE",
"124 -9 OFFCURVE",
"215 -9 CURVE SMOOTH"
);
},
{
closed = 1;
nodes = (
"138 12 OFFCURVE",
"86 68 OFFCURVE",
"86 152 CURVE SMOOTH",
"86 548 LINE SMOOTH",
"86 632 OFFCURVE",
"138 688 OFFCURVE",
"215 688 CURVE SMOOTH",
"294 688 OFFCURVE",
"346 632 OFFCURVE",
"346 548 CURVE SMOOTH",
"346 152 LINE SMOOTH",
"346 68 OFFCURVE",
"294 12 OFFCURVE",
"215 12 CURVE SMOOTH"
);
}
);
width = 432;
}
);
unicode = 0030;
},
{
glyphname = one;
lastChange = "2017-02-16 04:19:27 +0000";
layers = (
{
layerId = "262880E7-CFE1-4BDA-902E-E24798F3240A";
paths = (
{
closed = 1;
nodes = (
"204 0 LINE",
"204 700 LINE",
"182 700 LINE",
"182 0 LINE"
);
},
{
closed = 1;
nodes = (
"90 637 LINE",
"182 669 LINE",
"182 700 LINE",
"90 658 LINE"
);
}
);
width = 304;
},
{
layerId = "4E2227F3-52E4-4048-A8EE-327B486EF0A4";
paths = (
{
closed = 1;
nodes = (
"253 0 LINE",
"253 700 LINE",
"65 700 LINE",
"65 0 LINE"
);
},
{
closed = 1;
nodes = (
"18 529 LINE",
"65 529 LINE",
"65 700 LINE",
"18 673 LINE"
);
}
);
width = 273;
},
{
layerId = "FFFA8D72-12AC-4CE0-B2CA-57A29829F4DA";
paths = (
{
closed = 1;
nodes = (
"272 0 LINE",
"272 700 LINE",
"84 700 LINE",
"84 0 LINE"
);
},
{
closed = 1;
nodes = (
"18 529 LINE",
"84 529 LINE",
"84 700 LINE",
"18 673 LINE"
);
}
);
width = 292;
},
{
layerId = "DCBE1F7B-116A-43E0-B7B4-8657BA77D8B5";
paths = (
{
closed = 1;
nodes = (
"163 0 LINE",
"163 700 LINE",
"141 700 LINE",
"141 0 LINE"
);
},
{
closed = 1;
nodes = (
"72 637 LINE",
"141 669 LINE",
"141 700 LINE",
"72 658 LINE"
);
}
);
width = 243;
}
);
unicode = 0031;
},
{
glyphname = two;
lastChange = "2017-02-16 04:19:27 +0000";
layers = (
{
layerId = "262880E7-CFE1-4BDA-902E-E24798F3240A";
paths = (
{
closed = 1;
nodes = (
"421 0 LINE",
"421 21 LINE",
"96 21 LINE",
"317 323 LINE SMOOTH",
"381 410 OFFCURVE",
"413 485 OFFCURVE",
"413 544 CURVE SMOOTH",
"413 642 OFFCURVE",
"343 708 OFFCURVE",
"239 708 CURVE SMOOTH",
"138 708 OFFCURVE",
"70 642 OFFCURVE",
"70 544 CURVE SMOOTH",
"70 500 LINE",
"92 500 LINE",
"92 544 LINE",
"91 630 OFFCURVE",
"150 687 OFFCURVE",
"239 687 CURVE SMOOTH",
"330 687 OFFCURVE",
"391 630 OFFCURVE",
"391 544 CURVE SMOOTH",
"391 490 OFFCURVE",
"360 420 OFFCURVE",
"298 335 CURVE SMOOTH",
"70 21 LINE",
"70 0 LINE"
);
}
);
width = 471;
},
{
layerId = "4E2227F3-52E4-4048-A8EE-327B486EF0A4";
paths = (
{
closed = 1;
nodes = (
"453 0 LINE",
"453 170 LINE",
"275 170 LINE",
"393 311 LINE",
"442 382 OFFCURVE",
"447 425 OFFCURVE",
"447 520 CURVE SMOOTH",
"447 639 OFFCURVE",
"356 708 OFFCURVE",
"230 708 CURVE SMOOTH",
"108 708 OFFCURVE",
"21 640 OFFCURVE",
"14 520 CURVE",
"14 455 LINE",
"204 455 LINE",
"204 503 LINE",
"204 524 OFFCURVE",
"215 538 OFFCURVE",
"231 538 CURVE SMOOTH",
"246 538 OFFCURVE",
"257 524 OFFCURVE",
"257 503 CURVE SMOOTH",
"257 457 OFFCURVE",
"244 423 OFFCURVE",
"193 361 CURVE",
"18 170 LINE",
"18 0 LINE"
);
}
);
width = 463;
},
{
layerId = "FFFA8D72-12AC-4CE0-B2CA-57A29829F4DA";
paths = (
{
closed = 1;
nodes = (
"518 0 LINE",
"518 170 LINE",
"274 170 LINE",
"437 311 LINE",
"499 382 OFFCURVE",
"511 425 OFFCURVE",
"511 520 CURVE SMOOTH",
"511 633 OFFCURVE",
"411 708 OFFCURVE",
"261 708 CURVE SMOOTH",
"119 708 OFFCURVE",
"21 633 OFFCURVE",
"14 520 CURVE",
"14 455 LINE",
"204 455 LINE",
"204 498 LINE",
"204 522 OFFCURVE",
"227 538 OFFCURVE",
"262 538 CURVE SMOOTH",
"297 538 OFFCURVE",
"321 522 OFFCURVE",
"321 498 CURVE SMOOTH",
"321 457 OFFCURVE",
"302 423 OFFCURVE",
"238 361 CURVE",
"18 170 LINE",
"18 0 LINE"
);
}
);
width = 528;
},
{
layerId = "DCBE1F7B-116A-43E0-B7B4-8657BA77D8B5";
paths = (
{
closed = 1;
nodes = (
"328 0 LINE",
"328 21 LINE",
"83 21 LINE",
"250 323 LINE SMOOTH",
"298 410 OFFCURVE",
"322 485 OFFCURVE",
"322 544 CURVE SMOOTH",
"322 642 OFFCURVE",
"268 708 OFFCURVE",
"187 708 CURVE SMOOTH",
"109 708 OFFCURVE",
"56 642 OFFCURVE",
"56 544 CURVE SMOOTH",
"56 500 LINE",
"79 500 LINE",
"79 544 LINE",
"78 630 OFFCURVE",
"121 687 OFFCURVE",
"187 687 CURVE SMOOTH",
"255 687 OFFCURVE",
"300 630 OFFCURVE",
"300 544 CURVE SMOOTH",
"300 490 OFFCURVE",
"276 420 OFFCURVE",
"229 335 CURVE SMOOTH",
"56 21 LINE",
"56 0 LINE"
);
}
);
width = 368;
}
);
unicode = 0032;
},
{
glyphname = three;
lastChange = "2017-02-16 04:19:27 +0000";
layers = (
{
layerId = "262880E7-CFE1-4BDA-902E-E24798F3240A";
paths = (
{
closed = 1;
nodes = (
"70 700 LINE",
"70 679 LINE",
"392 679 LINE",
"200 416 LINE",
"211 404 LINE",
"221 406 OFFCURVE",
"232 407 OFFCURVE",
"243 407 CURVE SMOOTH",
"333 407 OFFCURVE",
"393 350 OFFCURVE",
"393 265 CURVE SMOOTH",
"393 155 LINE SMOOTH",
"393 70 OFFCURVE",
"333 13 OFFCURVE",
"243 13 CURVE SMOOTH",
"153 13 OFFCURVE",
"92 70 OFFCURVE",
"92 155 CURVE SMOOTH",
"92 201 LINE",
"70 201 LINE",
"70 158 LINE SMOOTH",
"70 58 OFFCURVE",
"139 -8 OFFCURVE",
"243 -8 CURVE SMOOTH",
"347 -8 OFFCURVE",
"415 58 OFFCURVE",
"415 158 CURVE SMOOTH",
"415 262 LINE SMOOTH",
"415 364 OFFCURVE",
"342 446 OFFCURVE",
"229 426 CURVE",
"231 419 LINE",
"418 679 LINE",
"418 700 LINE"
);
}
);
width = 498;
},
{
layerId = "4E2227F3-52E4-4048-A8EE-327B486EF0A4";
paths = (
{
closed = 1;
nodes = (
"30 700 LINE",
"30 530 LINE",
"213 530 LINE",
"84 417 LINE",
"185 312 LINE",
"201 333 OFFCURVE",
"211 340 OFFCURVE",
"227 340 CURVE SMOOTH",
"243 340 OFFCURVE",
"253 327 OFFCURVE",
"253 308 CURVE SMOOTH",
"253 185 LINE SMOOTH",
"253 166 OFFCURVE",
"243 153 OFFCURVE",
"227 153 CURVE SMOOTH",
"212 153 OFFCURVE",
"202 166 OFFCURVE",
"202 185 CURVE SMOOTH",
"202 232 LINE",
"14 232 LINE",
"14 172 LINE SMOOTH",
"14 59 OFFCURVE",
"99 -7 OFFCURVE",
"227 -7 CURVE SMOOTH",
"346 -7 OFFCURVE",
"431 59 OFFCURVE",
"431 172 CURVE SMOOTH",
"431 276 LINE SMOOTH",
"431 373 OFFCURVE",
"354 447 OFFCURVE",
"265 405 CURVE",
"263 363 LINE",
"431 530 LINE",
"431 700 LINE"
);
}
);
width = 447;
},
{
layerId = "FFFA8D72-12AC-4CE0-B2CA-57A29829F4DA";
paths = (
{
closed = 1;
nodes = (
"30 700 LINE",
"30 530 LINE",
"279 530 LINE",
"111 417 LINE",
"211 312 LINE",
"225 329 OFFCURVE",
"245 340 OFFCURVE",
"259 340 CURVE SMOOTH",
"294 340 OFFCURVE",
"318 322 OFFCURVE",
"318 291 CURVE SMOOTH",
"318 203 LINE SMOOTH",
"318 173 OFFCURVE",
"294 153 OFFCURVE",
"259 153 CURVE SMOOTH",
"225 153 OFFCURVE",
"202 173 OFFCURVE",
"202 203 CURVE SMOOTH",
"202 232 LINE",
"14 232 LINE",
"14 172 LINE SMOOTH",
"14 65 OFFCURVE",
"112 -7 OFFCURVE",
"259 -7 CURVE SMOOTH",
"401 -7 OFFCURVE",
"496 65 OFFCURVE",
"496 172 CURVE SMOOTH",
"496 276 LINE SMOOTH",
"496 373 OFFCURVE",
"405 447 OFFCURVE",
"293 405 CURVE",
"292 363 LINE",
"496 530 LINE",
"496 700 LINE"
);
}
);
width = 512;
},
{
layerId = "DCBE1F7B-116A-43E0-B7B4-8657BA77D8B5";
paths = (
{
closed = 1;
nodes = (
"56 700 LINE",
"56 679 LINE",
"299 679 LINE",
"154 416 LINE",
"165 404 LINE",
"173 406 OFFCURVE",
"181 407 OFFCURVE",
"190 407 CURVE SMOOTH",
"257 407 OFFCURVE",
"301 350 OFFCURVE",
"301 265 CURVE SMOOTH",
"301 155 LINE SMOOTH",
"301 70 OFFCURVE",
"257 13 OFFCURVE",
"190 13 CURVE SMOOTH",
"123 13 OFFCURVE",
"78 70 OFFCURVE",
"78 155 CURVE SMOOTH",
"78 201 LINE",
"56 201 LINE",
"56 158 LINE SMOOTH",
"56 58 OFFCURVE",
"109 -8 OFFCURVE",
"190 -8 CURVE SMOOTH",
"270 -8 OFFCURVE",
"323 58 OFFCURVE",
"323 158 CURVE SMOOTH",
"323 262 LINE SMOOTH",
"323 364 OFFCURVE",
"267 446 OFFCURVE",
"181 426 CURVE",
"183 419 LINE",
"325 679 LINE",
"325 700 LINE"
);
}
);
width = 389;
}
);
unicode = 0033;
},
{
glyphname = four;
lastChange = "2017-02-16 04:19:27 +0000";
layers = (
{
layerId = "262880E7-CFE1-4BDA-902E-E24798F3240A";
paths = (
{
closed = 1;
nodes = (
"337 -7 LINE",
"359 -7 LINE",
"359 415 LINE",
"337 415 LINE"
);
},
{
closed = 1;
nodes = (
"62 223 LINE",
"282 700 LINE",
"260 700 LINE",
"40 223 LINE",
"40 202 LINE",
"413 202 LINE",
"413 223 LINE"
);
}
);
width = 453;
},
{
layerId = "4E2227F3-52E4-4048-A8EE-327B486EF0A4";
paths = (
{
closed = 1;
nodes = (
"283 0 LINE",
"471 0 LINE",
"471 426 LINE",
"283 426 LINE"
);
},
{
closed = 1;
nodes = (
"226 337 LINE",
"333 700 LINE",
"136 700 LINE",
"8 302 LINE",
"8 167 LINE",
"522 167 LINE",
"522 337 LINE"
);
}
);
width = 530;
},
{
layerId = "FFFA8D72-12AC-4CE0-B2CA-57A29829F4DA";
paths = (
{
closed = 1;
nodes = (
"341 0 LINE",
"529 0 LINE",
"529 426 LINE",
"341 426 LINE"
);
},
{
closed = 1;
nodes = (
"225 337 LINE",
"378 700 LINE",
"181 700 LINE",
"8 302 LINE",
"8 167 LINE",
"590 167 LINE",
"590 337 LINE"
);
}
);
width = 598;
},
{
layerId = "DCBE1F7B-116A-43E0-B7B4-8657BA77D8B5";
paths = (
{
closed = 1;
nodes = (
"259 -7 LINE",
"281 -7 LINE",
"281 415 LINE",
"259 415 LINE"
);
},
{
closed = 1;
nodes = (
"56 222 LINE",
"222 700 LINE",
"198 700 LINE",
"32 222 LINE",
"32 202 LINE",
"323 202 LINE",
"323 222 LINE"
);
}
);
width = 355;
}
);
unicode = 0034;
},
{
glyphname = five;
lastChange = "2017-02-16 04:19:27 +0000";
layers = (
{
layerId = "262880E7-CFE1-4BDA-902E-E24798F3240A";
paths = (
{
closed = 1;
nodes = (
"332 -9 OFFCURVE",
"398 57 OFFCURVE",
"398 157 CURVE SMOOTH",
"398 262 LINE SMOOTH",
"398 362 OFFCURVE",
"332 428 OFFCURVE",
"233 428 CURVE SMOOTH",
"133 428 OFFCURVE",
"72 381 OFFCURVE",
"72 311 CURVE",
"72 307 LINE",
"92 307 LINE",
"92 311 LINE SMOOTH",
"92 369 OFFCURVE",
"146 407 OFFCURVE",
"234 407 CURVE SMOOTH",
"319 407 OFFCURVE",
"376 350 OFFCURVE",
"376 265 CURVE SMOOTH",
"376 154 LINE SMOOTH",
"376 69 OFFCURVE",
"319 12 OFFCURVE",
"234 12 CURVE SMOOTH",
"149 12 OFFCURVE",
"92 69 OFFCURVE",
"92 154 CURVE SMOOTH",
"92 158 LINE",
"70 158 LINE",
"70 157 LINE SMOOTH",
"70 57 OFFCURVE",
"136 -9 OFFCURVE",
"234 -9 CURVE SMOOTH"
);
},
{
closed = 1;
nodes = (
"92 307 LINE",
"92 679 LINE",
"384 679 LINE",
"384 700 LINE",
"70 700 LINE",
"70 307 LINE"
);
}
);
width = 468;
},
{
layerId = "4E2227F3-52E4-4048-A8EE-327B486EF0A4";
paths = (
{
closed = 1;
nodes = (
"357 -8 OFFCURVE",
"442 58 OFFCURVE",
"442 171 CURVE SMOOTH",
"442 260 LINE SMOOTH",
"442 374 OFFCURVE",
"383 444 OFFCURVE",
"288 444 CURVE SMOOTH",
"177 444 OFFCURVE",
"145 344 OFFCURVE",
"145 260 CURVE",
"145 256 LINE",
"202 256 LINE",
"202 257 LINE SMOOTH",
"202 272 OFFCURVE",
"212 282 OFFCURVE",
"228 282 CURVE SMOOTH",
"244 282 OFFCURVE",
"254 269 OFFCURVE",
"254 250 CURVE SMOOTH",
"254 184 LINE SMOOTH",
"254 165 OFFCURVE",
"244 152 OFFCURVE",
"228 152 CURVE SMOOTH",
"213 152 OFFCURVE",
"203 165 OFFCURVE",
"203 184 CURVE SMOOTH",
"203 185 LINE",
"15 185 LINE",
"15 171 LINE SMOOTH",
"15 58 OFFCURVE",
"98 -8 OFFCURVE",
"228 -8 CURVE SMOOTH"
);
},
{
closed = 1;
nodes = (
"202 254 LINE",
"202 530 LINE",
"440 530 LINE",
"440 700 LINE",
"14 700 LINE",
"14 254 LINE"
);
}
);
width = 456;
},
{
layerId = "FFFA8D72-12AC-4CE0-B2CA-57A29829F4DA";
paths = (
{
closed = 1;
nodes = (
"404 -8 OFFCURVE",
"502 64 OFFCURVE",
"502 171 CURVE SMOOTH",
"502 260 LINE SMOOTH",
"502 370 OFFCURVE",
"423 444 OFFCURVE",
"305 444 CURVE SMOOTH",
"208 444 OFFCURVE",
"144 367 OFFCURVE",
"144 251 CURVE",
"144 247 LINE",
"203 247 LINE",
"203 248 LINE SMOOTH",
"203 268 OFFCURVE",
"225 282 OFFCURVE",
"257 282 CURVE SMOOTH",
"291 282 OFFCURVE",
"314 261 OFFCURVE",
"314 230 CURVE SMOOTH",
"314 204 LINE SMOOTH",
"314 173 OFFCURVE",
"291 152 OFFCURVE",
"257 152 CURVE SMOOTH",
"224 152 OFFCURVE",
"202 170 OFFCURVE",
"202 197 CURVE SMOOTH",
"202 198 LINE",
"14 198 LINE",
"14 171 LINE SMOOTH",
"14 64 OFFCURVE",
"111 -8 OFFCURVE",
"257 -8 CURVE SMOOTH"
);
},
{
closed = 1;
nodes = (
"203 245 LINE",
"204 530 LINE",
"499 530 LINE",
"499 700 LINE",
"16 700 LINE",
"16 245 LINE"
);
}
);
width = 516;
},
{
layerId = "DCBE1F7B-116A-43E0-B7B4-8657BA77D8B5";
paths = (
{
closed = 1;
nodes = (
"260 -9 OFFCURVE",
"311 57 OFFCURVE",
"311 157 CURVE SMOOTH",
"311 262 LINE SMOOTH",
"311 362 OFFCURVE",
"261 428 OFFCURVE",
"185 428 CURVE SMOOTH",
"118 428 OFFCURVE",
"70 381 OFFCURVE",
"70 311 CURVE",
"70 307 LINE",
"87 307 LINE",
"87 311 LINE SMOOTH",
"87 369 OFFCURVE",
"129 407 OFFCURVE",
"183 407 CURVE SMOOTH",
"247 407 OFFCURVE",
"289 350 OFFCURVE",
"289 265 CURVE SMOOTH",
"289 154 LINE SMOOTH",
"289 69 OFFCURVE",
"247 12 OFFCURVE",
"183 12 CURVE SMOOTH",
"120 12 OFFCURVE",
"78 69 OFFCURVE",
"78 154 CURVE SMOOTH",
"78 158 LINE",
"56 158 LINE",
"56 157 LINE SMOOTH",
"56 57 OFFCURVE",
"107 -9 OFFCURVE",
"183 -9 CURVE SMOOTH"
);
},
{
closed = 1;
nodes = (
"87 310 LINE",
"88 679 LINE",
"309 679 LINE",
"309 700 LINE",
"66 700 LINE",
"67 310 LINE"
);
}
);
width = 367;
}
);
unicode = 0035;
},
{
glyphname = six;
lastChange = "2017-02-16 04:19:27 +0000";
layers = (
{
layerId = "262880E7-CFE1-4BDA-902E-E24798F3240A";
paths = (
{
closed = 1;
nodes = (
"369 -8 OFFCURVE",
"437 58 OFFCURVE",
"437 158 CURVE SMOOTH",
"437 262 LINE SMOOTH",
"437 362 OFFCURVE",
"369 428 OFFCURVE",
"264 428 CURVE SMOOTH",
"192 428 OFFCURVE",
"136 395 OFFCURVE",
"109 340 CURVE",
"112 340 LINE",
"112 545 LINE SMOOTH",
"112 630 OFFCURVE",
"173 687 OFFCURVE",
"264 687 CURVE SMOOTH",
"355 687 OFFCURVE",
"415 630 OFFCURVE",
"415 545 CURVE SMOOTH",
"415 500 LINE",
"437 500 LINE",
"437 542 LINE SMOOTH",
"437 642 OFFCURVE",
"369 708 OFFCURVE",
"264 708 CURVE SMOOTH",
"159 708 OFFCURVE",
"90 642 OFFCURVE",
"90 542 CURVE SMOOTH",
"90 158 LINE SMOOTH",
"90 58 OFFCURVE",
"159 -8 OFFCURVE",
"264 -8 CURVE SMOOTH"
);
},
{
closed = 1;
nodes = (
"173 13 OFFCURVE",
"112 70 OFFCURVE",
"112 155 CURVE SMOOTH",
"112 265 LINE SMOOTH",
"112 350 OFFCURVE",
"173 407 OFFCURVE",
"264 407 CURVE SMOOTH",
"355 407 OFFCURVE",
"415 350 OFFCURVE",
"415 265 CURVE SMOOTH",
"415 155 LINE SMOOTH",
"415 70 OFFCURVE",
"355 13 OFFCURVE",
"264 13 CURVE SMOOTH"
);
}
);
width = 507;
},
{
layerId = "4E2227F3-52E4-4048-A8EE-327B486EF0A4";
paths = (
{
closed = 1;
nodes = (
"357 -8 OFFCURVE",
"442 58 OFFCURVE",
"442 171 CURVE SMOOTH",
"442 260 LINE SMOOTH",
"442 390 OFFCURVE",
"366 444 OFFCURVE",
"286 444 CURVE SMOOTH",
"172 444 OFFCURVE",
"166 339 OFFCURVE",
"167 327 CURVE",
"206 327 LINE",
"206 511 LINE SMOOTH",
"206 530 OFFCURVE",
"216 543 OFFCURVE",
"230 543 CURVE SMOOTH",
"244 543 OFFCURVE",
"254 530 OFFCURVE",
"254 511 CURVE SMOOTH",
"254 470 LINE",
"442 470 LINE",
"442 524 LINE SMOOTH",
"442 638 OFFCURVE",
"357 708 OFFCURVE",
"230 708 CURVE SMOOTH",
"103 708 OFFCURVE",
"18 638 OFFCURVE",
"18 524 CURVE SMOOTH",
"18 171 LINE SMOOTH",
"18 58 OFFCURVE",
"103 -8 OFFCURVE",
"230 -8 CURVE SMOOTH"
);
},
{
closed = 1;
nodes = (
"216 152 OFFCURVE",
"206 165 OFFCURVE",
"206 184 CURVE SMOOTH",
"206 252 LINE SMOOTH",
"206 271 OFFCURVE",
"216 284 OFFCURVE",
"230 284 CURVE SMOOTH",
"244 284 OFFCURVE",
"254 271 OFFCURVE",
"254 252 CURVE SMOOTH",
"254 184 LINE SMOOTH",
"254 165 OFFCURVE",
"244 152 OFFCURVE",
"230 152 CURVE SMOOTH"
);
}
);
width = 456;
},
{
layerId = "FFFA8D72-12AC-4CE0-B2CA-57A29829F4DA";
paths = (
{
closed = 1;
nodes = (
"409 -8 OFFCURVE",
"507 64 OFFCURVE",
"507 171 CURVE SMOOTH",
"507 260 LINE SMOOTH",
"507 370 OFFCURVE",
"425 444 OFFCURVE",
"301 444 CURVE SMOOTH",
"244 444 OFFCURVE",
"186 397 OFFCURVE",
"157 327 CURVE",
"206 327 LINE",
"206 496 LINE SMOOTH",
"206 524 OFFCURVE",
"229 543 OFFCURVE",
"263 543 CURVE SMOOTH",
"297 543 OFFCURVE",
"319 524 OFFCURVE",
"319 496 CURVE SMOOTH",
"319 470 LINE",
"507 470 LINE",
"507 524 LINE SMOOTH",
"507 634 OFFCURVE",
"409 708 OFFCURVE",
"263 708 CURVE SMOOTH",
"116 708 OFFCURVE",
"18 634 OFFCURVE",
"18 524 CURVE SMOOTH",
"18 171 LINE SMOOTH",
"18 64 OFFCURVE",
"116 -8 OFFCURVE",
"263 -8 CURVE SMOOTH"
);
},
{
closed = 1;
nodes = (
"229 152 OFFCURVE",
"206 172 OFFCURVE",
"206 203 CURVE SMOOTH",
"206 234 LINE SMOOTH",
"206 264 OFFCURVE",
"229 284 OFFCURVE",
"263 284 CURVE SMOOTH",
"297 284 OFFCURVE",
"319 264 OFFCURVE",
"319 234 CURVE SMOOTH",
"319 203 LINE SMOOTH",
"319 172 OFFCURVE",
"297 152 OFFCURVE",
"263 152 CURVE SMOOTH"
);
}
);
width = 521;
},
{
layerId = "DCBE1F7B-116A-43E0-B7B4-8657BA77D8B5";
paths = (
{
closed = 1;
nodes = (
"288 -8 OFFCURVE",
"341 58 OFFCURVE",
"341 158 CURVE SMOOTH",
"341 262 LINE SMOOTH",
"341 362 OFFCURVE",
"288 428 OFFCURVE",
"208 428 CURVE SMOOTH",
"152 428 OFFCURVE",
"111 395 OFFCURVE",
"91 340 CURVE",
"94 340 LINE",
"94 545 LINE SMOOTH",
"94 630 OFFCURVE",
"139 687 OFFCURVE",
"207 687 CURVE SMOOTH",
"274 687 OFFCURVE",
"319 630 OFFCURVE",
"319 545 CURVE SMOOTH",
"319 500 LINE",
"341 500 LINE",
"341 542 LINE SMOOTH",
"341 642 OFFCURVE",
"288 708 OFFCURVE",
"207 708 CURVE SMOOTH",
"125 708 OFFCURVE",
"72 642 OFFCURVE",
"72 542 CURVE SMOOTH",
"72 158 LINE SMOOTH",
"72 58 OFFCURVE",
"125 -8 OFFCURVE",
"207 -8 CURVE SMOOTH"
);
},
{
closed = 1;
nodes = (
"139 13 OFFCURVE",
"94 70 OFFCURVE",
"94 155 CURVE SMOOTH",
"94 265 LINE SMOOTH",
"94 350 OFFCURVE",
"139 407 OFFCURVE",
"207 407 CURVE SMOOTH",
"274 407 OFFCURVE",
"319 350 OFFCURVE",
"319 265 CURVE SMOOTH",
"319 155 LINE SMOOTH",
"319 70 OFFCURVE",
"274 13 OFFCURVE",
"207 13 CURVE SMOOTH"
);
}
);
width = 397;
}
);
unicode = 0036;
},
{
glyphname = seven;
lastChange = "2017-02-16 04:19:27 +0000";
layers = (
{
layerId = "262880E7-CFE1-4BDA-902E-E24798F3240A";
paths = (
{
closed = 1;
nodes = (
"165 0 LINE",
"401 679 LINE",
"401 700 LINE",
"30 700 LINE",
"30 642 LINE",
"52 642 LINE",
"52 679 LINE",
"377 679 LINE",
"140 0 LINE"
);
}
);
width = 431;
},
{
layerId = "4E2227F3-52E4-4048-A8EE-327B486EF0A4";
paths = (
{
closed = 1;
nodes = (
"262 0 LINE",
"429 530 LINE",
"429 700 LINE",
"7 700 LINE",
"6 481 LINE",
"157 481 LINE",
"157 530 LINE",
"231 530 LINE",
"66 0 LINE"
);
}
);
width = 435;
},
{
layerId = "FFFA8D72-12AC-4CE0-B2CA-57A29829F4DA";
paths = (
{
closed = 1;
nodes = (
"285 0 LINE",
"499 530 LINE",
"499 700 LINE",
"7 700 LINE",
"6 481 LINE",
"158 481 LINE",
"158 530 LINE",
"301 530 LINE",
"89 0 LINE"
);
}
);
width = 505;
},
{
layerId = "DCBE1F7B-116A-43E0-B7B4-8657BA77D8B5";
paths = (
{
closed = 1;
nodes = (
"132 0 LINE",
"310 679 LINE",
"310 700 LINE",
"24 700 LINE",
"24 642 LINE",
"45 642 LINE",
"45 679 LINE",
"286 679 LINE",
"107 0 LINE"
);
}
);
width = 334;
}
);
unicode = 0037;
},
{
glyphname = eight;
lastChange = "2017-02-16 04:19:27 +0000";
layers = (
{
layerId = "262880E7-CFE1-4BDA-902E-E24798F3240A";
paths = (
{
closed = 1;
nodes = (
"361 -18 OFFCURVE",
"430 54 OFFCURVE",
"430 161 CURVE SMOOTH",
"430 215 LINE SMOOTH",
"430 322 OFFCURVE",
"361 394 OFFCURVE",
"256 394 CURVE SMOOTH",
"151 394 OFFCURVE",
"80 322 OFFCURVE",
"80 215 CURVE SMOOTH",
"80 161 LINE SMOOTH",
"80 54 OFFCURVE",
"151 -18 OFFCURVE",
"256 -18 CURVE SMOOTH"
);
},
{
closed = 1;
nodes = (
"164 2 OFFCURVE",
"102 66 OFFCURVE",
"102 161 CURVE SMOOTH",
"102 215 LINE SMOOTH",
"102 311 OFFCURVE",
"164 375 OFFCURVE",
"256 375 CURVE SMOOTH",
"348 375 OFFCURVE",
"408 311 OFFCURVE",
"408 215 CURVE SMOOTH",
"408 161 LINE SMOOTH",
"408 66 OFFCURVE",
"348 2 OFFCURVE",
"256 2 CURVE SMOOTH"
);
},
{
closed = 1;
nodes = (
"361 375 OFFCURVE",
"428 439 OFFCURVE",
"428 534 CURVE SMOOTH",
"428 549 LINE SMOOTH",
"428 644 OFFCURVE",
"361 708 OFFCURVE",
"256 708 CURVE SMOOTH",
"151 708 OFFCURVE",
"82 644 OFFCURVE",
"82 549 CURVE SMOOTH",
"82 534 LINE SMOOTH",
"82 439 OFFCURVE",
"151 375 OFFCURVE",
"256 375 CURVE SMOOTH"
);
},
{
closed = 1;
nodes = (
"164 395 OFFCURVE",
"104 451 OFFCURVE",
"104 534 CURVE SMOOTH",
"104 549 LINE SMOOTH",
"104 633 OFFCURVE",
"164 689 OFFCURVE",
"256 689 CURVE SMOOTH",
"348 689 OFFCURVE",
"406 633 OFFCURVE",
"406 549 CURVE SMOOTH",
"406 534 LINE SMOOTH",
"406 451 OFFCURVE",
"348 395 OFFCURVE",
"256 395 CURVE SMOOTH"
);
}
);
width = 510;
},
{
layerId = "4E2227F3-52E4-4048-A8EE-327B486EF0A4";
paths = (
{
closed = 1;
nodes = (
"370 -8 OFFCURVE",
"443 69 OFFCURVE",
"443 194 CURVE SMOOTH",
"443 231 LINE SMOOTH",
"443 387 OFFCURVE",
"282 398 OFFCURVE",
"230 403 CURVE",
"178 398 OFFCURVE",
"17 387 OFFCURVE",
"17 231 CURVE SMOOTH",
"17 195 LINE SMOOTH",
"17 69 OFFCURVE",
"103 -8 OFFCURVE",
"230 -8 CURVE SMOOTH"
);
},
{
closed = 1;
nodes = (
"215 153 OFFCURVE",
"205 169 OFFCURVE",
"205 192 CURVE SMOOTH",
"205 248 LINE SMOOTH",
"205 272 OFFCURVE",
"215 288 OFFCURVE",
"230 288 CURVE",
"245 288 OFFCURVE",
"255 272 OFFCURVE",
"255 248 CURVE SMOOTH",
"255 192 LINE SMOOTH",
"255 169 OFFCURVE",
"245 153 OFFCURVE",
"230 153 CURVE SMOOTH"
);
},
{
closed = 1;
nodes = (
"330 316 OFFCURVE",
"444 359 OFFCURVE",
"444 486 CURVE SMOOTH",
"444 525 LINE SMOOTH",
"444 650 OFFCURVE",
"371 708 OFFCURVE",
"230 708 CURVE SMOOTH",
"103 708 OFFCURVE",
"16 651 OFFCURVE",
"16 525 CURVE SMOOTH",
"16 487 LINE SMOOTH",
"16 359 OFFCURVE",
"133 316 OFFCURVE",
"230 294 CURVE"
);
},
{
closed = 1;
nodes = (
"214 422 OFFCURVE",
"205 438 OFFCURVE",
"205 462 CURVE SMOOTH",
"205 508 LINE SMOOTH",
"205 531 OFFCURVE",
"214 547 OFFCURVE",
"230 547 CURVE SMOOTH",
"245 547 OFFCURVE",
"255 531 OFFCURVE",
"255 508 CURVE SMOOTH",
"255 462 LINE SMOOTH",
"255 438 OFFCURVE",
"245 422 OFFCURVE",
"230 422 CURVE SMOOTH"
);
}
);
width = 460;
},
{
layerId = "FFFA8D72-12AC-4CE0-B2CA-57A29829F4DA";
paths = (
{
closed = 1;
nodes = (
"410 -8 OFFCURVE",
"508 73 OFFCURVE",
"508 194 CURVE SMOOTH",
"508 223 LINE SMOOTH",
"508 379 OFFCURVE",
"336 398 OFFCURVE",
"263 403 CURVE",
"189 398 OFFCURVE",
"17 379 OFFCURVE",
"17 223 CURVE SMOOTH",
"17 195 LINE SMOOTH",
"17 73 OFFCURVE",
"115 -8 OFFCURVE",
"263 -8 CURVE SMOOTH"
);
},
{
closed = 1;
nodes = (
"228 153 OFFCURVE",
"204 173 OFFCURVE",
"204 204 CURVE SMOOTH",
"204 236 LINE SMOOTH",
"204 267 OFFCURVE",
"228 288 OFFCURVE",
"263 288 CURVE",
"297 288 OFFCURVE",
"320 267 OFFCURVE",
"320 236 CURVE SMOOTH",
"320 204 LINE SMOOTH",
"320 173 OFFCURVE",
"297 153 OFFCURVE",
"263 153 CURVE SMOOTH"
);
},
{
closed = 1;
nodes = (
"381 318 OFFCURVE",
"509 362 OFFCURVE",
"509 492 CURVE SMOOTH",
"509 525 LINE SMOOTH",
"509 635 OFFCURVE",
"411 708 OFFCURVE",
"263 708 CURVE SMOOTH",
"115 708 OFFCURVE",
"16 635 OFFCURVE",
"16 525 CURVE SMOOTH",
"16 493 LINE SMOOTH",
"16 362 OFFCURVE",
"146 318 OFFCURVE",
"263 301 CURVE"
);
},
{
closed = 1;
nodes = (
"228 422 OFFCURVE",
"205 443 OFFCURVE",
"205 474 CURVE SMOOTH",
"205 496 LINE SMOOTH",
"205 527 OFFCURVE",
"228 547 OFFCURVE",
"263 547 CURVE SMOOTH",
"297 547 OFFCURVE",
"320 527 OFFCURVE",
"320 496 CURVE SMOOTH",
"320 474 LINE SMOOTH",
"320 443 OFFCURVE",
"297 422 OFFCURVE",
"263 422 CURVE SMOOTH"
);
}
);
width = 525;
},
{
layerId = "DCBE1F7B-116A-43E0-B7B4-8657BA77D8B5";
paths = (
{
closed = 1;
nodes = (
"282 -18 OFFCURVE",
"335 54 OFFCURVE",
"335 161 CURVE SMOOTH",
"335 215 LINE SMOOTH",
"335 322 OFFCURVE",
"279 394 OFFCURVE",
"200 394 CURVE SMOOTH",
"121 394 OFFCURVE",
"64 322 OFFCURVE",
"64 215 CURVE SMOOTH",
"64 161 LINE SMOOTH",
"64 54 OFFCURVE",
"119 -18 OFFCURVE",
"200 -18 CURVE SMOOTH"
);
},
{
closed = 1;
nodes = (
"132 2 OFFCURVE",
"86 66 OFFCURVE",
"86 161 CURVE SMOOTH",
"86 215 LINE SMOOTH",
"86 311 OFFCURVE",
"132 375 OFFCURVE",
"200 375 CURVE SMOOTH",
"268 375 OFFCURVE",
"313 311 OFFCURVE",
"313 215 CURVE SMOOTH",
"313 161 LINE SMOOTH",
"313 66 OFFCURVE",
"268 2 OFFCURVE",
"200 2 CURVE SMOOTH"
);
},
{
closed = 1;
nodes = (
"281 375 OFFCURVE",
"334 439 OFFCURVE",
"334 534 CURVE SMOOTH",
"334 549 LINE SMOOTH",
"334 644 OFFCURVE",
"282 708 OFFCURVE",
"200 708 CURVE SMOOTH",
"119 708 OFFCURVE",
"65 644 OFFCURVE",
"65 549 CURVE SMOOTH",
"65 534 LINE SMOOTH",
"65 439 OFFCURVE",
"120 375 OFFCURVE",
"200 375 CURVE SMOOTH"
);
},
{
closed = 1;
nodes = (
"132 395 OFFCURVE",
"88 451 OFFCURVE",
"88 534 CURVE SMOOTH",
"88 549 LINE SMOOTH",
"88 633 OFFCURVE",
"132 689 OFFCURVE",
"200 689 CURVE SMOOTH",
"268 689 OFFCURVE",
"311 633 OFFCURVE",
"311 549 CURVE SMOOTH",
"311 534 LINE SMOOTH",
"311 451 OFFCURVE",
"268 395 OFFCURVE",
"200 395 CURVE SMOOTH"
);
}
);
width = 399;
}
);
unicode = 0038;
},
{
glyphname = colon;
lastChange = "2017-01-20 08:41:53 +0000";
layers = (
{
layerId = "262880E7-CFE1-4BDA-902E-E24798F3240A";
paths = (
{
closed = 1;
nodes = (
"182 363 OFFCURVE",
"202 381 OFFCURVE",
"202 404 CURVE SMOOTH",
"202 426 OFFCURVE",
"182 444 OFFCURVE",
"160 444 CURVE SMOOTH",
"138 444 OFFCURVE",
"119 426 OFFCURVE",
"119 404 CURVE SMOOTH",
"119 381 OFFCURVE",
"137 363 OFFCURVE",
"160 363 CURVE SMOOTH"
);
},
{
closed = 1;
nodes = (
"182 20 OFFCURVE",
"202 38 OFFCURVE",
"202 61 CURVE SMOOTH",
"202 83 OFFCURVE",
"182 101 OFFCURVE",
"160 101 CURVE SMOOTH",
"138 101 OFFCURVE",
"119 83 OFFCURVE",
"119 61 CURVE SMOOTH",
"119 38 OFFCURVE",
"137 20 OFFCURVE",
"160 20 CURVE SMOOTH"
);
}
);
width = 321;
},
{
layerId = "4E2227F3-52E4-4048-A8EE-327B486EF0A4";
paths = (
{
closed = 1;
nodes = (
"223 321 OFFCURVE",
"266 368 OFFCURVE",
"266 426 CURVE SMOOTH",
"266 484 OFFCURVE",
"214 530 OFFCURVE",
"161 530 CURVE SMOOTH",
"108 530 OFFCURVE",
"56 484 OFFCURVE",
"56 426 CURVE SMOOTH",
"56 368 OFFCURVE",
"99 321 OFFCURVE",
"161 321 CURVE SMOOTH"
);
},
{
closed = 1;
nodes = (
"223 0 OFFCURVE",
"266 47 OFFCURVE",
"266 105 CURVE SMOOTH",
"266 163 OFFCURVE",
"214 209 OFFCURVE",
"161 209 CURVE SMOOTH",
"108 209 OFFCURVE",
"56 163 OFFCURVE",
"56 105 CURVE SMOOTH",
"56 47 OFFCURVE",
"99 0 OFFCURVE",
"161 0 CURVE SMOOTH"
);
}
);
width = 318;
},
{
layerId = "FFFA8D72-12AC-4CE0-B2CA-57A29829F4DA";
paths = (
{
closed = 1;
nodes = (
"257 321 OFFCURVE",
"304 368 OFFCURVE",
"304 426 CURVE SMOOTH",
"304 484 OFFCURVE",
"249 530 OFFCURVE",
"192 530 CURVE SMOOTH",
"136 530 OFFCURVE",
"81 484 OFFCURVE",
"81 426 CURVE SMOOTH",
"81 368 OFFCURVE",
"127 321 OFFCURVE",
"192 321 CURVE SMOOTH"
);
},
{
closed = 1;
nodes = (
"257 0 OFFCURVE",
"304 47 OFFCURVE",
"304 105 CURVE SMOOTH",
"304 163 OFFCURVE",
"249 209 OFFCURVE",
"192 209 CURVE SMOOTH",
"136 209 OFFCURVE",
"81 163 OFFCURVE",
"81 105 CURVE SMOOTH",
"81 47 OFFCURVE",
"127 0 OFFCURVE",
"192 0 CURVE SMOOTH"
);
}
);
width = 381;
},
{
layerId = "DCBE1F7B-116A-43E0-B7B4-8657BA77D8B5";
paths = (
{
closed = 1;
nodes = (
"101 350 OFFCURVE",
"117 368 OFFCURVE",
"117 391 CURVE SMOOTH",
"117 413 OFFCURVE",
"101 431 OFFCURVE",
"83 431 CURVE SMOOTH",
"65 431 OFFCURVE",
"49 413 OFFCURVE",
"49 391 CURVE SMOOTH",
"49 368 OFFCURVE",
"64 350 OFFCURVE",
"83 350 CURVE SMOOTH"
);
},
{
closed = 1;
nodes = (
"101 7 OFFCURVE",
"117 25 OFFCURVE",
"117 48 CURVE SMOOTH",
"117 70 OFFCURVE",
"101 88 OFFCURVE",
"83 88 CURVE SMOOTH",
"65 88 OFFCURVE",
"49 70 OFFCURVE",
"49 48 CURVE SMOOTH",
"49 25 OFFCURVE",
"64 7 OFFCURVE",
"83 7 CURVE SMOOTH"
);
}
);
width = 166;
}
);
leftKerningGroup = colon;
unicode = 003A;
},
{
glyphname = comma;
lastChange = "2017-01-20 08:41:53 +0000";
layers = (
{
layerId = "262880E7-CFE1-4BDA-902E-E24798F3240A";
paths = (
{
closed = 1;
nodes = (
"105 -66 LINE",
"161 153 LINE",
"139 153 LINE",
"83 -66 LINE"
);
}
);
width = 264;
},
{
layerId = "4E2227F3-52E4-4048-A8EE-327B486EF0A4";
paths = (
{
closed = 1;
nodes = (
"146 -111 LINE",
"209 160 LINE",
"41 160 LINE",
"24 -111 LINE"
);
}
);
width = 233;
},
{
layerId = "FFFA8D72-12AC-4CE0-B2CA-57A29829F4DA";
paths = (
{
closed = 1;
nodes = (
"166 -111 LINE",
"239 160 LINE",
"71 160 LINE",
"42 -111 LINE"
);
}
);
width = 285;
},
{
layerId = "DCBE1F7B-116A-43E0-B7B4-8657BA77D8B5";
paths = (
{
closed = 1;
nodes = (
"62 -66 LINE",
"105 153 LINE",
"84 153 LINE",
"42 -66 LINE"
);
}
);
width = 154;
}
);
leftKerningGroup = comma;
rightKerningGroup = comma;
unicode = 002C;
},
{
glyphname = exclam;
lastChange = "2017-01-20 08:41:53 +0000";
layers = (
{
layerId = "262880E7-CFE1-4BDA-902E-E24798F3240A";
paths = (
{
closed = 1;
nodes = (
"164 220 LINE",
"164 700 LINE",
"142 700 LINE",
"142 220 LINE"
);
},
{
closed = 1;
nodes = (
"172 5 OFFCURVE",
"192 23 OFFCURVE",
"192 46 CURVE SMOOTH",
"192 68 OFFCURVE",
"172 86 OFFCURVE",
"150 86 CURVE SMOOTH",
"128 86 OFFCURVE",
"109 68 OFFCURVE",
"109 46 CURVE SMOOTH",
"109 23 OFFCURVE",
"127 5 OFFCURVE",
"150 5 CURVE SMOOTH"
);
}
);
width = 306;
},
{
layerId = "4E2227F3-52E4-4048-A8EE-327B486EF0A4";
paths = (
{
closed = 1;
nodes = (
"225 248 LINE",
"245 700 LINE",
"57 700 LINE",
"77 248 LINE"
);
},
{
closed = 1;
nodes = (
"212 0 OFFCURVE",
"255 47 OFFCURVE",
"255 105 CURVE SMOOTH",
"255 163 OFFCURVE",
"203 209 OFFCURVE",
"150 209 CURVE SMOOTH",
"97 209 OFFCURVE",
"45 163 OFFCURVE",
"45 105 CURVE SMOOTH",
"45 47 OFFCURVE",
"88 0 OFFCURVE",
"150 0 CURVE SMOOTH"
);
}
);
width = 302;
},
{
layerId = "FFFA8D72-12AC-4CE0-B2CA-57A29829F4DA";
paths = (
{
closed = 1;
nodes = (
"255 248 LINE",
"275 700 LINE",
"87 700 LINE",
"106 248 LINE"
);
},
{
closed = 1;
nodes = (
"244 0 OFFCURVE",
"291 47 OFFCURVE",
"291 105 CURVE SMOOTH",
"291 163 OFFCURVE",
"236 209 OFFCURVE",
"179 209 CURVE SMOOTH",
"123 209 OFFCURVE",
"68 163 OFFCURVE",
"68 105 CURVE SMOOTH",
"68 47 OFFCURVE",
"114 0 OFFCURVE",
"179 0 CURVE SMOOTH"
);
}
);
width = 362;
},
{
layerId = "DCBE1F7B-116A-43E0-B7B4-8657BA77D8B5";
paths = (
{
closed = 1;
nodes = (
"128 220 LINE",
"129 700 LINE",
"107 700 LINE",
"107 220 LINE"
);
},
{
closed = 1;
nodes = (
"134 5 OFFCURVE",
"150 23 OFFCURVE",
"150 46 CURVE SMOOTH",
"150 68 OFFCURVE",
"134 86 OFFCURVE",
"116 86 CURVE SMOOTH",
"98 86 OFFCURVE",
"82 68 OFFCURVE",
"82 46 CURVE SMOOTH",
"82 23 OFFCURVE",
"97 5 OFFCURVE",
"116 5 CURVE SMOOTH"
);
}
);
width = 235;
}
);
unicode = 0021;
},
{
glyphname = period;
lastChange = "2017-01-20 08:41:53 +0000";
layers = (
{
layerId = "262880E7-CFE1-4BDA-902E-E24798F3240A";
paths = (
{
closed = 1;
nodes = (
"182 7 OFFCURVE",
"202 25 OFFCURVE",
"202 48 CURVE SMOOTH",
"202 70 OFFCURVE",
"182 88 OFFCURVE",
"160 88 CURVE SMOOTH",
"138 88 OFFCURVE",
"119 70 OFFCURVE",
"119 48 CURVE SMOOTH",
"119 25 OFFCURVE",
"137 7 OFFCURVE",
"160 7 CURVE SMOOTH"
);
}
);
width = 323;
},
{
layerId = "4E2227F3-52E4-4048-A8EE-327B486EF0A4";
paths = (
{
closed = 1;
nodes = (
"211 -8 OFFCURVE",
"254 39 OFFCURVE",
"254 97 CURVE SMOOTH",
"254 155 OFFCURVE",
"202 201 OFFCURVE",
"149 201 CURVE SMOOTH",
"96 201 OFFCURVE",
"44 155 OFFCURVE",
"44 97 CURVE SMOOTH",
"44 39 OFFCURVE",
"87 -8 OFFCURVE",
"149 -8 CURVE SMOOTH"
);
}
);
width = 308;
},
{
layerId = "FFFA8D72-12AC-4CE0-B2CA-57A29829F4DA";
paths = (
{
closed = 1;
nodes = (
"196 -8 OFFCURVE",
"243 39 OFFCURVE",
"243 97 CURVE SMOOTH",
"243 155 OFFCURVE",
"188 201 OFFCURVE",
"131 201 CURVE SMOOTH",
"75 201 OFFCURVE",
"20 155 OFFCURVE",
"20 97 CURVE SMOOTH",
"20 39 OFFCURVE",
"66 -8 OFFCURVE",
"131 -8 CURVE SMOOTH"
);
}
);
width = 263;
},
{
layerId = "DCBE1F7B-116A-43E0-B7B4-8657BA77D8B5";
paths = (
{
closed = 1;
nodes = (
"101 7 OFFCURVE",
"117 25 OFFCURVE",
"117 48 CURVE SMOOTH",
"117 70 OFFCURVE",
"101 88 OFFCURVE",
"83 88 CURVE SMOOTH",
"65 88 OFFCURVE",
"49 70 OFFCURVE",
"49 48 CURVE SMOOTH",
"49 25 OFFCURVE",
"64 7 OFFCURVE",
"83 7 CURVE SMOOTH"
);
}
);
width = 166;
}
);
leftKerningGroup = comma;
rightKerningGroup = comma;
unicode = 002E;
},
{
glyphname = question;
lastChange = "2017-01-20 08:41:53 +0000";
layers = (
{
layerId = "262880E7-CFE1-4BDA-902E-E24798F3240A";
paths = (
{
closed = 1;
nodes = (
"203 185 LINE",
"203 271 LINE",
"203 372 OFFCURVE",
"367 378 OFFCURVE",
"367 546 CURVE SMOOTH",
"367 645 OFFCURVE",
"303 709 OFFCURVE",
"208 709 CURVE SMOOTH",
"113 709 OFFCURVE",
"48 645 OFFCURVE",
"48 550 CURVE SMOOTH",
"48 500 LINE",
"70 500 LINE",
"70 550 LINE SMOOTH",
"70 633 OFFCURVE",
"126 688 OFFCURVE",
"208 688 CURVE SMOOTH",
"290 688 OFFCURVE",
"345 633 OFFCURVE",
"345 549 CURVE SMOOTH",
"345 395 OFFCURVE",
"179 394 OFFCURVE",
"179 271 CURVE",
"179 185 LINE"
);
},
{
closed = 1;
nodes = (
"215 5 OFFCURVE",
"235 23 OFFCURVE",
"235 46 CURVE SMOOTH",
"235 68 OFFCURVE",
"215 86 OFFCURVE",
"193 86 CURVE SMOOTH",
"171 86 OFFCURVE",
"152 68 OFFCURVE",
"152 46 CURVE SMOOTH",
"152 23 OFFCURVE",
"170 5 OFFCURVE",
"193 5 CURVE SMOOTH"
);
}
);
width = 418;
},
{
layerId = "4E2227F3-52E4-4048-A8EE-327B486EF0A4";
paths = (
{
closed = 1;
nodes = (
"321 236 LINE",
"321 252 LINE",
"321 339 OFFCURVE",
"473 338 OFFCURVE",
"473 503 CURVE SMOOTH",
"473 627 OFFCURVE",
"386 710 OFFCURVE",
"249 710 CURVE SMOOTH",
"107 710 OFFCURVE",
"10 620 OFFCURVE",
"10 488 CURVE SMOOTH",
"10 478 LINE",
"198 469 LINE",
"198 488 LINE SMOOTH",
"198 517 OFFCURVE",
"214 539 OFFCURVE",
"244 539 CURVE SMOOTH",
"268 539 OFFCURVE",
"283 522 OFFCURVE",
"283 494 CURVE SMOOTH",
"283 418 OFFCURVE",
"135 410 OFFCURVE",
"135 264 CURVE",
"135 236 LINE"
);
},
{
closed = 1;
nodes = (
"288 -5 OFFCURVE",
"332 38 OFFCURVE",
"332 91 CURVE SMOOTH",
"332 144 OFFCURVE",
"287 187 OFFCURVE",
"236 187 CURVE SMOOTH",
"184 187 OFFCURVE",
"140 144 OFFCURVE",
"140 90 CURVE SMOOTH",
"140 38 OFFCURVE",
"182 -5 OFFCURVE",
"235 -5 CURVE SMOOTH"
);
}
);
width = 483;
},
{
layerId = "FFFA8D72-12AC-4CE0-B2CA-57A29829F4DA";
paths = (
{
closed = 1;
nodes = (
"357 236 LINE",
"357 252 LINE",
"357 339 OFFCURVE",
"541 338 OFFCURVE",
"541 503 CURVE SMOOTH",
"541 627 OFFCURVE",
"442 710 OFFCURVE",
"288 710 CURVE SMOOTH",
"129 710 OFFCURVE",
"20 620 OFFCURVE",
"20 488 CURVE SMOOTH",
"20 478 LINE",
"208 469 LINE",
"208 488 LINE SMOOTH",
"208 517 OFFCURVE",
"236 539 OFFCURVE",
"283 539 CURVE SMOOTH",
"324 539 OFFCURVE",
"351 522 OFFCURVE",
"351 494 CURVE SMOOTH",
"351 418 OFFCURVE",
"170 410 OFFCURVE",
"170 264 CURVE",
"170 236 LINE"
);
},
{
closed = 1;
nodes = (
"327 -5 OFFCURVE",
"374 38 OFFCURVE",
"374 91 CURVE SMOOTH",
"374 144 OFFCURVE",
"326 187 OFFCURVE",
"272 187 CURVE SMOOTH",
"216 187 OFFCURVE",
"169 144 OFFCURVE",
"169 90 CURVE SMOOTH",
"169 38 OFFCURVE",
"214 -5 OFFCURVE",
"271 -5 CURVE SMOOTH"
);
}
);
width = 562;
},
{
layerId = "DCBE1F7B-116A-43E0-B7B4-8657BA77D8B5";
paths = (
{
closed = 1;
nodes = (
"159 185 LINE",
"159 271 LINE",
"159 372 OFFCURVE",
"284 378 OFFCURVE",
"284 546 CURVE SMOOTH",
"284 645 OFFCURVE",
"235 709 OFFCURVE",
"161 709 CURVE SMOOTH",
"86 709 OFFCURVE",
"35 645 OFFCURVE",
"35 550 CURVE SMOOTH",
"35 500 LINE",
"57 500 LINE",
"57 550 LINE SMOOTH",
"57 633 OFFCURVE",
"99 688 OFFCURVE",
"161 688 CURVE SMOOTH",
"221 688 OFFCURVE",
"262 633 OFFCURVE",
"262 549 CURVE SMOOTH",
"262 395 OFFCURVE",
"135 394 OFFCURVE",
"135 271 CURVE",
"135 185 LINE"
);
},
{
closed = 1;
nodes = (
"167 5 OFFCURVE",
"183 23 OFFCURVE",
"183 46 CURVE SMOOTH",
"183 68 OFFCURVE",
"167 86 OFFCURVE",
"149 86 CURVE SMOOTH",
"131 86 OFFCURVE",
"116 68 OFFCURVE",
"116 46 CURVE SMOOTH",
"116 23 OFFCURVE",
"131 5 OFFCURVE",
"149 5 CURVE SMOOTH"
);
}
);
width = 322;
}
);
unicode = 003F;
},
{
glyphname = quotedbl;
lastChange = "2017-02-15 22:33:51 +0000";
layers = (
{
layerId = "262880E7-CFE1-4BDA-902E-E24798F3240A";
paths = (
{
closed = 1;
nodes = (
"113 500 LINE",
"116 692 LINE",
"90 692 LINE",
"93 500 LINE"
);
},
{
closed = 1;
nodes = (
"23 500 LINE",
"26 692 LINE",
"0 692 LINE",
"3 500 LINE"
);
}
);
width = 156;
},
{
layerId = "4E2227F3-52E4-4048-A8EE-327B486EF0A4";
paths = (
{
closed = 1;
nodes = (
"380 460 LINE",
"400 700 LINE",
"222 700 LINE",
"242 460 LINE"
);
},
{
closed = 1;
nodes = (
"154 460 LINE",
"174 700 LINE",
"-4 700 LINE",
"16 460 LINE"
);
}
);
width = 400;
},
{
layerId = "FFFA8D72-12AC-4CE0-B2CA-57A29829F4DA";
paths = (
{
closed = 1;
nodes = (
"403 460 LINE",
"423 700 LINE",
"244 700 LINE",
"264 460 LINE"
);
},
{
closed = 1;
nodes = (
"163 460 LINE",
"183 700 LINE",
"4 700 LINE",
"24 460 LINE"
);
}
);
width = 423;
},
{
layerId = "DCBE1F7B-116A-43E0-B7B4-8657BA77D8B5";
paths = (
{
closed = 1;
nodes = (
"124 500 LINE",
"127 692 LINE",
"102 692 LINE",
"104 500 LINE"
);
},
{
closed = 1;
nodes = (
"50 500 LINE",
"53 692 LINE",
"28 692 LINE",
"31 500 LINE"
);
}
);
width = 157;
}
);
leftKerningGroup = quotedbl;
leftMetricsKey = "=quotesingle";
rightKerningGroup = quotedbl;
rightMetricsKey = "=quotesingle";
unicode = 0022;
},
{
glyphname = quotesingle;
lastChange = "2017-02-15 22:33:51 +0000";
layers = (
{
layerId = "262880E7-CFE1-4BDA-902E-E24798F3240A";
paths = (
{
closed = 1;
nodes = (
"23 507 LINE",
"26 697 LINE",
"0 697 LINE",
"3 507 LINE"
);
}
);
width = 66;
},
{
layerId = "4E2227F3-52E4-4048-A8EE-327B486EF0A4";
paths = (
{
closed = 1;
nodes = (
"164 460 LINE",
"184 700 LINE",
"-4 700 LINE",
"16 460 LINE"
);
}
);
width = 184;
},
{
layerId = "FFFA8D72-12AC-4CE0-B2CA-57A29829F4DA";
paths = (
{
closed = 1;
nodes = (
"173 460 LINE",
"193 700 LINE",
"4 700 LINE",
"24 460 LINE"
);
}
);
width = 193;
},
{
layerId = "DCBE1F7B-116A-43E0-B7B4-8657BA77D8B5";
paths = (
{
closed = 1;
nodes = (
"50 507 LINE",
"53 697 LINE",
"28 697 LINE",
"31 507 LINE"
);
}
);
width = 83;
}
);
leftKerningGroup = quotedbl;
rightKerningGroup = quotedbl;
rightMetricsKey = "=o-10";
unicode = 0027;
},
{
glyphname = semicolon;
lastChange = "2017-01-20 08:41:53 +0000";
layers = (
{
layerId = "262880E7-CFE1-4BDA-902E-E24798F3240A";
paths = (
{
closed = 1;
nodes = (
"137 -60 LINE",
"173 147 LINE",
"149 147 LINE",
"116 -60 LINE"
);
},
{
closed = 1;
nodes = (
"179 370 OFFCURVE",
"199 388 OFFCURVE",
"199 411 CURVE",
"199 433 OFFCURVE",
"179 451 OFFCURVE",
"157 451 CURVE SMOOTH",
"135 451 OFFCURVE",
"116 433 OFFCURVE",
"116 411 CURVE SMOOTH",
"116 388 OFFCURVE",
"134 370 OFFCURVE",
"157 370 CURVE SMOOTH"
);
}
);
width = 307;
},
{
layerId = "4E2227F3-52E4-4048-A8EE-327B486EF0A4";
paths = (
{
closed = 1;
nodes = (
"154 -111 LINE",
"217 160 LINE",
"49 160 LINE",
"32 -111 LINE"
);
},
{
closed = 1;
nodes = (
"191 291 OFFCURVE",
"234 338 OFFCURVE",
"234 396 CURVE SMOOTH",
"234 454 OFFCURVE",
"182 500 OFFCURVE",
"129 500 CURVE SMOOTH",
"76 500 OFFCURVE",
"24 454 OFFCURVE",
"24 396 CURVE SMOOTH",
"24 338 OFFCURVE",
"67 291 OFFCURVE",
"129 291 CURVE SMOOTH"
);
}
);
width = 258;
},
{
layerId = "FFFA8D72-12AC-4CE0-B2CA-57A29829F4DA";
paths = (
{
closed = 1;
nodes = (
"180 -111 LINE",
"249 160 LINE",
"81 160 LINE",
"57 -111 LINE"
);
},
{
closed = 1;
nodes = (
"225 291 OFFCURVE",
"272 338 OFFCURVE",
"272 396 CURVE SMOOTH",
"272 454 OFFCURVE",
"217 500 OFFCURVE",
"160 500 CURVE SMOOTH",
"104 500 OFFCURVE",
"49 454 OFFCURVE",
"49 396 CURVE SMOOTH",
"49 338 OFFCURVE",
"95 291 OFFCURVE",
"160 291 CURVE SMOOTH"
);
}
);
width = 319;
},
{
layerId = "DCBE1F7B-116A-43E0-B7B4-8657BA77D8B5";
paths = (
{
closed = 1;
nodes = (
"69 -60 LINE",
"97 147 LINE",
"74 147 LINE",
"49 -60 LINE"
);
},
{
closed = 1;
nodes = (
"101 370 OFFCURVE",
"117 388 OFFCURVE",
"117 411 CURVE",
"117 433 OFFCURVE",
"101 451 OFFCURVE",
"83 451 CURVE SMOOTH",
"65 451 OFFCURVE",
"49 433 OFFCURVE",
"49 411 CURVE SMOOTH",
"49 388 OFFCURVE",
"64 370 OFFCURVE",
"83 370 CURVE SMOOTH"
);
}
);
width = 166;
}
);
leftKerningGroup = colon;
unicode = 003B;
},
{
glyphname = slash;
lastChange = "2017-01-20 08:41:53 +0000";
layers = (
{
layerId = "262880E7-CFE1-4BDA-902E-E24798F3240A";
paths = (
{
closed = 1;
nodes = (
"22 0 LINE",
"224 700 LINE",
"202 700 LINE",
"0 0 LINE"
);
}
);
width = 224;
},
{
layerId = "4E2227F3-52E4-4048-A8EE-327B486EF0A4";
paths = (
{
closed = 1;
nodes = (
"188 0 LINE",
"442 700 LINE",
"254 700 LINE",
"0 0 LINE"
);
}
);
width = 442;
},
{
layerId = "FFFA8D72-12AC-4CE0-B2CA-57A29829F4DA";
paths = (
{
closed = 1;
nodes = (
"188 0 LINE",
"479 700 LINE",
"292 700 LINE",
"0 0 LINE"
);
}
);
width = 479;
},
{
layerId = "DCBE1F7B-116A-43E0-B7B4-8657BA77D8B5";
paths = (
{
closed = 1;
nodes = (
"22 0 LINE",
"179 700 LINE",
"157 700 LINE",
"0 0 LINE"
);
}
);
width = 179;
}
);
unicode = 002F;
},
{
glyphname = bracketleft;
lastChange = "2017-01-20 08:41:53 +0000";
layers = (
{
layerId = "262880E7-CFE1-4BDA-902E-E24798F3240A";
paths = (
{
closed = 1;
nodes = (
"210 -103 LINE",
"210 -82 LINE",
"53 -82 LINE",
"53 735 LINE",
"209 735 LINE",
"209 756 LINE",
"31 756 LINE",
"31 -103 LINE"
);
}
);
width = 354;
},
{
layerId = "4E2227F3-52E4-4048-A8EE-327B486EF0A4";
paths = (
{
closed = 1;
nodes = (
"293 -164 LINE",
"293 6 LINE",
"218 6 LINE",
"218 648 LINE",
"293 648 LINE",
"293 818 LINE",
"30 818 LINE",
"30 -164 LINE"
);
}
);
width = 373;
},
{
layerId = "FFFA8D72-12AC-4CE0-B2CA-57A29829F4DA";
paths = (
{
closed = 1;
nodes = (
"331 -164 LINE",
"331 6 LINE",
"224 6 LINE",
"224 648 LINE",
"331 648 LINE",
"331 818 LINE",
"36 818 LINE",
"36 -164 LINE"
);
}
);
width = 441;
},
{
layerId = "DCBE1F7B-116A-43E0-B7B4-8657BA77D8B5";
paths = (
{
closed = 1;
nodes = (
"164 -103 LINE",
"164 -82 LINE",
"46 -82 LINE",
"46 735 LINE",
"163 735 LINE",
"163 756 LINE",
"24 756 LINE",
"24 -103 LINE"
);
}
);
width = 273;
}
);
unicode = 005B;
},
{
glyphname = parenleft;
lastChange = "2017-01-20 08:41:53 +0000";
layers = (
{
layerId = "262880E7-CFE1-4BDA-902E-E24798F3240A";
paths = (
{
closed = 1;
nodes = (
"114 -113 LINE",
"57 -17 OFFCURVE",
"19 157 OFFCURVE",
"19 322 CURVE SMOOTH",
"19 490 OFFCURVE",
"57 668 OFFCURVE",
"114 766 CURVE",
"93 766 LINE",
"33 667 OFFCURVE",
"-7 489 OFFCURVE",
"-7 320 CURVE SMOOTH",
"-7 156 OFFCURVE",
"32 -17 OFFCURVE",
"90 -113 CURVE"
);
}
);
width = 200;
},
{
layerId = "4E2227F3-52E4-4048-A8EE-327B486EF0A4";
paths = (
{
closed = 1;
nodes = (
"321 -83 LINE",
"275 10 OFFCURVE",
"213 137 OFFCURVE",
"213 337 CURVE SMOOTH",
"213 536 OFFCURVE",
"275 664 OFFCURVE",
"321 756 CURVE",
"135 756 LINE",
"65 665 OFFCURVE",
"3 536 OFFCURVE",
"3 337 CURVE SMOOTH",
"3 137 OFFCURVE",
"65 9 OFFCURVE",
"135 -83 CURVE"
);
}
);
width = 371;
},
{
layerId = "FFFA8D72-12AC-4CE0-B2CA-57A29829F4DA";
paths = (
{
closed = 1;
nodes = (
"337 -83 LINE",
"280 10 OFFCURVE",
"211 137 OFFCURVE",
"211 337 CURVE SMOOTH",
"211 536 OFFCURVE",
"280 664 OFFCURVE",
"337 756 CURVE",
"151 756 LINE",
"70 665 OFFCURVE",
"1 536 OFFCURVE",
"1 337 CURVE SMOOTH",
"1 137 OFFCURVE",
"70 9 OFFCURVE",
"151 -83 CURVE"
);
}
);
width = 405;
},
{
layerId = "DCBE1F7B-116A-43E0-B7B4-8657BA77D8B5";
paths = (
{
closed = 1;
nodes = (
"94 -113 LINE",
"51 -17 OFFCURVE",
"21 157 OFFCURVE",
"21 322 CURVE SMOOTH",
"21 490 OFFCURVE",
"51 668 OFFCURVE",
"94 766 CURVE",
"73 766 LINE",
"26 667 OFFCURVE",
"-5 489 OFFCURVE",
"-5 320 CURVE SMOOTH",
"-5 156 OFFCURVE",
"26 -17 OFFCURVE",
"70 -113 CURVE"
);
}
);
width = 159;
}
);
unicode = 0028;
},
{
glyphname = emdash;
lastChange = "2017-01-20 08:41:53 +0000";
layers = (
{
layerId = "262880E7-CFE1-4BDA-902E-E24798F3240A";
paths = (
{
closed = 1;
nodes = (
"436 251 LINE",
"436 272 LINE",
"24 272 LINE",
"24 251 LINE"
);
}
);
width = 460;
},
{
layerId = "4E2227F3-52E4-4048-A8EE-327B486EF0A4";
paths = (
{
closed = 1;
nodes = (
"419 165 LINE",
"419 325 LINE",
"12 325 LINE",
"12 165 LINE"
);
}
);
width = 431;
},
{
layerId = "FFFA8D72-12AC-4CE0-B2CA-57A29829F4DA";
paths = (
{
closed = 1;
nodes = (
"504 165 LINE",
"504 325 LINE",
"17 325 LINE",
"17 165 LINE"
);
}
);
width = 521;
},
{
layerId = "DCBE1F7B-116A-43E0-B7B4-8657BA77D8B5";
paths = (
{
closed = 1;
nodes = (
"334 251 LINE",
"334 272 LINE",
"18 272 LINE",
"18 251 LINE"
);
}
);
width = 352;
}
);
leftKerningGroup = hyphen;
rightKerningGroup = hyphen;
unicode = 2014;
},
{
glyphname = hyphen;
lastChange = "2017-01-20 08:41:53 +0000";
layers = (
{
layerId = "262880E7-CFE1-4BDA-902E-E24798F3240A";
paths = (
{
closed = 1;
nodes = (
"275 251 LINE",
"275 272 LINE",
"23 272 LINE",
"23 251 LINE"
);
}
);
width = 298;
},
{
layerId = "4E2227F3-52E4-4048-A8EE-327B486EF0A4";
paths = (
{
closed = 1;
nodes = (
"299 165 LINE",
"299 325 LINE",
"12 325 LINE",
"12 165 LINE"
);
}
);
width = 311;
},
{
layerId = "FFFA8D72-12AC-4CE0-B2CA-57A29829F4DA";
paths = (
{
closed = 1;
nodes = (
"352 165 LINE",
"352 325 LINE",
"17 325 LINE",
"17 165 LINE"
);
}
);
width = 369;
},
{
layerId = "DCBE1F7B-116A-43E0-B7B4-8657BA77D8B5";
paths = (
{
closed = 1;
nodes = (
"212 251 LINE",
"212 272 LINE",
"17 272 LINE",
"17 251 LINE"
);
}
);
width = 229;
}
);
leftKerningGroup = hyphen;
rightKerningGroup = hyphen;
unicode = 002D;
},
{
glyphname = quotedblleft;
lastChange = "2017-01-20 08:41:53 +0000";
layers = (
{
layerId = "262880E7-CFE1-4BDA-902E-E24798F3240A";
paths = (
{
closed = 1;
nodes = (
"96 507 LINE",
"26 697 LINE",
"0 697 LINE",
"76 507 LINE"
);
},
{
closed = 1;
nodes = (
"199 507 LINE",
"129 697 LINE",
"103 697 LINE",
"179 507 LINE"
);
}
);
width = 199;
},
{
layerId = "4E2227F3-52E4-4048-A8EE-327B486EF0A4";
paths = (
{
closed = 1;
nodes = (
"253 460 LINE",
"187 700 LINE",
"0 700 LINE",
"111 460 LINE"
);
},
{
closed = 1;
nodes = (
"423 460 LINE",
"404 700 LINE",
"219 700 LINE",
"293 460 LINE"
);
}
);
width = 423;
},
{
layerId = "FFFA8D72-12AC-4CE0-B2CA-57A29829F4DA";
paths = (
{
closed = 1;
nodes = (
"267 460 LINE",
"188 700 LINE",
"0 700 LINE",
"125 460 LINE"
);
},
{
closed = 1;
nodes = (
"455 460 LINE",
"421 700 LINE",
"236 700 LINE",
"324 460 LINE"
);
}
);
width = 455;
},
{
layerId = "DCBE1F7B-116A-43E0-B7B4-8657BA77D8B5";
paths = (
{
closed = 1;
nodes = (
"79 507 LINE",
"25 697 LINE",
"0 697 LINE",
"60 507 LINE"
);
},
{
closed = 1;
nodes = (
"160 507 LINE",
"108 697 LINE",
"82 697 LINE",
"141 507 LINE"
);
}
);
width = 160;
}
);
leftMetricsKey = "=quoteleft";
rightMetricsKey = "=quoteleft";
unicode = 201C;
},
{
glyphname = quoteleft;
lastChange = "2017-01-20 08:41:53 +0000";
layers = (
{
layerId = "262880E7-CFE1-4BDA-902E-E24798F3240A";
paths = (
{
closed = 1;
nodes = (
"26 697 LINE",
"0 697 LINE",
"76 507 LINE",
"96 507 LINE"
);
}
);
width = 96;
},
{
layerId = "4E2227F3-52E4-4048-A8EE-327B486EF0A4";
paths = (
{
closed = 1;
nodes = (
"188 700 LINE",
"0 700 LINE",
"83 460 LINE",
"231 460 LINE"
);
}
);
width = 231;
},
{
layerId = "FFFA8D72-12AC-4CE0-B2CA-57A29829F4DA";
paths = (
{
closed = 1;
nodes = (
"189 700 LINE",
"0 700 LINE",
"98 460 LINE",
"246 460 LINE"
);
}
);
width = 246;
},
{
layerId = "DCBE1F7B-116A-43E0-B7B4-8657BA77D8B5";
paths = (
{
closed = 1;
nodes = (
"25 697 LINE",
"0 697 LINE",
"59 507 LINE",
"78 507 LINE"
);
}
);
width = 78;
}
);
unicode = 2018;
},
{
glyphname = dollar;
lastChange = "2017-02-16 04:19:28 +0000";
layers = (
{
components = (
{
name = S;
}
);
layerId = "262880E7-CFE1-4BDA-902E-E24798F3240A";
paths = (
{
closed = 1;
nodes = (
"267 -88 LINE",
"267 2 LINE",
"244 2 LINE",
"244 -88 LINE"
);
},
{
closed = 1;
nodes = (
"259 702 LINE",
"259 792 LINE",
"237 792 LINE",
"237 702 LINE"
);
}
);
width = 498;
},
{
components = (
{
name = S;
}
);
layerId = "4E2227F3-52E4-4048-A8EE-327B486EF0A4";
paths = (
{
closed = 1;
nodes = (
"277 -68 LINE",
"274 53 LINE",
"161 53 LINE",
"158 -68 LINE"
);
},
{
closed = 1;
nodes = (
"274 657 LINE",
"277 778 LINE",
"160 778 LINE",
"163 657 LINE"
);
}
);
width = 451;
},
{
components = (
{
name = S;
}
);
layerId = "FFFA8D72-12AC-4CE0-B2CA-57A29829F4DA";
paths = (
{
closed = 1;
nodes = (
"317 -68 LINE",
"314 53 LINE",
"199 53 LINE",
"196 -68 LINE"
);
},
{
closed = 1;
nodes = (
"312 657 LINE",
"315 778 LINE",
"196 778 LINE",
"199 657 LINE"
);
}
);
width = 508;
},
{
components = (
{
name = S;
}
);
layerId = "DCBE1F7B-116A-43E0-B7B4-8657BA77D8B5";
paths = (
{
closed = 1;
nodes = (
"207 -88 LINE",
"207 2 LINE",
"187 2 LINE",
"187 -88 LINE"
);
},
{
closed = 1;
nodes = (
"202 702 LINE",
"202 792 LINE",
"182 792 LINE",
"182 702 LINE"
);
}
);
width = 387;
}
);
unicode = 0024;
},
{
glyphname = at;
lastChange = "2017-02-16 04:20:13 +0000";
layers = (
{
components = (
{
name = a;
transform = "{0.59, 0, 0, 0.59, 309, 138}";
}
);
layerId = "262880E7-CFE1-4BDA-902E-E24798F3240A";
paths = (
{
closed = 1;
nodes = (
"659 -71 OFFCURVE",
"826 92 OFFCURVE",
"826 290 CURVE SMOOTH",
"826 488 OFFCURVE",
"659 651 OFFCURVE",
"454 651 CURVE SMOOTH",
"249 651 OFFCURVE",
"82 488 OFFCURVE",
"82 290 CURVE SMOOTH",
"82 92 OFFCURVE",
"249 -71 OFFCURVE",
"454 -71 CURVE SMOOTH"
);
},
{
closed = 1;
nodes = (
"261 -50 OFFCURVE",
"104 102 OFFCURVE",
"104 290 CURVE SMOOTH",
"104 478 OFFCURVE",
"261 630 OFFCURVE",
"454 630 CURVE SMOOTH",
"647 630 OFFCURVE",
"803 478 OFFCURVE",
"803 290 CURVE SMOOTH",
"803 102 OFFCURVE",
"647 -50 OFFCURVE",
"454 -50 CURVE SMOOTH"
);
}
);
width = 882;
},
{
components = (
{
name = a;
transform = "{0.59, 0, 0, 0.59, 287, 131}";
}
);
layerId = "4E2227F3-52E4-4048-A8EE-327B486EF0A4";
paths = (
{
closed = 1;
nodes = (
"641 -62 OFFCURVE",
"782 80 OFFCURVE",
"782 292 CURVE SMOOTH",
"782 503 OFFCURVE",
"641 644 OFFCURVE",
"429 644 CURVE SMOOTH",
"218 644 OFFCURVE",
"77 503 OFFCURVE",
"77 292 CURVE SMOOTH",
"77 80 OFFCURVE",
"218 -62 OFFCURVE",
"429 -62 CURVE SMOOTH"
);
},
{
closed = 1;
nodes = (
"278 38 OFFCURVE",
"177 140 OFFCURVE",
"177 292 CURVE SMOOTH",
"177 443 OFFCURVE",
"278 544 OFFCURVE",
"429 544 CURVE SMOOTH",
"581 544 OFFCURVE",
"682 443 OFFCURVE",
"682 292 CURVE SMOOTH",
"682 140 OFFCURVE",
"581 38 OFFCURVE",
"429 38 CURVE SMOOTH"
);
}
);
width = 862;
},
{
components = (
{
name = a;
transform = "{0.59, 0, 0, 0.59, 271, 129}";
}
);
layerId = "FFFA8D72-12AC-4CE0-B2CA-57A29829F4DA";
paths = (
{
closed = 1;
nodes = (
"643 -82 OFFCURVE",
"793 63 OFFCURVE",
"793 272 CURVE SMOOTH",
"793 480 OFFCURVE",
"643 624 OFFCURVE",
"427 624 CURVE SMOOTH",
"212 624 OFFCURVE",
"63 480 OFFCURVE",
"63 272 CURVE SMOOTH",
"63 63 OFFCURVE",
"212 -82 OFFCURVE",
"427 -82 CURVE SMOOTH"
);
},
{
closed = 1;
nodes = (
"272 18 OFFCURVE",
"165 122 OFFCURVE",
"165 272 CURVE SMOOTH",
"165 421 OFFCURVE",
"272 524 OFFCURVE",
"427 524 CURVE SMOOTH",
"583 524 OFFCURVE",
"691 421 OFFCURVE",
"691 272 CURVE SMOOTH",
"691 122 OFFCURVE",
"583 18 OFFCURVE",
"427 18 CURVE SMOOTH"
);
}
);
width = 862;
},
{
components = (
{
name = a;
transform = "{0.59, 0, 0, 0.59, 235, 138}";
}
);
layerId = "DCBE1F7B-116A-43E0-B7B4-8657BA77D8B5";
paths = (
{
closed = 1;
nodes = (
"516 -15 OFFCURVE",
"633 102 OFFCURVE",
"633 270 CURVE SMOOTH",
"633 438 OFFCURVE",
"516 555 OFFCURVE",
"348 555 CURVE SMOOTH",
"180 555 OFFCURVE",
"63 438 OFFCURVE",
"63 270 CURVE SMOOTH",
"63 102 OFFCURVE",
"180 -15 OFFCURVE",
"348 -15 CURVE SMOOTH"
);
},
{
closed = 1;
nodes = (
"192 6 OFFCURVE",
"83 114 OFFCURVE",
"83 270 CURVE SMOOTH",
"83 426 OFFCURVE",
"192 534 OFFCURVE",
"348 534 CURVE SMOOTH",
"504 534 OFFCURVE",
"613 426 OFFCURVE",
"613 270 CURVE SMOOTH",
"613 114 OFFCURVE",
"504 6 OFFCURVE",
"348 6 CURVE SMOOTH"
);
}
);
width = 696;
}
);
unicode = 0040;
},
{
glyphname = copyright;
lastChange = "2017-02-16 04:19:27 +0000";
layers = (
{
components = (
{
name = C;
transform = "{0.5, 0, 0, 0.5, 313, 111}";
}
);
layerId = "262880E7-CFE1-4BDA-902E-E24798F3240A";
paths = (
{
closed = 1;
nodes = (
"677 -71 OFFCURVE",
"826 73 OFFCURVE",
"826 290 CURVE SMOOTH",
"826 507 OFFCURVE",
"677 651 OFFCURVE",
"454 651 CURVE SMOOTH",
"230 651 OFFCURVE",
"82 507 OFFCURVE",
"82 290 CURVE SMOOTH",
"82 73 OFFCURVE",
"230 -71 OFFCURVE",
"454 -71 CURVE SMOOTH"
);
},
{
closed = 1;
nodes = (
"245 -50 OFFCURVE",
"104 86 OFFCURVE",
"104 290 CURVE SMOOTH",
"104 494 OFFCURVE",
"245 630 OFFCURVE",
"454 630 CURVE SMOOTH",
"663 630 OFFCURVE",
"803 494 OFFCURVE",
"803 290 CURVE SMOOTH",
"803 86 OFFCURVE",
"663 -50 OFFCURVE",
"454 -50 CURVE SMOOTH"
);
}
);
width = 882;
},
{
components = (
{
name = C;
transform = "{0.5, 0, 0, 0.5, 324, 111}";
}
);
layerId = "4E2227F3-52E4-4048-A8EE-327B486EF0A4";
paths = (
{
closed = 1;
nodes = (
"641 -62 OFFCURVE",
"782 80 OFFCURVE",
"782 292 CURVE SMOOTH",
"782 503 OFFCURVE",
"641 644 OFFCURVE",
"429 644 CURVE SMOOTH",
"218 644 OFFCURVE",
"77 503 OFFCURVE",
"77 292 CURVE SMOOTH",
"77 80 OFFCURVE",
"218 -62 OFFCURVE",
"429 -62 CURVE SMOOTH"
);
},
{
closed = 1;
nodes = (
"278 38 OFFCURVE",
"177 140 OFFCURVE",
"177 292 CURVE SMOOTH",
"177 443 OFFCURVE",
"278 544 OFFCURVE",
"429 544 CURVE SMOOTH",
"581 544 OFFCURVE",
"682 443 OFFCURVE",
"682 292 CURVE SMOOTH",
"682 140 OFFCURVE",
"581 38 OFFCURVE",
"429 38 CURVE SMOOTH"
);
}
);
width = 882;
},
{
components = (
{
name = C;
transform = "{0.5, 0, 0, 0.5, 301, 111}";
}
);
layerId = "FFFA8D72-12AC-4CE0-B2CA-57A29829F4DA";
paths = (
{
closed = 1;
nodes = (
"691 -62 OFFCURVE",
"861 80 OFFCURVE",
"861 292 CURVE SMOOTH",
"861 503 OFFCURVE",
"691 644 OFFCURVE",
"435 644 CURVE SMOOTH",
"181 644 OFFCURVE",
"11 503 OFFCURVE",
"11 292 CURVE SMOOTH",
"11 80 OFFCURVE",
"181 -62 OFFCURVE",
"435 -62 CURVE SMOOTH"
);
},
{
closed = 1;
nodes = (
"242 38 OFFCURVE",
"113 140 OFFCURVE",
"113 292 CURVE SMOOTH",
"113 443 OFFCURVE",
"242 544 OFFCURVE",
"435 544 CURVE SMOOTH",
"629 544 OFFCURVE",
"759 443 OFFCURVE",
"759 292 CURVE SMOOTH",
"759 140 OFFCURVE",
"629 38 OFFCURVE",
"435 38 CURVE SMOOTH"
);
}
);
width = 882;
},
{
components = (
{
name = C;
transform = "{0.5, 0, 0, 0.5, 236, 111}";
}
);
layerId = "DCBE1F7B-116A-43E0-B7B4-8657BA77D8B5";
paths = (
{
closed = 1;
nodes = (
"519 -71 OFFCURVE",
"633 73 OFFCURVE",
"633 290 CURVE SMOOTH",
"633 507 OFFCURVE",
"519 651 OFFCURVE",
"348 651 CURVE SMOOTH",
"177 651 OFFCURVE",
"63 507 OFFCURVE",
"63 290 CURVE SMOOTH",
"63 73 OFFCURVE",
"177 -71 OFFCURVE",
"348 -71 CURVE SMOOTH"
);
},
{
closed = 1;
nodes = (
"189 -50 OFFCURVE",
"83 86 OFFCURVE",
"83 290 CURVE SMOOTH",
"83 494 OFFCURVE",
"189 630 OFFCURVE",
"348 630 CURVE SMOOTH",
"507 630 OFFCURVE",
"613 494 OFFCURVE",
"613 290 CURVE SMOOTH",
"613 86 OFFCURVE",
"507 -50 OFFCURVE",
"348 -50 CURVE SMOOTH"
);
}
);
width = 882;
}
);
unicode = 00A9;
},
